<?xml version="1.0" encoding="utf-8"?>
<!-- Generator: Adobe Illustrator 16.0.0, SVG Export Plug-In . SVG Version: 6.00 Build 0)  -->
<!DOCTYPE svg PUBLIC "-//W3C//DTD SVG 1.1//EN" "http://www.w3.org/Graphics/SVG/1.1/DTD/svg11.dtd">
<svg version="1.1" xmlns="http://www.w3.org/2000/svg" xmlns:xlink="http://www.w3.org/1999/xlink" x="0px" y="0px" width="800px"
	 height="763px" viewBox="0 0 800 763" enable-background="new 0 0 800 763" xml:space="preserve">
<g id="Background">
	<g>
		<linearGradient id="SVGID_1_" gradientUnits="userSpaceOnUse" x1="400.0005" y1="766" x2="400.0005" y2="4.882813e-004">
			<stop  offset="0" style="stop-color:#DFF1F2"/>
			<stop  offset="1" style="stop-color:#B3E1EF"/>
		</linearGradient>
		<rect fill="url(#SVGID_1_)" width="800" height="766"/>
		<g opacity="0.5">
			<polygon fill="#C7E8EF" points="404.548,0 482.964,234.636 324.498,0 			"/>
			<polygon fill="#C7E8EF" points="482.964,234.636 273.487,0 196.35,0 			"/>
			<polygon fill="#C7E8EF" points="134.88,0 482.964,234.636 54.332,0 			"/>
			<polygon fill="#C7E8EF" points="0,0 482.964,234.636 0,65.69 			"/>
			<polygon fill="#C7E8EF" points="0,107.34 482.964,234.636 0,162.202 			"/>
			<polygon fill="#C7E8EF" points="0,207.873 482.964,234.636 0,267.928 			"/>
			<polygon fill="#C7E8EF" points="0,305.943 482.964,234.636 0,360.381 			"/>
			<polygon fill="#C7E8EF" points="0,398.615 482.964,234.636 0,463.756 			"/>
			<polygon fill="#C7E8EF" points="0,511.135 482.964,234.636 0,587.051 			"/>
			<polygon fill="#C7E8EF" points="0,630.089 482.964,234.636 0,699.046 			"/>
			<polygon fill="#C7E8EF" points="0,742.02 482.964,234.636 66.962,766 0,766 			"/>
			<polygon fill="#C7E8EF" points="123.126,766 482.964,234.636 190,766 			"/>
			<polygon fill="#C7E8EF" points="240.93,766 482.964,234.636 314.849,766 			"/>
			<polygon fill="#C7E8EF" points="363.116,766 482.964,234.636 430.258,766 			"/>
			<polygon fill="#C7E8EF" points="476.254,766 482.964,234.636 540.586,766 			"/>
			<polygon fill="#C7E8EF" points="593.01,766 482.964,234.636 661.52,766 			"/>
			<polygon fill="#C7E8EF" points="705.104,766 482.964,234.636 773.571,766 			"/>
			<polygon fill="#C7E8EF" points="800,733.497 482.964,234.636 800,653.097 			"/>
			<polygon fill="#C7E8EF" points="800,602.932 482.964,234.636 800,524.041 			"/>
			<polygon fill="#C7E8EF" points="800,466.841 482.964,234.636 800,396.187 			"/>
			<polygon fill="#C7E8EF" points="800,342.874 482.964,234.636 800,282.291 			"/>
			<polygon fill="#C7E8EF" points="800,237.9 482.964,234.636 800,167.014 			"/>
			<polygon fill="#C7E8EF" points="800,117.318 482.964,234.636 800,47.021 			"/>
			<polygon fill="#C7E8EF" points="773.571,0 482.964,234.636 691.345,0 			"/>
			<polygon fill="#C7E8EF" points="636.78,0 482.964,234.636 561.239,0 			"/>
			<polygon fill="#C7E8EF" points="516.431,0 482.964,234.636 443.701,0 			"/>
		</g>
	</g>
</g>
<g id="Objects">
	<g>
		<g>
			<g>
				<path fill="#F0B728" d="M583.574,265.206c1.316,0.001,2.377-1.066,2.377-2.38c0.001-1.314-1.065-2.384-2.377-2.384
					l-28.833,0.003c-0.069-1.576-0.213-3.132-0.414-4.67l28.4-5.008c1.296-0.229,2.155-1.464,1.929-2.757
					c-0.226-1.295-1.462-2.163-2.758-1.934l-28.39,5.009c-0.341-1.537-0.735-3.05-1.2-4.535l27.075-9.857
					c1.237-0.45,1.872-1.816,1.423-3.05c-0.447-1.236-1.816-1.874-3.053-1.425l-27.08,9.86c-0.603-1.45-1.27-2.864-1.99-4.248
					l24.967-14.417c1.141-0.657,1.526-2.112,0.87-3.249c-0.656-1.139-2.114-1.531-3.253-0.874l-24.97,14.42
					c-0.844-1.32-1.738-2.602-2.688-3.84l22.086-18.538c1.012-0.845,1.139-2.345,0.293-3.351c-0.843-1.009-2.347-1.141-3.354-0.295
					l-22.083,18.534c-1.059-1.153-2.164-2.259-3.316-3.316l18.531-22.088c0.846-1.007,0.713-2.506-0.296-3.352
					c-1.004-0.846-2.508-0.714-3.352,0.292l-18.535,22.091c-1.236-0.952-2.52-1.848-3.841-2.69l14.418-24.975
					c0.659-1.138,0.265-2.592-0.872-3.248c-1.137-0.659-2.596-0.269-3.253,0.87l-14.412,24.967
					c-1.382-0.721-2.798-1.389-4.245-1.992l9.854-27.083c0.452-1.236-0.189-2.6-1.422-3.047c-1.234-0.452-2.602,0.186-3.053,1.42
					l-9.854,27.078c-1.482-0.467-2.998-0.862-4.536-1.202l5.004-28.392c0.232-1.295-0.635-2.526-1.928-2.754
					c-1.295-0.23-2.53,0.636-2.759,1.931l-5.006,28.396c-1.538-0.2-3.095-0.344-4.673-0.411v-28.832
					c0-1.313-1.062-2.377-2.373-2.379l0,0c-0.003,0-0.003,0-0.005,0c-1.314,0-2.383,1.065-2.383,2.38v28.832
					c-1.574,0.067-3.131,0.211-4.671,0.411l-5.007-28.395c-0.229-1.295-1.465-2.161-2.756-1.932
					c-1.296,0.229-2.161,1.463-1.933,2.758l5.006,28.388c-1.537,0.339-3.051,0.734-4.535,1.202l-9.855-27.075
					c-0.45-1.236-1.816-1.872-3.051-1.422c-1.233,0.449-1.871,1.815-1.422,3.052l9.856,27.078c-1.451,0.602-2.863,1.271-4.246,1.991
					l-14.414-24.962c-0.659-1.14-2.114-1.53-3.255-0.874c-1.135,0.657-1.524,2.114-0.871,3.253l14.418,24.968
					c-1.32,0.842-2.604,1.738-3.842,2.69l-18.53-22.086c-0.846-1.009-2.349-1.139-3.356-0.294c-1.004,0.844-1.138,2.345-0.295,3.354
					l18.531,22.082c-1.151,1.057-2.259,2.164-3.316,3.316l-22.084-18.53c-1.005-0.844-2.507-0.713-3.351,0.295
					c-0.846,1.005-0.714,2.507,0.292,3.354l22.086,18.532c-0.952,1.237-1.846,2.52-2.689,3.84l-24.968-14.415
					c-1.137-0.658-2.595-0.267-3.252,0.872c-0.657,1.136-0.266,2.593,0.87,3.253l24.964,14.412c-0.722,1.382-1.39,2.796-1.992,4.246
					l-27.076-9.854c-1.234-0.451-2.603,0.188-3.051,1.424c-0.447,1.232,0.189,2.599,1.422,3.052l27.073,9.851
					c-0.467,1.485-0.86,3-1.201,4.537l-28.387-5.004c-1.292-0.231-2.527,0.635-2.757,1.93c-0.227,1.293,0.636,2.526,1.933,2.758
					l28.392,5.006c-0.2,1.539-0.344,3.096-0.412,4.671l-28.828,0.001c-1.313-0.001-2.378,1.065-2.379,2.382
					c0,1.312,1.066,2.375,2.379,2.38l28.828-0.001c0.068,1.577,0.212,3.132,0.412,4.671l-28.391,5.007
					c-1.294,0.228-2.158,1.463-1.931,2.759c0.228,1.292,1.462,2.154,2.756,1.93l28.385-5.006c0.341,1.536,0.734,3.051,1.201,4.536
					l-27.073,9.855c-1.232,0.446-1.867,1.815-1.419,3.051c0.447,1.232,1.814,1.866,3.05,1.422l27.074-9.856
					c0.603,1.451,1.271,2.865,1.992,4.249l-24.96,14.412c-1.14,0.653-1.527,2.113-0.87,3.252c0.656,1.135,2.111,1.524,3.25,0.871
					l24.966-14.415c0.844,1.321,1.737,2.604,2.69,3.842l-22.084,18.531c-1.007,0.842-1.137,2.345-0.292,3.354
					c0.845,1.005,2.345,1.134,3.354,0.293l22.079-18.527c1.057,1.152,2.165,2.259,3.318,3.317l-18.53,22.082
					c-0.846,1.004-0.71,2.505,0.297,3.352c1.005,0.843,2.507,0.712,3.353-0.293l18.529-22.083c1.238,0.952,2.522,1.847,3.842,2.691
					l-14.413,24.966c-0.658,1.136-0.265,2.59,0.872,3.25c1.137,0.655,2.594,0.265,3.251-0.871l14.411-24.96
					c1.385,0.722,2.799,1.39,4.25,1.992l-9.857,27.075c-0.449,1.234,0.19,2.598,1.427,3.049c1.23,0.449,2.597-0.189,3.05-1.424
					l9.852-27.069c1.483,0.467,2.999,0.861,4.535,1.201l-5.005,28.386c-0.229,1.292,0.638,2.525,1.933,2.754
					c1.293,0.228,2.529-0.638,2.758-1.93l5.005-28.392c1.54,0.201,3.097,0.343,4.67,0.412l0.002,28.828
					c-0.002,1.314,1.068,2.377,2.383,2.378c1.312,0,2.376-1.066,2.38-2.379l-0.002-28.826c1.577-0.069,3.133-0.211,4.671-0.413
					l5.009,28.394c0.227,1.293,1.464,2.154,2.757,1.928c1.293-0.228,2.157-1.463,1.933-2.756l-5.006-28.384
					c1.536-0.34,3.051-0.735,4.533-1.202l9.856,27.072c0.448,1.236,1.814,1.868,3.05,1.421c1.232-0.449,1.87-1.815,1.424-3.051
					l-9.856-27.074c1.451-0.602,2.865-1.271,4.246-1.992l14.415,24.963c0.656,1.14,2.111,1.525,3.249,0.868
					c1.138-0.655,1.529-2.111,0.875-3.25L529.751,308.5c1.319-0.843,2.601-1.739,3.84-2.69l18.534,22.085
					c0.844,1.008,2.345,1.135,3.35,0.291c1.007-0.843,1.138-2.344,0.297-3.354l-18.531-22.082c1.152-1.058,2.258-2.163,3.315-3.316
					l22.084,18.529c1.007,0.847,2.506,0.712,3.351-0.295c0.846-1.003,0.717-2.506-0.292-3.352l-22.085-18.533
					c0.951-1.239,1.846-2.521,2.688-3.841l24.971,14.416c1.138,0.661,2.592,0.265,3.25-0.873c0.656-1.136,0.269-2.593-0.869-3.253
					l-24.968-14.411c0.723-1.383,1.392-2.796,1.991-4.246l27.083,9.855c1.235,0.452,2.598-0.188,3.048-1.423
					c0.449-1.234-0.187-2.602-1.423-3.053l-27.074-9.854c0.467-1.483,0.86-2.998,1.199-4.534l28.391,5.005
					c1.298,0.231,2.529-0.636,2.756-1.931c0.229-1.293-0.636-2.53-1.929-2.76l-28.398-5.006c0.2-1.537,0.343-3.092,0.412-4.668
					L583.574,265.206z"/>
				<path opacity="0.2" fill="#FFFFFF" d="M583.574,260.442l-28.833,0.003c-0.069-1.576-0.213-3.132-0.414-4.67l28.4-5.008
					c1.296-0.229,2.155-1.464,1.929-2.757c-0.226-1.295-1.462-2.163-2.758-1.934l-28.39,5.009c-0.341-1.537-0.735-3.05-1.2-4.535
					l27.075-9.857c1.237-0.45,1.872-1.816,1.423-3.05c-0.447-1.236-1.816-1.874-3.053-1.425l-27.08,9.86
					c-0.603-1.45-1.27-2.864-1.99-4.248l24.967-14.417c1.141-0.657,1.526-2.112,0.87-3.249c-0.656-1.139-2.114-1.531-3.253-0.874
					l-24.97,14.42c-0.844-1.32-1.738-2.602-2.688-3.84l22.086-18.538c1.012-0.845,1.139-2.345,0.293-3.351
					c-0.843-1.009-2.347-1.141-3.354-0.295l-22.083,18.534c-1.059-1.153-2.164-2.259-3.316-3.316l18.531-22.088
					c0.846-1.007,0.713-2.506-0.296-3.352c-1.004-0.846-2.508-0.714-3.352,0.292l-18.535,22.091c-1.236-0.952-2.52-1.848-3.841-2.69
					l14.418-24.975c0.659-1.138,0.265-2.592-0.872-3.248c-1.137-0.659-2.596-0.269-3.253,0.87l-14.412,24.967
					c-1.382-0.721-2.798-1.389-4.245-1.992l9.854-27.083c0.452-1.236-0.189-2.6-1.422-3.047c-1.234-0.452-2.602,0.186-3.053,1.42
					l-9.854,27.078c-1.482-0.467-2.998-0.862-4.536-1.202l5.004-28.392c0.232-1.295-0.635-2.526-1.928-2.754
					c-1.295-0.23-2.53,0.636-2.759,1.931l-5.006,28.396c-1.538-0.2-3.095-0.344-4.673-0.411v-28.832
					c0-1.313-1.062-2.377-2.373-2.379c-0.003,0-0.003,0-0.004,0v170.645c0.001,0,0.003,0,0.004,0c1.312,0,2.376-1.066,2.38-2.379
					l-0.002-28.826c1.577-0.069,3.133-0.211,4.671-0.413l5.009,28.394c0.227,1.293,1.464,2.154,2.757,1.928
					c1.293-0.228,2.157-1.463,1.933-2.756l-5.006-28.384c1.536-0.34,3.051-0.735,4.533-1.202l9.856,27.072
					c0.448,1.236,1.814,1.868,3.05,1.421c1.232-0.449,1.87-1.815,1.424-3.051l-9.856-27.074c1.451-0.602,2.865-1.271,4.246-1.992
					l14.415,24.963c0.656,1.14,2.111,1.525,3.249,0.868c1.138-0.655,1.529-2.111,0.875-3.25L529.751,308.5
					c1.319-0.843,2.601-1.739,3.84-2.69l18.534,22.085c0.844,1.008,2.345,1.135,3.35,0.291c1.007-0.843,1.138-2.344,0.297-3.354
					l-18.531-22.082c1.152-1.058,2.258-2.163,3.315-3.316l22.084,18.529c1.007,0.847,2.506,0.712,3.351-0.295
					c0.846-1.003,0.717-2.506-0.292-3.352l-22.085-18.533c0.951-1.239,1.846-2.521,2.688-3.841l24.971,14.416
					c1.138,0.661,2.592,0.265,3.25-0.873c0.656-1.136,0.269-2.593-0.869-3.253l-24.968-14.411c0.723-1.383,1.392-2.796,1.991-4.246
					l27.083,9.855c1.235,0.452,2.598-0.188,3.048-1.423c0.449-1.234-0.187-2.602-1.423-3.053l-27.074-9.854
					c0.467-1.483,0.86-2.998,1.199-4.534l28.391,5.005c1.298,0.231,2.529-0.636,2.756-1.931c0.229-1.293-0.636-2.53-1.929-2.76
					l-28.398-5.006c0.2-1.537,0.343-3.092,0.412-4.668l28.833,0c1.316,0.001,2.377-1.066,2.377-2.38
					C585.952,261.512,584.886,260.442,583.574,260.442z"/>
			</g>
			<g>
				<g>
					<g>
						<path fill="#F4F4F4" d="M37.221,281.159c3.204-11.248,12.967-19.428,24.516-19.428c5.96,0,11.443,2.187,15.798,5.848
							c4.094-16.574,18.173-28.789,34.93-28.789c16.13,0,29.791,11.333,34.437,26.973c0.559-0.051,1.121-0.084,1.692-0.084
							c9.723,0,17.734,7.8,18.9,17.874c17.413,0.832,24.018,19.798,17.885,35.408H12.368
							C12.368,318.96,7.058,280.696,37.221,281.159z"/>
					</g>
					<path opacity="0.5" fill="#FFFFFF" d="M167.493,283.553c-1.166-10.074-9.177-17.874-18.9-17.874
						c-0.571,0-1.133,0.033-1.692,0.084c-4.646-15.64-18.306-26.973-34.437-26.973c-3.607,0-7.089,0.569-10.376,1.624v78.547h83.289
						C191.511,303.351,184.906,284.384,167.493,283.553z"/>
				</g>
				<g>
					<g>
						<path fill="#F4F4F4" d="M630.9,265.061c3.132-11.004,12.688-19.005,23.982-19.005c5.832,0,11.196,2.139,15.456,5.72
							c4.005-16.214,17.781-28.165,34.176-28.165c15.779,0,29.142,11.088,33.688,26.389c0.547-0.051,1.099-0.084,1.654-0.084
							c9.513,0,17.35,7.633,18.49,17.486c17.035,0.814,23.497,19.371,17.497,34.641H606.586
							C606.586,302.042,601.392,264.608,630.9,265.061z"/>
					</g>
					<path opacity="0.5" fill="#FFFFFF" d="M758.347,267.402c-1.141-9.854-8.978-17.486-18.49-17.486
						c-0.556,0-1.107,0.033-1.654,0.084c-4.546-15.301-17.908-26.389-33.688-26.389c-3.529,0-6.938,0.557-10.153,1.588v76.844
						h81.482C781.844,286.772,775.382,268.216,758.347,267.402z"/>
				</g>
				<g>
					<g>
						<path fill="#F4F4F4" d="M426.967,372.617c-3.492-12.27-14.146-21.192-26.743-21.192c-6.5,0-12.482,2.386-17.233,6.378
							c-4.464-18.079-19.825-31.404-38.105-31.404c-17.594,0-32.496,12.363-37.563,29.423c-0.61-0.055-1.225-0.092-1.846-0.092
							c-10.607,0-19.346,8.511-20.617,19.497c-18.996,0.909-26.201,21.599-19.51,38.625h188.729
							C454.079,413.853,459.872,372.112,426.967,372.617z"/>
					</g>
					<path opacity="0.5" fill="#FFFFFF" d="M284.86,375.228c1.271-10.986,10.01-19.497,20.617-19.497
						c0.621,0,1.236,0.037,1.846,0.092c5.067-17.06,19.969-29.423,37.563-29.423c3.937,0,7.736,0.621,11.321,1.771v85.683H265.35
						C258.659,396.826,265.864,376.136,284.86,375.228z"/>
				</g>
				<g>
					<g>
						<path fill="#F4F4F4" d="M345.256,213.137c-2.147-7.539-8.692-13.021-16.432-13.021c-3.995,0-7.669,1.465-10.588,3.918
							c-2.744-11.108-12.181-19.296-23.413-19.296c-10.811,0-19.965,7.597-23.08,18.08c-0.375-0.034-0.752-0.057-1.134-0.057
							c-6.518,0-11.887,5.228-12.667,11.979c-11.671,0.559-16.098,13.272-11.987,23.732h115.959
							C361.914,238.473,365.472,212.826,345.256,213.137z"/>
					</g>
					<path opacity="0.5" fill="#FFFFFF" d="M257.941,214.74c0.78-6.751,6.149-11.979,12.667-11.979c0.382,0,0.759,0.022,1.134,0.057
						c3.115-10.483,12.269-18.08,23.08-18.08c2.419,0,4.753,0.383,6.956,1.089v52.646h-55.824
						C241.844,228.012,246.271,215.299,257.941,214.74z"/>
				</g>
			</g>
		</g>
		<g>
			<g>
				<g>
					<rect x="5" y="619.176" fill="#7AC043" width="795.07" height="146.678"/>
				</g>
				<g>
					<ellipse fill="#8CCE52" cx="57.485" cy="742.421" rx="17.554" ry="3.56"/>
					<ellipse fill="#8CCE52" cx="161.985" cy="680.317" rx="13.918" ry="2.821"/>
					<ellipse fill="#8CCE52" cx="120.566" cy="634.714" rx="10.293" ry="2.087"/>
					<ellipse fill="#8CCE52" cx="26.019" cy="632.629" rx="10.293" ry="2.085"/>
					<ellipse fill="#8CCE52" cx="232.655" cy="633.857" rx="10.293" ry="2.087"/>
					<ellipse fill="#8CCE52" cx="347.678" cy="672.984" rx="13.918" ry="2.82"/>
					<ellipse fill="#8CCE52" cx="314.326" cy="734.216" rx="17.554" ry="3.558"/>
					<ellipse fill="#8CCE52" cx="447.639" cy="746.378" rx="17.554" ry="3.559"/>
					<ellipse fill="#8CCE52" cx="514.828" cy="710.15" rx="17.554" ry="3.559"/>
					<path fill="#8CCE52" d="M473.019,676.876c0,1.559-6.23,2.821-13.919,2.821c-7.689,0-13.917-1.263-13.917-2.821
						s6.228-2.822,13.917-2.822C466.788,674.054,473.019,675.317,473.019,676.876z"/>
					<path fill="#8CCE52" d="M643.772,672.984c0,1.558-6.23,2.82-13.915,2.82c-7.691,0-13.921-1.263-13.921-2.82
						c0-1.56,6.229-2.823,13.921-2.823C637.542,670.161,643.772,671.425,643.772,672.984z"/>
					<ellipse fill="#8CCE52" cx="613.196" cy="730.657" rx="17.554" ry="3.559"/>
					<ellipse fill="#8CCE52" cx="771.098" cy="746.378" rx="17.554" ry="3.559"/>
					<ellipse fill="#8CCE52" cx="756.046" cy="680.769" rx="13.917" ry="2.821"/>
					<ellipse fill="#8CCE52" cx="441.037" cy="639.384" rx="10.293" ry="2.088"/>
					<path fill="#8CCE52" d="M584.744,626.24c0,1.153-4.608,2.089-10.294,2.089s-10.293-0.936-10.293-2.089
						c0-1.15,4.607-2.086,10.293-2.086S584.744,625.09,584.744,626.24z"/>
					<ellipse fill="#8CCE52" cx="781.25" cy="641.472" rx="10.292" ry="2.087"/>
				</g>
			</g>
			<g>
				<g>
					<g>
						<g>
							<polygon fill="#845359" points="130.211,440.119 146.812,440.119 149.98,619.555 138.512,619.555 127.043,619.555 							"/>
							<g>
								<path fill="#75AD34" d="M46.664,411.262c0,0-3.709-35.594,33.184-52.577c29.011-13.356,85.33-18.104,113.18,0
									c27.852,18.101,49.183,50.854,30.223,75.854c-18.963,24.992-94.221,49.131-131.552,31.89
									C54.366,449.188,46.664,432.295,46.664,411.262z"/>
							</g>
						</g>
						<path opacity="0.2" fill="#FFFFFF" d="M193.028,358.685c-13.565-8.818-33.887-12.204-54.516-11.824v272.694h11.468
							l-2.639-149.475c31.995-5.447,64.372-20.335,75.91-35.542C242.211,409.539,220.879,376.786,193.028,358.685z"/>
					</g>
					<g>
						<g>
							<polygon fill="#845359" points="273.484,570.072 278.195,570.072 282.907,570.072 284.706,621.553 278.195,621.553 
								271.686,621.553 							"/>
							<path fill="#63A027" d="M310.678,537.145c0,0,6.731-9.289-5.051-11.997c0,0-1.053-11.031-12.834-8.515
								c0,0-3.156-9.288-14.518-5.805c0,0-0.031-0.02-0.078-0.053c-0.047,0.033-0.078,0.053-0.078,0.053
								c-11.362-3.483-14.519,5.805-14.519,5.805c-11.782-2.517-12.834,8.515-12.834,8.515c-11.782,2.708-5.051,11.997-5.051,11.997
								c-8.835,7.158-1.049,13.544-1.049,13.544c-7.996,10.256,4.206,15.674,4.206,15.674c-0.42,7.159,9.68,7.933,9.68,7.933
								c1.894,7.159,10.31,5.225,10.31,5.225c2.914,3.906,6.673,3.884,9.336,3.166c2.663,0.718,6.422,0.74,9.335-3.166
								c0,0,8.416,1.935,10.309-5.225c0,0,10.102-0.773,9.681-7.933c0,0,12.203-5.418,4.207-15.674
								C311.728,550.688,319.514,544.303,310.678,537.145z"/>
						</g>
						<path opacity="0.2" fill="#FFFFFF" d="M310.678,537.145c0,0,6.731-9.289-5.051-11.997c0,0-1.053-11.031-12.834-8.515
							c0,0-3.156-9.288-14.518-5.805c0,0-0.031-0.02-0.078-0.053h-0.001v110.777h6.511l-1.359-38.883
							c1.449-0.471,2.899-1.427,4.185-3.15c0,0,8.416,1.935,10.309-5.225c0,0,10.102-0.773,9.681-7.933
							c0,0,12.203-5.418,4.207-15.674C311.728,550.688,319.514,544.303,310.678,537.145z"/>
					</g>
					<g>
						<g>
							<polygon fill="#845359" points="173.678,547.108 183.518,547.108 193.356,547.108 197.113,654.618 183.518,654.618 
								169.923,654.618 							"/>
							<g>
								<g>
									<path fill="#75AD34" d="M247.925,523.227c-5.624-20.033-24.21-29.364-41.08-29.424
										c-6.783-17.426-29.295-26.903-47.554-19.896c-21.176,8.132-26.917,31.776-21.534,48.402
										c0.002,0.005,0.002,0.009,0.003,0.012c-6.354,2.792-12.013,7.684-16.199,14.979c-9.527,16.605,2.76,38.745,21.233,42.816
										c16.876,3.722,30.73-7.49,35.972-20.161c7.711,8.458,18.695,13.993,32.68,14.414
										C236.595,575.127,254.651,547.164,247.925,523.227z"/>
								</g>
							</g>
						</g>
						<path opacity="0.2" fill="#FFFFFF" d="M206.845,493.803c-3.878-9.962-12.9-17.32-23.327-20.489v181.305h13.595l-2.929-83.834
							c5.113,2.123,10.869,3.394,17.262,3.585c25.15,0.758,43.206-27.205,36.479-51.143
							C242.301,503.193,223.714,493.862,206.845,493.803z"/>
					</g>
					<g>
						<g>
							<g>
								<polygon fill="#845359" points="69.882,580.103 79.721,580.103 89.561,580.103 93.316,687.613 79.721,687.613 
									66.126,687.613 								"/>
								<g>
									<g>
										<g>
											<path fill="#92C75B" d="M150.51,557.308c10.953-33.824-0.131-83.589-43.811-98.468
												c-45.854-15.617-94.028,12.423-100.771,58.632c-5.831,39.958,16.359,77.498,51.489,85.114
												C100.211,611.862,139.554,591.144,150.51,557.308z"/>
										</g>
									</g>
								</g>
							</g>
						</g>
						<path opacity="0.2" fill="#FFFFFF" d="M106.699,458.84c43.68,14.879,54.764,64.644,43.811,98.468
							c-8.037,24.826-31.365,42.571-60.117,46.606l2.924,83.699H79.721V454.522C88.583,454.41,97.685,455.771,106.699,458.84z"/>
					</g>
				</g>
				<g>
					<g>
						<path fill="#63A027" d="M35.044,701.376c0,0-12.931-3.524-7.836-15.674c5.094-12.148,16.065-3.917,16.065-3.917
							s-10.971-9.014-2.351-16.852c8.62-7.835,10.972,9.408,10.972,9.408s-4.31-20.77,14.498-24.296s24.293,23.508,24.293,23.508
							s1.959-20.376,10.581-21.156c8.62-0.784,0,18.415,0,18.415s10.534-16.457,26.034-4.7c15.5,11.755-3.307,35.264-3.307,35.264
							H35.044z"/>
					</g>
					<path opacity="0.1" fill="#FFFFFF" d="M127.299,666.112c-15.5-11.757-26.034,4.7-26.034,4.7s8.62-19.199,0-18.415
						c-8.622,0.78-10.581,21.156-10.581,21.156s-2.741-13.46-10.963-20.143v47.965h44.271
						C123.993,701.376,142.799,677.867,127.299,666.112z"/>
				</g>
			</g>
			<g>
				<g>
					<path fill="#FAE271" d="M411.042,619.176c0,0-143.168,35.704-156.743,146.678H99.054c0,0,131.113-146.678,258.875-146.678
						H411.042z"/>
					<path opacity="0.2" fill="#FFFFFF" d="M411.042,619.176h-41.747c-126.528,33.836-200.555,146.678-200.555,146.678h85.559
						C267.874,654.88,411.042,619.176,411.042,619.176z"/>
				</g>
				<g>
					<g>
						<g>
							<path fill="#3CDDF7" d="M378.532,583.319h-1.918V563.95c-0.002-0.077-0.07-2.646,1.819-4.6
								c1.351-1.401,3.314-2.109,5.836-2.109c2.363,0,4.185,0.708,5.414,2.106c1.983,2.256,1.597,5.443,1.579,5.578l-1.9-0.247
								c0.002-0.021,0.283-2.481-1.127-4.074c-0.85-0.962-2.185-1.448-3.966-1.448c-1.97,0-3.465,0.511-4.442,1.51
								c-1.326,1.357-1.295,3.235-1.295,3.256L378.532,583.319z"/>
						</g>
						<g>
							<path fill="#3CDDF7" d="M376.307,592.477h1.917V573.11c0.002-0.077,0.071-2.646-1.818-4.602
								c-1.352-1.399-3.316-2.109-5.837-2.109c-2.362,0-4.183,0.709-5.413,2.107c-1.984,2.256-1.598,5.441-1.58,5.579l1.9-0.247
								c-0.003-0.021-0.284-2.48,1.126-4.075c0.851-0.96,2.184-1.447,3.966-1.447c1.971,0,3.467,0.507,4.443,1.508
								c1.325,1.359,1.295,3.236,1.295,3.257V592.477z"/>
						</g>
						<g>
							<path fill="#3CDDF7" d="M376.307,570.279h1.917v-19.367c0.002-0.076,0.071-2.645-1.818-4.602
								c-1.352-1.398-3.316-2.109-5.837-2.109c-2.362,0-4.183,0.708-5.413,2.107c-1.984,2.255-1.598,5.442-1.58,5.578l1.9-0.247
								c-0.003-0.02-0.284-2.479,1.126-4.076c0.851-0.96,2.184-1.446,3.966-1.446c1.971,0,3.467,0.509,4.443,1.51
								c1.325,1.357,1.295,3.237,1.295,3.256V570.279z"/>
						</g>
						<rect x="370.88" y="602.441" fill="#848280" width="13.389" height="51.744"/>
						<path fill="#9E9B98" d="M377.573,587.461h-27.131c1.409,17.09,27.131,14.98,27.131,14.98s25.727,2.109,27.132-14.98H377.573z"
							/>
						<path fill="#848280" d="M372.288,587.461c0,0,5.168-10.769,10.571,0H372.288z"/>
					</g>
					<path opacity="0.2" fill="#FFFFFF" d="M378.532,582.789l-0.001-18.867c0-0.021-0.031-1.898,1.295-3.256
						c0.977-0.999,2.472-1.51,4.442-1.51c1.781,0,3.116,0.486,3.966,1.448c1.411,1.593,1.13,4.054,1.127,4.074l1.9,0.247
						c0.018-0.135,0.404-3.322-1.579-5.578c-1.229-1.398-3.051-2.106-5.414-2.106c-2.522,0-4.485,0.708-5.836,2.109
						c-0.079,0.082-0.135,0.169-0.208,0.254v-8.692c0.001-0.056,0.025-1.395-0.65-2.865v106.139h6.695v-51.744h-1.246
						c7.632-0.43,20.692-2.937,21.683-14.98h-21.846C381.364,584.481,379.887,583.154,378.532,582.789z"/>
				</g>
				<g>
					<g>
						<g>
							<rect x="431.904" y="587.827" fill="#7AC043" width="2.408" height="32.102"/>
							<g>
								<path fill="#ED8069" d="M438.631,583.047c0,0,8.225-3.468,5.309-7.401c-2.911-3.937-8.158,3.221-8.158,3.221
									s1.893-8.521-2.906-8.213c-5.191,0.332-2.09,9.046-2.09,9.046s-5.666-7.496-8.86-3.197c-1.995,2.677,2.28,5.62,5.107,6.556
									c0,0-9.08,1.853-6.938,6.118c2.272,4.525,9.387-1.839,9.387-1.839s-6.463,7.578-1.685,9.465
									c4.528,1.788,5.392-7.865,5.392-7.865s0.546,9.602,5.245,8.071c6.162-2.009-1.684-9.701-1.684-9.701
									s8.754,4.987,9.549-0.392C446.959,582.437,438.631,583.047,438.631,583.047z"/>
								<g>
									<path fill="#F0B728" d="M428.456,583.871c-0.056,2.516,1.943,4.597,4.46,4.65c2.514,0.054,4.597-1.943,4.649-4.46
										c0.053-2.518-1.942-4.599-4.459-4.653C430.591,579.357,428.506,581.353,428.456,583.871z"/>
								</g>
							</g>
							<path fill="#7AC043" d="M433.333,603.145c0,0,2.768-5.379,9.614-3.587C442.947,599.558,440.833,605.587,433.333,603.145z"/>
							<path fill="#7AC043" d="M432.883,610.198c0,0-5.871,1.459-9.028-4.872C423.854,605.326,429.786,602.944,432.883,610.198z"/>
						</g>
						<path opacity="0.2" fill="#FFFFFF" d="M438.631,583.047c0,0,8.225-3.468,5.309-7.401c-2.911-3.937-8.158,3.221-8.158,3.221
							s1.811-8.204-2.674-8.203v49.266h1.205v-16.521c6.695,1.625,8.635-3.851,8.635-3.851c-4.567-1.196-7.31,0.795-8.635,2.256
							v-7.55c0.764,1.899,2.031,3.425,4.121,2.744c6.162-2.009-1.684-9.701-1.684-9.701s8.754,4.987,9.549-0.392
							C446.959,582.437,438.631,583.047,438.631,583.047z"/>
					</g>
					<g>
						<g>
							<rect x="224.691" y="603.776" fill="#62A528" width="2.513" height="33.521"/>
							<g>
								<path fill="#D98696" d="M231.717,598.785c0,0,8.587-3.624,5.543-7.73c-3.041-4.111-8.521,3.364-8.521,3.364
									s1.976-8.899-3.036-8.576c-5.42,0.344-2.184,9.443-2.184,9.443s-5.915-7.826-9.252-3.339
									c-2.081,2.798,2.382,5.87,5.333,6.846c0,0-9.48,1.937-7.242,6.39c2.372,4.726,9.802-1.918,9.802-1.918
									s-6.75,7.912-1.758,9.884c4.727,1.867,5.63-8.214,5.63-8.214s0.569,10.024,5.477,8.427
									c6.435-2.097-1.759-10.127-1.759-10.127s9.141,5.209,9.97-0.411C240.411,598.147,231.717,598.785,231.717,598.785z"/>
								<g>
									<path fill="#F0B728" d="M221.089,599.646c-0.055,2.623,2.03,4.8,4.659,4.854c2.625,0.055,4.8-2.029,4.855-4.657
										c0.056-2.629-2.031-4.803-4.657-4.858C223.318,594.933,221.143,597.015,221.089,599.646z"/>
								</g>
							</g>
							<path fill="#62A528" d="M226.184,619.769c0,0,2.891-5.616,10.038-3.743C236.222,616.025,234.014,622.321,226.184,619.769z"/>
							<path fill="#62A528" d="M225.712,627.137c0,0-6.129,1.521-9.427-5.09C216.286,622.047,222.479,619.563,225.712,627.137z"/>
						</g>
						<path opacity="0.2" fill="#FFFFFF" d="M231.717,598.785c0,0,8.587-3.624,5.543-7.73c-3.041-4.111-8.521,3.364-8.521,3.364
							s1.89-8.568-2.792-8.566v51.444h1.257v-17.253c6.993,1.697,9.018-4.019,9.018-4.019c-4.768-1.25-7.632,0.829-9.018,2.356
							v-7.885c0.798,1.983,2.122,3.576,4.306,2.864c6.435-2.097-1.759-10.127-1.759-10.127s9.141,5.209,9.97-0.411
							C240.411,598.147,231.717,598.785,231.717,598.785z"/>
					</g>
					<g>
						<g>
							<rect x="733.065" y="709.347" fill="#51891B" width="2.776" height="37.03"/>
							<g>
								<path fill="#F9C33E" d="M740.825,703.832c0,0,9.485-3.998,6.126-8.539c-3.36-4.54-9.415,3.718-9.415,3.718
									s2.184-9.832-3.352-9.476c-5.988,0.384-2.413,10.435-2.413,10.435s-6.533-8.646-10.22-3.688
									c-2.299,3.088,2.631,6.483,5.891,7.562c0,0-10.47,2.138-8,7.06c2.622,5.22,10.828-2.122,10.828-2.122
									s-7.456,8.74-1.942,10.919c5.223,2.063,6.219-9.073,6.219-9.073s0.63,11.075,6.052,9.31
									c7.106-2.317-1.943-11.188-1.943-11.188s10.097,5.754,11.012-0.453C750.43,703.128,740.825,703.832,740.825,703.832z"/>
								<g>
									<path fill="#EF7E29" d="M729.088,704.783c-0.063,2.9,2.242,5.306,5.146,5.365c2.899,0.059,5.303-2.242,5.362-5.146
										c0.063-2.904-2.242-5.306-5.144-5.368C731.549,699.576,729.146,701.879,729.088,704.783z"/>
								</g>
							</g>
							<path fill="#51891B" d="M734.714,727.015c0,0,3.192-6.205,11.088-4.136C745.802,722.879,743.364,729.835,734.714,727.015z"/>
							<path fill="#51891B" d="M734.194,735.152c0,0-6.774,1.681-10.415-5.623C723.779,729.529,730.621,726.786,734.194,735.152z"/>
						</g>
						<path opacity="0.2" fill="#FFFFFF" d="M740.825,703.832c0,0,9.485-3.998,6.126-8.539c-3.36-4.54-9.415,3.718-9.415,3.718
							s2.09-9.462-3.083-9.46v56.826h1.389v-19.058c7.725,1.875,9.96-4.44,9.96-4.44c-5.267-1.381-8.43,0.916-9.96,2.602v-8.709
							c0.882,2.192,2.344,3.95,4.757,3.165c7.106-2.317-1.943-11.188-1.943-11.188s10.097,5.754,11.012-0.453
							C750.43,703.128,740.825,703.832,740.825,703.832z"/>
					</g>
					<g>
						<g>
							<rect x="367.972" y="704.683" fill="#51891B" width="2.777" height="37.029"/>
							<g>
								<path fill="#EFABBB" d="M375.733,699.167c0,0,9.486-3.999,6.124-8.537c-3.359-4.542-9.413,3.718-9.413,3.718
									s2.184-9.831-3.352-9.477c-5.988,0.383-2.413,10.435-2.413,10.435s-6.534-8.646-10.221-3.688
									c-2.297,3.09,2.633,6.484,5.893,7.562c0,0-10.473,2.14-8.001,7.06c2.621,5.22,10.827-2.119,10.827-2.119
									s-7.456,8.738-1.942,10.915c5.223,2.064,6.221-9.072,6.221-9.072s0.628,11.076,6.05,9.309
									c7.108-2.315-1.943-11.188-1.943-11.188s10.098,5.755,11.014-0.452C385.338,698.465,375.733,699.167,375.733,699.167z"/>
								<g>
									<path fill="#EF7E29" d="M363.995,700.118c-0.062,2.9,2.243,5.306,5.146,5.365c2.899,0.062,5.302-2.242,5.364-5.146
										c0.06-2.904-2.245-5.304-5.146-5.365C366.455,694.911,364.052,697.217,363.995,700.118z"/>
								</g>
							</g>
							<path fill="#51891B" d="M369.621,722.35c0,0,3.194-6.204,11.089-4.136C380.71,718.214,378.272,725.17,369.621,722.35z"/>
							<path fill="#51891B" d="M369.101,730.488c0,0-6.771,1.68-10.413-5.622C358.688,724.866,365.528,722.12,369.101,730.488z"/>
						</g>
						<path opacity="0.2" fill="#FFFFFF" d="M375.733,699.167c0,0,9.486-3.999,6.124-8.537c-3.359-4.542-9.413,3.718-9.413,3.718
							s2.088-9.464-3.083-9.463v56.827h1.388v-19.059c7.725,1.876,9.961-4.439,9.961-4.439c-5.267-1.38-8.43,0.918-9.961,2.604
							v-8.711c0.881,2.192,2.343,3.952,4.756,3.164c7.108-2.315-1.943-11.188-1.943-11.188s10.098,5.755,11.015-0.452
							C385.338,698.465,375.733,699.167,375.733,699.167z"/>
					</g>
					<g>
						<g>
							<rect x="27.193" y="702.508" fill="#51891B" width="2.777" height="37.029"/>
							<g>
								<path fill="#F9C33E" d="M34.954,696.993c0,0,9.485-3.999,6.124-8.539c-3.359-4.541-9.413,3.717-9.413,3.717
									s2.183-9.831-3.353-9.477c-5.986,0.383-2.412,10.437-2.412,10.437s-6.534-8.646-10.22-3.69
									c-2.299,3.091,2.631,6.484,5.892,7.563c0,0-10.472,2.139-8,7.058c2.62,5.221,10.827-2.119,10.827-2.119
									s-7.458,8.74-1.943,10.917c5.222,2.063,6.22-9.073,6.22-9.073s0.628,11.075,6.05,9.309
									c7.108-2.316-1.944-11.188-1.944-11.188s10.098,5.754,11.015-0.451C44.559,696.289,34.954,696.993,34.954,696.993z"/>
								<g>
									<path fill="#EF7E29" d="M23.216,697.943c-0.063,2.899,2.242,5.304,5.146,5.366c2.9,0.06,5.301-2.243,5.363-5.147
										c0.061-2.903-2.243-5.305-5.144-5.365C25.676,692.737,23.274,695.04,23.216,697.943z"/>
								</g>
							</g>
							<path fill="#51891B" d="M28.843,720.174c0,0,3.192-6.203,11.088-4.136C39.931,716.038,37.492,722.993,28.843,720.174z"/>
							<path fill="#51891B" d="M28.322,728.313c0,0-6.772,1.681-10.413-5.622C17.909,722.69,24.75,719.944,28.322,728.313z"/>
						</g>
						<path opacity="0.2" fill="#FFFFFF" d="M34.954,696.993c0,0,9.485-3.999,6.124-8.539c-3.359-4.541-9.413,3.717-9.413,3.717
							s2.089-9.463-3.084-9.462v56.828h1.389v-19.058c7.725,1.876,9.961-4.441,9.961-4.441c-5.266-1.38-8.43,0.918-9.961,2.604
							v-8.709c0.881,2.189,2.343,3.95,4.756,3.162c7.108-2.316-1.944-11.188-1.944-11.188s10.098,5.754,11.015-0.451
							C44.559,696.289,34.954,696.993,34.954,696.993z"/>
					</g>
					<g>
						<g>
							<rect x="439.84" y="655.523" fill="#51891B" width="2.51" height="33.463"/>
							<g>
								<path fill="#F9C33E" d="M446.854,650.538c0,0,8.571-3.612,5.533-7.715c-3.034-4.104-8.506,3.359-8.506,3.359
									s1.973-8.886-3.03-8.564c-5.41,0.346-2.179,9.431-2.179,9.431s-5.907-7.812-9.235-3.335
									c-2.078,2.794,2.377,5.859,5.323,6.834c0,0-9.464,1.934-7.229,6.38c2.368,4.717,9.783-1.917,9.783-1.917
									s-6.737,7.898-1.755,9.868c4.72,1.862,5.621-8.199,5.621-8.199s0.569,10.008,5.467,8.411
									c6.423-2.093-1.756-10.11-1.756-10.11s9.126,5.199,9.953-0.409C455.534,649.902,446.854,650.538,446.854,650.538z"/>
								<g>
									<path fill="#EF7E29" d="M436.246,651.397c-0.057,2.619,2.026,4.793,4.649,4.849c2.621,0.056,4.792-2.026,4.847-4.649
										c0.057-2.626-2.027-4.794-4.647-4.851C438.471,646.693,436.299,648.774,436.246,651.397z"/>
								</g>
							</g>
							<path fill="#51891B" d="M441.331,671.488c0,0,2.887-5.606,10.021-3.74C451.352,667.748,449.146,674.036,441.331,671.488z"/>
							<path fill="#51891B" d="M440.859,678.842c0,0-6.12,1.52-9.409-5.08C431.45,673.762,437.633,671.28,440.859,678.842z"/>
						</g>
						<path opacity="0.2" fill="#FFFFFF" d="M446.854,650.538c0,0,8.571-3.612,5.533-7.715c-3.034-4.104-8.506,3.359-8.506,3.359
							s1.888-8.552-2.786-8.551v51.354h1.254v-17.225c6.981,1.695,9.002-4.014,9.002-4.014c-4.758-1.244-7.62,0.831-9.002,2.355
							v-7.871c0.796,1.979,2.118,3.568,4.298,2.858c6.423-2.093-1.756-10.11-1.756-10.11s9.126,5.199,9.953-0.409
							C455.534,649.902,446.854,650.538,446.854,650.538z"/>
					</g>
					<g>
						<g>
							<rect x="140.548" y="644.37" fill="#51891B" width="2.485" height="33.134"/>
							<g>
								<path fill="#F4E27E" d="M147.494,639.436c0,0,8.487-3.578,5.479-7.641c-3.006-4.061-8.423,3.328-8.423,3.328
									s1.953-8.798-3-8.479c-5.358,0.34-2.159,9.335-2.159,9.335s-5.846-7.734-9.145-3.302c-2.057,2.767,2.355,5.803,5.272,6.769
									c0,0-9.371,1.913-7.158,6.317c2.345,4.671,9.688-1.898,9.688-1.898s-6.673,7.82-1.739,9.77
									c4.673,1.844,5.565-8.119,5.565-8.119s0.563,9.909,5.414,8.329c6.36-2.073-1.739-10.012-1.739-10.012
									s9.035,5.148,9.854-0.402C156.088,638.806,147.494,639.436,147.494,639.436z"/>
								<g>
									<circle fill="#F0B728" cx="141.691" cy="640.385" r="4.703"/>
								</g>
							</g>
							<path fill="#51891B" d="M142.024,660.18c0,0,2.857-5.553,9.921-3.701C151.946,656.479,149.764,662.702,142.024,660.18z"/>
							<path fill="#51891B" d="M141.559,667.461c0,0-6.06,1.505-9.317-5.031C132.241,662.43,138.362,659.975,141.559,667.461z"/>
						</g>
						<path opacity="0.2" fill="#FFFFFF" d="M147.494,639.436c0,0,8.487-3.578,5.479-7.641c-3.006-4.061-8.423,3.328-8.423,3.328
							s1.868-8.469-2.76-8.468v50.849h1.243v-17.053c6.912,1.678,8.912-3.973,8.912-3.973c-4.712-1.235-7.543,0.822-8.912,2.328
							v-7.794c0.788,1.963,2.096,3.537,4.256,2.832c6.36-2.073-1.739-10.012-1.739-10.012s9.035,5.148,9.854-0.402
							C156.088,638.806,147.494,639.436,147.494,639.436z"/>
					</g>
					<g>
						<g>
							<rect x="550.915" y="701.546" fill="#51891B" width="2.773" height="37.029"/>
							<g>
								<path fill="#F9DCE4" d="M558.674,696.03c0,0,9.485-3.999,6.125-8.537c-3.36-4.542-9.415,3.717-9.415,3.717
									s2.184-9.831-3.351-9.476c-5.988,0.382-2.414,10.434-2.414,10.434s-6.531-8.645-10.221-3.688
									c-2.297,3.091,2.633,6.484,5.893,7.563c0,0-10.473,2.139-8.001,7.06c2.622,5.219,10.827-2.121,10.827-2.121
									s-7.456,8.74-1.942,10.917c5.223,2.063,6.221-9.072,6.221-9.072s0.628,11.075,6.05,9.309
									c7.108-2.317-1.942-11.188-1.942-11.188s10.099,5.754,11.013-0.451C568.278,695.326,558.674,696.03,558.674,696.03z"/>
								<g>
									<path fill="#EF7E29" d="M546.935,696.982c-0.062,2.9,2.244,5.303,5.146,5.364c2.899,0.06,5.304-2.242,5.364-5.145
										c0.061-2.905-2.245-5.306-5.146-5.369C549.396,691.775,546.992,694.077,546.935,696.982z"/>
								</g>
							</g>
							<path fill="#51891B" d="M552.562,719.214c0,0,3.194-6.205,11.088-4.137C563.649,715.077,561.211,722.033,552.562,719.214z"/>
							<path fill="#51891B" d="M552.041,727.352c0,0-6.771,1.681-10.413-5.623C541.628,721.729,548.468,718.984,552.041,727.352z"/>
						</g>
						<path opacity="0.2" fill="#FFFFFF" d="M558.674,696.03c0,0,9.485-3.999,6.125-8.537c-3.36-4.542-9.415,3.717-9.415,3.717
							s2.089-9.464-3.083-9.462v56.827h1.388v-19.059c7.726,1.876,9.961-4.439,9.961-4.439c-5.266-1.381-8.429,0.918-9.961,2.603
							v-8.71c0.882,2.191,2.345,3.951,4.757,3.164c7.108-2.317-1.942-11.188-1.942-11.188s10.099,5.754,11.013-0.451
							C568.278,695.326,558.674,696.03,558.674,696.03z"/>
					</g>
					<g>
						<g>
							<rect x="637.283" y="658.765" fill="#51891B" width="2.776" height="37.029"/>
							<g>
								<path fill="#F4E27E" d="M645.044,653.252c0,0,9.486-4.003,6.125-8.541c-3.361-4.542-9.413,3.719-9.413,3.719
									s2.182-9.831-3.352-9.477c-5.99,0.382-2.415,10.434-2.415,10.434s-6.533-8.645-10.219-3.688
									c-2.3,3.091,2.631,6.485,5.891,7.563c0,0-10.472,2.138-8,7.059c2.621,5.22,10.827-2.12,10.827-2.12
									s-7.456,8.739-1.942,10.919c5.223,2.063,6.222-9.075,6.222-9.075s0.627,11.075,6.048,9.31
									c7.108-2.317-1.942-11.188-1.942-11.188s10.097,5.752,11.014-0.453C654.647,652.546,645.044,653.252,645.044,653.252z"/>
								<g>
									<path fill="#F0B728" d="M633.306,654.2c-0.063,2.9,2.242,5.305,5.146,5.365c2.899,0.061,5.302-2.242,5.362-5.146
										c0.062-2.904-2.243-5.304-5.145-5.367C635.766,648.995,633.364,651.298,633.306,654.2z"/>
								</g>
							</g>
							<path fill="#51891B" d="M638.932,676.432c0,0,3.193-6.204,11.089-4.137C650.021,672.295,647.582,679.251,638.932,676.432z"/>
							<path fill="#51891B" d="M638.41,684.571c0,0-6.771,1.68-10.411-5.623C627.999,678.948,634.839,676.202,638.41,684.571z"/>
						</g>
						<path opacity="0.2" fill="#FFFFFF" d="M645.044,653.252c0,0,9.486-4.003,6.125-8.541c-3.361-4.542-9.413,3.719-9.413,3.719
							s2.087-9.464-3.085-9.464v56.828h1.389v-19.058c7.726,1.875,9.961-4.441,9.961-4.441c-5.267-1.381-8.431,0.918-9.961,2.604
							v-8.711c0.883,2.19,2.344,3.952,4.756,3.165c7.108-2.317-1.942-11.188-1.942-11.188s10.097,5.752,11.014-0.453
							C654.647,652.546,645.044,653.252,645.044,653.252z"/>
					</g>
				</g>
			</g>
			<g>
				<g>
					<g>
						<g>
							<polygon fill="#845359" points="662.812,511.521 672.651,511.521 682.492,511.521 686.246,619.029 672.651,619.029 
								659.056,619.029 							"/>
							<g>
								<path fill="#75AD34" d="M675.044,532.715c0,0-41.544-7.124-59.115-44.323c-17.576-37.202-20.357-113.977,0-151.18
									c20.352-37.199,57.177-65.694,85.285-40.367c28.103,25.33,55.242,125.853,35.855,175.715
									C717.688,522.426,689.58,530.34,675.044,532.715z"/>
							</g>
						</g>
						<path opacity="0.2" fill="#FFFFFF" d="M701.214,296.845c-8.911-8.03-18.7-10.644-28.563-9.29v331.475h13.595l-3.076-88.088
							c15.373-4.316,37.687-16.668,53.899-58.382C756.456,422.697,729.316,322.174,701.214,296.845z"/>
					</g>
					<g>
						<g>
							<g>
								<polygon fill="#845359" points="595.374,562.393 591.226,562.876 587.079,562.393 579.818,621.99 591.226,621.99 
									602.631,621.99 								"/>
							</g>
							<g>
								<path fill="#63A027" d="M625.783,496.438c3.232-5.719,5.084-12.314,5.084-19.345c0-21.817-17.753-39.504-39.642-39.504
									c-21.894,0-39.639,17.687-39.639,39.504c0,7.03,1.853,13.626,5.079,19.345c-7.755,8.361-12.494,19.534-12.494,31.813
									c0,25.9,21.066,46.896,47.054,46.896c25.988,0,47.057-20.995,47.057-46.896
									C638.282,515.972,633.537,504.799,625.783,496.438z"/>
							</g>
						</g>
						<path opacity="0.2" fill="#FFFFFF" d="M630.867,477.093c0-21.817-17.752-39.504-39.641-39.504V621.99h11.404l-5.747-47.194
							c23.318-2.788,41.398-22.556,41.398-46.546c0-12.278-4.745-23.451-12.499-31.813
							C629.016,490.719,630.867,484.123,630.867,477.093z"/>
					</g>
					<g>
						<g>
							<g>
								<polygon fill="#845359" points="509.695,552.875 512.961,553.297 516.224,552.875 521.934,636.248 512.961,636.248 
									503.983,636.248 								"/>
							</g>
							<g>
								<polygon fill="#7AC043" points="471.674,586.505 465.835,586.505 476.604,561.905 470.546,561.905 479.3,542.449 
									473.914,542.449 484.901,523.66 478.624,523.66 490.742,499.508 486.031,499.508 495.454,478.262 488.723,478.262 
									498.367,459.923 492.088,459.923 503.749,441.81 498.821,441.81 512.958,410.945 527.095,441.81 522.165,441.81 
									533.827,459.923 527.552,459.923 537.194,478.262 530.461,478.262 539.887,499.508 535.174,499.508 547.294,523.66 
									541.017,523.66 552.007,542.449 546.619,542.449 555.372,561.905 549.312,561.905 560.086,586.505 554.243,586.505 
									566.815,608.872 512.958,608.872 459.1,608.872 								"/>
							</g>
						</g>
						<polygon opacity="0.2" fill="#FFFFFF" points="514.828,636.248 514.828,415.025 527.095,441.81 522.165,441.81 
							533.827,459.923 527.552,459.923 537.194,478.262 530.461,478.262 539.887,499.508 535.174,499.508 547.294,523.66 
							541.017,523.66 552.007,542.449 546.619,542.449 555.372,561.905 549.312,561.905 560.086,586.505 554.243,586.505 
							566.815,608.872 520.061,608.872 521.934,636.248 						"/>
					</g>
					<g>
						<g>
							<polygon fill="#845359" points="746.324,553.532 753.544,553.532 760.766,553.532 763.521,632.424 753.544,632.424 
								743.569,632.424 							"/>
							<g>
								<g>
									<g>
										<path fill="#BCD231" d="M754.993,574.814c0,0-25.89,0-42.89-22.097c-13.721-17.841-14.765-56.825,0-75.376
											c14.768-18.548,47.136-28.296,67.527-15.667c20.389,12.629,34.421,58.29,20.357,83.149
											C785.93,569.686,768.559,574.814,754.993,574.814z"/>
									</g>
								</g>
							</g>
						</g>
						<path opacity="0.2" fill="#FFFFFF" d="M779.631,461.675c-7.553-4.677-16.749-6.279-26.087-5.508v176.257h9.978l-2.027-58.028
							c12.329-1.626,26.599-8.531,38.494-29.571C814.052,519.965,800.02,474.304,779.631,461.675z"/>
					</g>
				</g>
				<g>
					<g>
						<g>
							<g>
								<g>
									<rect x="581.872" y="574.905" fill="#685652" width="5.581" height="56.3"/>
									<rect x="686.559" y="574.905" fill="#685652" width="5.577" height="56.3"/>
								</g>
								<g>
									<g>
										<g>
											<rect x="573.387" y="568.52" fill="#D88A4C" width="127.168" height="12.232"/>
											<circle fill="#685652" cx="585.168" cy="574.635" r="1.079"/>
										</g>
										<circle fill="#685652" cx="689.851" cy="574.635" r="1.08"/>
									</g>
									<g>
										<rect x="573.454" y="582.571" fill="#D88A4C" width="127.168" height="12.231"/>
										<g>
											<circle fill="#685652" cx="585.234" cy="588.688" r="1.079"/>
											<circle fill="#685652" cx="689.919" cy="588.688" r="1.079"/>
										</g>
									</g>
									<g>
										<rect x="573.454" y="596.602" fill="#D88A4C" width="127.168" height="12.233"/>
										<g>
											<circle fill="#685652" cx="585.234" cy="602.717" r="1.079"/>
											<circle fill="#685652" cx="689.919" cy="602.717" r="1.079"/>
										</g>
									</g>
								</g>
							</g>
							<g>
								<polygon fill="#D17537" points="700.56,610.699 637.004,610.699 573.446,610.699 564.157,613.218 564.157,616.816 
									637.004,616.816 709.852,616.816 709.852,613.218 								"/>
								<g>
									<rect x="566.764" y="616.816" fill="#685652" width="5.576" height="19.966"/>
									<rect x="701.667" y="616.816" fill="#685652" width="5.576" height="19.966"/>
								</g>
							</g>
						</g>
						<rect x="564.157" y="613.218" fill="#E58B4E" width="145.694" height="3.599"/>
					</g>
					<polygon opacity="0.2" fill="#FFFFFF" points="692.136,610.699 692.136,608.835 700.622,608.835 700.622,596.602 
						692.136,596.602 692.136,594.803 700.622,594.803 700.622,582.571 692.136,582.571 692.136,580.752 700.555,580.752 
						700.555,568.52 637.039,568.52 637.039,580.752 686.559,580.752 686.559,582.571 637.039,582.571 637.039,594.803 
						686.559,594.803 686.559,596.602 637.039,596.602 637.039,608.835 686.559,608.835 686.559,610.699 637.039,610.699 
						637.039,616.816 686.559,616.816 686.559,631.205 692.136,631.205 692.136,616.816 701.667,616.816 701.667,636.782 
						707.243,636.782 707.243,616.816 709.852,616.816 709.852,613.218 700.56,610.699 					"/>
				</g>
				<g>
					<path fill="#B4CB34" d="M689.459,658.384c0,0-12.027-7.282-4.745-21.038c7.282-13.755,21.442-2.83,21.442-2.83
						s5.506-29.534,36.937-23.87c31.435,5.663,20.107,47.738,20.107,47.738H689.459z"/>
					<path opacity="0.2" fill="#FFFFFF" d="M743.093,610.646c-6.669-1.201-12.163-0.809-16.69,0.541v47.197H763.2
						C763.2,658.384,774.527,616.309,743.093,610.646z"/>
				</g>
			</g>
		</g>
	</g>
</g>
</svg>
