<?xml version="1.0" encoding="utf-8"?>
<!-- Generator: Adobe Illustrator 16.0.0, SVG Export Plug-In . SVG Version: 6.00 Build 0)  -->
<!DOCTYPE svg PUBLIC "-//W3C//DTD SVG 1.1//EN" "http://www.w3.org/Graphics/SVG/1.1/DTD/svg11.dtd">
<svg version="1.1" xmlns="http://www.w3.org/2000/svg" xmlns:xlink="http://www.w3.org/1999/xlink" x="0px" y="0px" width="800px"
	 height="717px" viewBox="0 0 800 717" enable-background="new 0 0 800 717" xml:space="preserve">
<g id="Background">
	<linearGradient id="SVGID_1_" gradientUnits="userSpaceOnUse" x1="399.9995" y1="-6" x2="399.9995" y2="718.0005">
		<stop  offset="0" style="stop-color:#91C9E1"/>
		<stop  offset="1" style="stop-color:#FADDAF"/>
	</linearGradient>
	<rect y="-6" fill="url(#SVGID_1_)" width="800" height="724"/>
	<rect y="529.371" fill="#FAC067" width="800" height="187.629"/>
</g>
<g id="Objects">
	<g>
		<path fill="#FAC067" d="M243.882,508.382c-13.697-0.678-43.957,8.782-44.96,16.511c-1.003,7.729,9.08,22.484,80.799,20.025
			c71.719-2.46,80.795-5.128,79.594-18.197c-1.201-13.069-18.426-31.067-35.635-31.203
			C306.472,495.384,272.28,509.788,243.882,508.382z"/>
		<path fill="#A57C52" d="M309.496,316.667c0,0,19.387,26.174,11.133,85.516c-8.254,59.343-25.518,98.905-25.878,109.694
			c-0.36,10.789,30.314,6.114,27.924,0s11.998-79.124,13.076-108.975c1.079-29.851-9.026-87.328-15.122-91.138
			S310.215,308.475,309.496,316.667z"/>
		<path fill="#A57C52" d="M246.228,405.058c0,0,10.983,14.83,6.307,48.457s-14.458,56.045-14.664,62.158
			c-0.204,6.112,17.177,3.465,15.823,0c-1.353-3.465,6.798-44.836,7.409-61.75c0.611-16.915-5.115-49.483-8.568-51.643
			C249.081,400.12,246.634,400.416,246.228,405.058z"/>
		<path fill="#006837" d="M312.261,270.971c0,0-4.289-27.865-23.042-31.615l-2.084,4.128l-2.771-8.708
			c0,0-19.594-7.917-42.353,12.468c0,0,48.884-6.332,67.487,25.333C309.499,272.578,311.064,276.291,312.261,270.971z"/>
		<path fill="#006837" d="M314.05,271.786c0,0,1.981-26.973,18.21-38.522l3.561,2.898v-5.146c0,0,9.502-3.561,17.219-1.384
			l1.583,3.631l1.187-3.039c0,0,11.477-0.988,25.333,9.896c0,0-49.476-2.427-63.528,33.716
			C317.613,273.837,311.477,278.91,314.05,271.786z"/>
		<path fill="#009145" d="M318.01,276.733c0,0,7.519-17.615,31.071-25.926l4.552,4.947v-6.332c0,0,8.113-3.563,16.03-1.188
			l4.356,7.718v-7.521c0,0,25.729,0.792,39.384,42.75c0,0-38.2-43.341-92.624-12.667
			C320.779,278.515,318.033,280.551,318.01,276.733z"/>
		<path fill="#009145" d="M318.796,278.917c0,0,11.881-5.86,20.192-3.329l1.385,3.329l0.991-3.329c0,0,8.907-2.01,14.843,1.744
			l1.187,7.713l2.573-6.729c0,0,8.905,2.176,13.656,8.114v9.5l3.561-7.125c0,0,7.92,10.092,8.313,17.811
			c0,0-2.178,3.958,1.187,6.136v15.438l-1.979,2.573l2.771,0.988c0,0-1.388,10.687-3.959,16.823c0,0-23.549-70.258-61.152-64.321
			C322.364,284.254,316.219,282.88,318.796,278.917z"/>
		<path fill="#39B44A" d="M324.541,299.494c26.519,8.508,24.54,50.268,24.54,50.268c10.686-11.083,10.233-22.165,10.233-22.165
			l-4.295-1.386l3.562-1.188c2.177-6.135-1.186-13.259-1.186-13.259l-4.573-0.99l1.009-4.751
			c-7.125-14.249-30.083-17.019-30.083-17.019S316.229,289.995,324.541,299.494z"/>
		<path fill="#009145" d="M305.145,273.837c0,0-5.344-12.343-20.78-15.509l-4.354,3.166l-0.99-5.343c0,0-13.259-4.355-17.415,5.145
			l-1.188-4.552c0,0-24.144,6.137-30.873,38.989c0,0,37.603-32.655,70.455-20.145C299.999,275.588,304.171,280.034,305.145,273.837z
			"/>
		<path fill="#009145" d="M301.583,279.899c0,0-0.135-0.174-0.489-0.426c-1.058-0.761-4.063-2.246-11.188-1.948l-1.584,2.375
			l-2.177-3.364c0,0-10.291-1.979-12.863,6.135l-1.583-3.174c0,0-16.623,2.581-18.405,36.026c0,0,28.702-36.303,49.674-26.519
			L301.583,279.899z"/>
		<path fill="#39B44A" d="M302.968,293.951c0,0-15.833-4.155-20.583,11.875l-1.78-4.156c0,0-14.448,5.74-5.74,38.197
			c0,0,3.665-28.7,25.53-36.02C300.395,303.848,306.582,300.121,302.968,293.951z"/>
		<path fill="#8B6239" d="M306.529,270.6c-6.135,2.176-8.708,14.644-6.729,27.112c1.979,12.47,0.114,24.738,18.363,19.792
			c18.25-4.947,8.944-42.33,0.04-45.111C309.3,269.609,306.529,270.6,306.529,270.6z"/>
		<g>
			<path fill="#006837" d="M249.511,384.331c0,0,2.882-18.741,15.497-21.264l1.401,2.777l1.863-5.858c0,0,13.18-5.324,28.487,8.387
				c0,0-32.878-4.259-45.392,17.038C251.368,385.411,250.316,387.909,249.511,384.331z"/>
			<path fill="#006837" d="M248.308,384.879c0,0-1.334-18.142-12.249-25.909l-2.396,1.95v-3.461c0,0-6.392-2.396-11.58-0.933
				l-1.067,2.443l-0.796-2.044c0,0-7.719-0.665-17.038,6.655c0,0,33.277-1.631,42.726,22.678
				C245.91,386.259,250.038,389.671,248.308,384.879z"/>
			<path fill="#009145" d="M245.644,388.206c0,0-5.057-11.848-20.898-17.437l-3.062,3.326v-4.259c0,0-5.457-2.396-10.781-0.798
				l-2.929,5.191v-5.06c0,0-17.305,0.533-26.489,28.753c0,0,25.693-29.151,62.297-8.52
				C243.781,389.404,245.627,390.774,245.644,388.206z"/>
			<path fill="#009145" d="M245.115,389.675c0,0-7.991-3.941-13.582-2.238l-0.932,2.238l-0.666-2.238c0,0-5.991-1.353-9.982,1.173
				l-0.798,5.188l-1.73-4.525c0,0-5.991,1.464-9.186,5.457v6.39l-2.394-4.793c0,0-5.327,6.788-5.593,11.98
				c0,0,1.466,2.662-0.796,4.126v10.384l1.329,1.73l-1.863,0.665c0,0,0.934,7.188,2.664,11.314c0,0,15.838-47.254,41.128-43.261
				C242.715,393.266,246.849,392.342,245.115,389.675z"/>
			<path fill="#39B44A" d="M241.252,403.515c-17.836,5.724-16.506,33.81-16.506,33.81c-7.186-7.453-6.882-14.908-6.882-14.908
				l2.889-0.932l-2.396-0.798c-1.465-4.126,0.799-8.919,0.799-8.919l3.075-0.666l-0.68-3.195
				c4.792-9.582,20.233-11.446,20.233-11.446S246.841,397.126,241.252,403.515z"/>
			<path fill="#009145" d="M254.297,386.259c0,0,3.595-8.302,13.976-10.432l2.93,2.13l0.666-3.594c0,0,8.918-2.929,11.712,3.461
				l0.801-3.063c0,0,16.239,4.128,20.763,26.225c0,0-25.291-21.965-47.388-13.55C257.757,387.437,254.952,390.426,254.297,386.259z"
				/>
			<path fill="#009145" d="M256.693,390.337c0,0,0.09-0.117,0.329-0.288c0.71-0.512,2.733-1.51,7.525-1.31l1.064,1.598l1.465-2.264
				c0,0,6.921-1.332,8.653,4.127l1.064-2.135c0,0,11.179,1.736,12.379,24.231c0,0-19.306-24.418-33.41-17.837L256.693,390.337z"/>
			<path fill="#39B44A" d="M255.761,399.787c0,0,10.648-2.795,13.843,7.986l1.197-2.794c0,0,9.718,3.859,3.861,25.69
				c0,0-2.464-19.304-17.171-24.228C257.491,406.442,253.33,403.937,255.761,399.787z"/>
			<path fill="#8B6239" d="M244.555,381.276c-4.126,1.465-5.856,9.85-4.524,18.237c1.33,8.386,0.076,16.636,12.351,13.311
				c12.273-3.328,6.015-28.472,0.027-30.343C246.419,380.611,244.555,381.276,244.555,381.276z"/>
		</g>
	</g>
	<g>
		<path fill="#FAC067" d="M334.608,532.123c0,0,17.267-26.949,40.197-28.796c22.931-1.845,15.671,7.753,48.28,8.491
			c32.608,0.738,37.407,20.305,37.407,20.305S380.385,545.043,334.608,532.123z"/>
		<g>
			<path fill="#C59B6D" d="M375.275,376.973c0,0-0.526,2.145-1.211,5.93c-0.302,1.902-0.737,4.192-1.063,6.852
				c-0.173,1.324-0.357,2.735-0.552,4.222c-0.152,1.49-0.311,3.057-0.478,4.693c-0.345,3.264-0.529,6.823-0.773,10.563
				c-0.095,3.762-0.356,7.7-0.276,11.794c0.005,2.041,0.01,4.114,0.014,6.213c0.089,2.099,0.177,4.221,0.265,6.361
				c0.096,4.271,0.563,8.599,0.9,12.91c0.14,2.158,0.432,4.307,0.71,6.445c0.273,2.133,0.544,4.258,0.814,6.366
				c0.583,4.206,1.416,8.311,2.076,12.282c0.718,3.965,1.707,7.748,2.481,11.345c0.729,3.608,1.801,6.938,2.641,10.03
				c0.435,1.543,0.85,3.021,1.246,4.427c0.378,1.408,0.77,2.735,1.219,3.96c0.838,2.461,1.57,4.607,2.172,6.373
				c1.199,3.523,1.883,5.534,1.883,5.534l-18.417,5.408c0,0-0.438-2.241-1.204-6.163c-0.379-1.954-0.84-4.329-1.371-7.051
				c-0.289-1.353-0.515-2.811-0.713-4.354c-0.214-1.541-0.441-3.158-0.675-4.845c-0.438-3.379-1.07-7.003-1.325-10.897
				c-0.299-3.886-0.781-7.951-0.964-12.182c-0.126-4.239-0.399-8.592-0.408-13.024c0.02-2.215,0.041-4.447,0.061-6.688
				c0.016-2.237,0.021-4.479,0.177-6.723c0.261-4.484,0.392-8.954,0.889-13.34c0.209-2.188,0.416-4.36,0.621-6.505
				c0.287-2.136,0.571-4.245,0.85-6.319c0.488-4.148,1.298-8.119,1.913-11.883c0.765-3.75,1.436-7.292,2.236-10.527
				c0.391-1.616,0.766-3.165,1.121-4.638c0.4-1.462,0.777-2.848,1.132-4.152c0.69-2.605,1.44-4.841,1.998-6.688
				C374.464,379.021,375.275,376.973,375.275,376.973z"/>
			<path fill="#39B44A" d="M369.205,382.498c0,0-1.129,0.267-3.108,0.735c-0.956,0.215-2.098,0.531-3.355,0.836
				c-1.259,0.31-2.641,0.72-4.091,1.123c-1.452,0.435-2.966,0.938-4.521,1.464c-1.507,0.572-3.095,1.177-4.738,1.8
				c-1.606,0.646-3.342,1.175-5.039,1.979c-0.882,0.345-1.681,0.859-2.543,1.303c-0.811,0.52-1.628,1.054-2.395,1.667
				c-0.752,0.63-1.541,1.23-2.232,1.945l-1.079,1.031l-1.002,1.109c-0.689,0.721-1.299,1.509-1.919,2.283
				c-0.646,0.757-1.221,1.559-1.771,2.367c-0.573,0.793-1.116,1.593-1.589,2.42c-0.474,0.823-1.014,1.594-1.429,2.41
				c-0.879,1.604-1.706,3.146-2.352,4.634c-0.711,1.461-1.284,2.843-1.778,4.079c-0.524,1.227-0.933,2.318-1.253,3.228
				c-0.664,1.814-1.041,2.854-1.041,2.854l-1.015-0.2c0,0,0.1-1.114,0.274-3.066c0.044-0.489,0.095-1.032,0.148-1.623
				c0.089-0.586,0.186-1.222,0.29-1.898c0.208-1.358,0.421-2.904,0.828-4.56c0.333-1.676,0.836-3.462,1.396-5.362
				c0.249-0.962,0.654-1.901,0.999-2.89c0.339-0.993,0.76-1.981,1.218-2.981c0.433-1.012,0.903-2.032,1.461-3.033
				c0.515-1.024,1.099-2.029,1.762-3.009l0.974-1.493l1.087-1.443c0.702-0.985,1.534-1.886,2.345-2.811
				c0.799-0.94,1.733-1.756,2.589-2.665c0.936-0.814,1.818-1.717,2.822-2.459c1.919-1.607,4.079-2.887,6.283-3.83
				c2.225-0.906,4.508-1.393,6.668-1.614c2.167-0.196,4.209-0.158,6.061,0.08c3.709,0.473,6.604,1.607,8.494,2.662
				c1.893,1.028,2.833,1.935,2.833,1.935L369.205,382.498z"/>
			<path fill="#39B44A" d="M368.995,375.78c0,0-0.282-0.063-0.812-0.186c-0.509-0.125-1.255-0.311-2.205-0.546
				c-0.923-0.244-2.048-0.503-3.265-0.844c-1.199-0.316-2.552-0.672-4.028-1.06c-1.41-0.357-2.938-0.746-4.555-1.156
				c-1.588-0.396-3.231-0.741-4.887-1.219c-1.665-0.421-3.354-1.011-5.136-1.436c-0.889-0.24-1.798-0.374-2.721-0.541
				c-0.92-0.097-1.858-0.217-2.796-0.204l-1.41-0.005l-1.409,0.093c-0.947,0.033-1.875,0.2-2.808,0.33
				c-1.857,0.309-3.687,0.741-5.454,1.271c-0.878,0.277-1.724,0.617-2.572,0.913c-0.841,0.313-1.629,0.714-2.432,1.042
				c-0.808,0.318-1.537,0.747-2.271,1.118c-0.729,0.382-1.449,0.735-2.092,1.155c-1.313,0.799-2.554,1.511-3.573,2.263
				c-1.043,0.721-1.973,1.34-2.688,1.915c-1.468,1.122-2.307,1.763-2.307,1.763l-0.756-0.706c0,0,0.648-0.858,1.781-2.361
				c0.548-0.777,1.308-1.636,2.189-2.628c0.854-1.018,1.909-2.084,3.099-3.229c0.575-0.594,1.243-1.138,1.924-1.72
				c0.688-0.573,1.374-1.21,2.163-1.756c1.52-1.183,3.25-2.271,5.107-3.335c0.953-0.479,1.909-1.017,2.922-1.47
				c1.027-0.424,2.059-0.901,3.153-1.233c1.09-0.346,2.189-0.729,3.331-0.97l1.713-0.403l1.742-0.29
				c2.332-0.377,4.709-0.597,7.07-0.652c2.367-0.077,4.7,0.145,6.886,0.64c2.161,0.561,4.188,1.334,5.954,2.336
				c1.789,0.953,3.369,2.025,4.72,3.143c2.724,2.206,4.551,4.52,5.634,6.275c1.093,1.742,1.487,2.933,1.487,2.933L368.995,375.78z"
				/>
			<path fill="#8BC53F" d="M373.356,371.642c0,0-0.229-0.199-0.6-0.604c-0.379-0.402-0.892-1.008-1.476-1.816
				c-0.572-0.811-1.257-1.815-1.876-3.026c-0.647-1.207-1.267-2.613-1.82-4.192c-0.538-1.583-1.028-3.339-1.325-5.244
				c-0.351-1.896-0.475-3.952-0.345-6.077c0.167-2.127,0.633-4.314,1.34-6.477c0.696-2.163,1.521-4.315,2.494-6.405
				c0.91-2.107,2.127-4.091,3.391-5.955c0.667-0.91,1.354-1.799,2.08-2.626c0.782-0.784,1.48-1.612,2.293-2.302
				c1.575-1.425,3.195-2.664,4.825-3.647c0.833-0.468,1.6-0.977,2.403-1.354c0.797-0.376,1.566-0.738,2.306-1.086
				c0.748-0.313,1.488-0.558,2.177-0.811c0.687-0.259,1.342-0.479,1.977-0.631c1.261-0.323,2.324-0.675,3.249-0.796
				c1.808-0.315,2.841-0.496,2.841-0.496l0.282,0.995c0,0-0.917,0.447-2.525,1.23c-0.809,0.357-1.715,0.96-2.781,1.539
				c-1.076,0.567-2.162,1.428-3.384,2.229c-0.571,0.455-1.167,0.93-1.784,1.42c-0.615,0.481-1.164,1.082-1.768,1.632
				c-1.163,1.156-2.3,2.433-3.311,3.849c-0.535,0.682-0.944,1.477-1.43,2.208c-0.417,0.784-0.854,1.559-1.246,2.359
				c-0.73,1.639-1.412,3.312-1.83,5.086c-0.47,1.751-0.68,3.579-0.745,5.376c-0.072,1.801-0.017,3.571-0.1,5.277
				c-0.06,1.712-0.224,3.379-0.382,4.997c-0.166,1.648-0.323,3.207-0.467,4.646c-0.299,2.934-0.634,5.507-0.944,7.376
				c-0.289,1.866-0.538,3-0.538,3.001L373.356,371.642z"/>
			<path fill="#8BC53F" d="M380.428,371.291c0-0.001-0.025-0.362-0.001-1.024c0.017-0.664,0.088-1.62,0.263-2.825
				c0.189-1.194,0.438-2.657,0.912-4.262c0.445-1.62,1.076-3.407,1.906-5.301c0.85-1.883,1.872-3.893,3.194-5.884
				c1.281-2.018,2.849-4.029,4.741-5.875c1.855-1.877,4.143-3.471,6.5-4.959c2.439-1.399,4.916-2.779,7.553-3.85
				c1.274-0.612,2.651-1.017,3.967-1.507c1.354-0.395,2.703-0.79,4.059-1.077c2.72-0.561,5.436-0.868,8.045-0.827
				c0.648,0.002,1.294,0.004,1.932,0.006c0.633,0.053,1.261,0.105,1.88,0.157c0.618,0.056,1.227,0.11,1.83,0.166
				c0.597,0.088,1.182,0.21,1.759,0.312c2.318,0.357,4.418,1.021,6.346,1.567c1.886,0.704,3.624,1.265,5.069,1.994
				c1.461,0.686,2.744,1.224,3.728,1.835c1.989,1.128,3.126,1.772,3.126,1.772l-0.438,0.936c0,0-1.228-0.369-3.376-1.014
				c-1.056-0.357-2.396-0.607-3.886-0.975c-1.481-0.415-3.222-0.568-5.051-0.9c-1.859-0.166-3.853-0.415-5.954-0.342
				c-0.522,0.002-1.051,0.004-1.586,0.007c-0.533,0.042-1.071,0.085-1.614,0.127c-0.541,0.043-1.085,0.086-1.637,0.132
				c-0.544,0.09-1.092,0.182-1.645,0.274c-1.107,0.142-2.203,0.43-3.303,0.722c-1.108,0.241-2.179,0.674-3.274,1.011
				c-1.079,0.389-2.136,0.869-3.192,1.333c-1.021,0.562-2.08,1.016-3.051,1.67c-2.012,1.15-3.794,2.7-5.482,4.224
				c-1.626,1.636-3.19,3.222-4.688,4.819c-1.561,1.563-3.069,3.073-4.5,4.506c-1.459,1.446-2.81,2.886-4.115,4.202
				c-2.563,2.668-4.777,4.99-6.422,6.623c-1.62,1.648-2.63,2.604-2.631,2.604L380.428,371.291z"/>
			<path fill="#39B44A" d="M382.877,377.519c0,0,0.357-0.985,1.336-2.431c0.484-0.735,1.145-1.562,1.971-2.459
				c0.823-0.901,1.847-1.822,3.048-2.737c1.212-0.896,2.603-1.781,4.183-2.534c1.576-0.75,3.323-1.418,5.218-1.77
				c1.887-0.366,3.894-0.473,5.903-0.331c2.009,0.084,4.012,0.429,5.979,0.778c1.96,0.41,3.877,0.942,5.689,1.627
				c1.817,0.666,3.525,1.495,5.105,2.379c1.592,0.873,3.038,1.833,4.381,2.772c1.286,1.019,2.529,1.923,3.564,2.89
				c0.528,0.466,1.032,0.914,1.515,1.339c0.456,0.449,0.888,0.877,1.293,1.278c0.819,0.79,1.508,1.5,2.029,2.129
				c1.071,1.22,1.686,1.917,1.686,1.917l-0.511,0.534c0,0-0.743-0.537-2.044-1.476c-0.641-0.478-1.44-1.022-2.365-1.629
				c-0.46-0.307-0.949-0.632-1.463-0.974c-0.531-0.313-1.092-0.642-1.674-0.983c-1.143-0.718-2.47-1.331-3.821-2.034
				c-1.403-0.604-2.842-1.292-4.394-1.818c-1.537-0.556-3.154-1.001-4.789-1.38c-1.639-0.377-3.316-0.597-4.983-0.717
				c-1.673-0.056-3.338-0.015-4.934,0.279c-1.598,0.254-3.128,0.604-4.6,0.951c-1.484,0.299-2.908,0.657-4.296,0.961
				c-1.379,0.337-2.688,0.714-3.927,1.064c-2.455,0.746-4.586,1.475-6.121,2.016c-1.564,0.559-2.46,0.879-2.46,0.879
				L382.877,377.519z"/>
			<path fill="#006837" d="M383.131,384.97c0,0,0.079-0.063,0.255-0.168c0.177-0.112,0.442-0.244,0.777-0.38
				c0.343-0.148,0.757-0.259,1.25-0.373c0.484-0.076,1.053-0.176,1.663-0.159c0.619-0.018,1.278,0.075,1.975,0.218
				c0.688,0.163,1.41,0.407,2.089,0.789c0.676,0.399,1.319,0.896,1.876,1.512c0.601,0.553,1.073,1.247,1.599,1.859
				c0.49,0.642,0.897,1.342,1.304,2.003c0.326,0.709,0.644,1.402,0.891,2.083c0.194,0.701,0.388,1.365,0.542,1.999
				c0.109,0.642,0.164,1.253,0.235,1.806c0.177,1.101,0.082,2.031,0.091,2.667c-0.018,0.634-0.026,0.997-0.026,0.997l-0.441,0.041
				c0,0-0.112-0.34-0.311-0.935c-0.093-0.294-0.205-0.65-0.336-1.06c-0.104-0.412-0.285-0.858-0.507-1.329
				c-0.216-0.472-0.423-0.987-0.684-1.507c-0.29-0.494-0.595-1.016-0.911-1.554c-0.351-0.507-0.768-0.981-1.123-1.492
				c-0.44-0.445-0.856-0.915-1.326-1.313c-0.502-0.364-0.969-0.755-1.535-0.982c-0.524-0.279-1.061-0.489-1.548-0.743
				c-0.476-0.272-0.953-0.52-1.392-0.814c-0.466-0.279-0.906-0.545-1.313-0.79c-0.895-0.552-1.641-1.014-2.163-1.337
				c-0.563-0.356-0.918-0.594-0.918-0.594L383.131,384.97z"/>
		</g>
		<g>
			<path fill="#A57C52" d="M422.79,429.077c0,0,0.508,1.284,1.26,3.589c0.349,1.157,0.819,2.558,1.25,4.19
				c0.469,1.626,0.938,3.474,1.412,5.504c0.5,2.025,0.921,4.244,1.401,6.592c0.384,2.358,0.892,4.846,1.198,7.444
				c0.174,1.299,0.352,2.618,0.531,3.957c0.129,1.342,0.258,2.703,0.389,4.074c0.311,2.747,0.395,5.545,0.558,8.354
				c0.17,2.809,0.093,5.619,0.149,8.398c-0.005,2.774-0.177,5.503-0.256,8.156c-0.114,2.65-0.415,5.197-0.604,7.63
				c-0.16,2.438-0.555,4.708-0.829,6.825c-0.321,2.105-0.503,4.068-0.869,5.763c-0.332,1.705-0.622,3.19-0.858,4.416
				c-0.48,2.455-0.754,3.857-0.754,3.857l-11.536-3.385c0,0,0.429-1.261,1.18-3.468c0.377-1.107,0.836-2.449,1.361-3.99
				c0.563-1.535,0.969-3.324,1.543-5.252c0.525-1.938,1.197-4.023,1.653-6.282c0.484-2.254,1.105-4.622,1.555-7.106
				c0.414-2.486,0.935-5.057,1.301-7.692c0.305-2.639,0.751-5.32,0.954-8.022c0.209-2.699,0.504-5.411,0.563-8.088
				c0.057-1.34,0.111-2.667,0.166-3.982c0.003-1.314,0.006-2.613,0.009-3.891c0.049-2.563-0.114-5.031-0.173-7.386
				c-0.152-2.344-0.268-4.572-0.484-6.617c-0.192-2.049-0.405-3.927-0.645-5.583c-0.205-1.666-0.479-3.1-0.667-4.292
				C423.12,430.421,422.79,429.077,422.79,429.077z"/>
			<path fill="#006837" d="M426.421,431.914c0,0,0.132-0.131,0.43-0.354c0.298-0.236,0.75-0.531,1.34-0.852
				c0.594-0.337,1.342-0.647,2.232-0.965c0.891-0.282,1.926-0.573,3.085-0.686c1.162-0.201,2.435-0.13,3.797-0.07
				c1.337,0.218,2.796,0.397,4.163,1.045c0.675,0.332,1.408,0.564,2.038,1.021c0.648,0.426,1.273,0.898,1.901,1.357
				c0.654,0.425,1.162,1.048,1.74,1.566c0.538,0.565,1.172,1.026,1.648,1.636l1.451,1.775l0.708,0.881l0.58,0.952
				c0.374,0.634,0.743,1.262,1.109,1.883c0.172,0.314,0.365,0.615,0.513,0.931c0.133,0.325,0.266,0.646,0.394,0.967
				c0.492,1.285,1.07,2.476,1.408,3.668c0.298,1.196,0.578,2.327,0.839,3.37c0.296,1.025,0.413,1.995,0.52,2.852
				c0.118,0.853,0.213,1.594,0.278,2.205c0.138,1.215,0.217,1.909,0.217,1.909l-0.635,0.126c0,0-0.254-0.646-0.697-1.776
				c-0.227-0.561-0.487-1.243-0.773-2.022c-0.283-0.782-0.597-1.662-1.096-2.557c-0.454-0.899-0.945-1.875-1.466-2.906
				c-0.559-1-1.262-1.974-1.912-3.01l-0.501-0.773c-0.183-0.248-0.403-0.47-0.603-0.709c-0.398-0.47-0.8-0.946-1.206-1.427
				l-0.6-0.718l-0.701-0.618l-1.383-1.237c-0.459-0.407-1.014-0.685-1.522-1.008c-0.534-0.286-0.995-0.671-1.571-0.845
				c-0.549-0.22-1.092-0.42-1.598-0.661c-0.511-0.232-1.062-0.361-1.564-0.561c-0.984-0.465-2.017-0.71-2.953-1.162
				c-0.987-0.267-1.916-0.675-2.833-0.896c-0.907-0.294-1.769-0.49-2.559-0.724c-0.786-0.192-1.504-0.379-2.101-0.519
				c-0.609-0.147-1.089-0.264-1.416-0.343c-0.338-0.095-0.534-0.122-0.534-0.122L426.421,431.914z"/>
			<path fill="#8BC53F" d="M426.288,427.853c0,0,0.057-0.172,0.201-0.496c0.144-0.331,0.387-0.795,0.73-1.334
				c0.331-0.567,0.81-1.16,1.378-1.858c0.598-0.648,1.284-1.402,2.152-2.064c0.423-0.348,0.889-0.678,1.366-1.036
				c0.506-0.308,1.032-0.627,1.591-0.927c1.085-0.67,2.393-1.065,3.721-1.479c1.395-0.215,2.82-0.504,4.316-0.367
				c0.74,0.031,1.479,0.043,2.217,0.093l2.206,0.316l1.093,0.148c0.359,0.08,0.712,0.188,1.066,0.283
				c0.7,0.196,1.398,0.393,2.09,0.587c1.357,0.448,2.595,1.14,3.808,1.686c1.143,0.692,2.2,1.423,3.189,2.101
				c0.98,0.692,1.748,1.544,2.526,2.218c0.765,0.694,1.457,1.321,1.96,1.992c0.536,0.634,0.994,1.191,1.36,1.655
				c0.734,0.917,1.153,1.441,1.153,1.441l-0.473,0.442c0,0-0.538-0.388-1.481-1.065c-0.472-0.332-1.032-0.744-1.664-1.22
				c-0.605-0.51-1.396-0.938-2.24-1.404c-0.859-0.442-1.709-1.044-2.722-1.441c-1.022-0.373-2.044-0.85-3.131-1.232
				c-1.133-0.241-2.257-0.593-3.416-0.787c-0.584-0.063-1.173-0.124-1.763-0.187c-0.292-0.029-0.583-0.073-0.876-0.092l-0.888,0.037
				c-0.59,0.037-1.172,0.045-1.749,0.097c-0.577,0.104-1.145,0.25-1.703,0.37c-1.118,0.189-2.168,0.68-3.217,0.865
				c-1.022,0.365-2.073,0.486-3.055,0.78c-0.997,0.231-1.95,0.478-2.854,0.719c-1.89,0.488-3.464,0.898-4.567,1.184
				c-1.205,0.291-1.895,0.457-1.895,0.457L426.288,427.853z"/>
			<path fill="#8BC53F" d="M423.378,425.536c0,0-0.161-0.713-0.337-1.881c-0.189-1.168-0.401-2.781-0.59-4.619
				c-0.189-1.843-0.429-3.901-0.533-6.039c-0.02-1.072-0.04-2.179-0.062-3.304c-0.041-1.126-0.173-2.271-0.469-3.367
				c-0.261-1.113-0.688-2.16-1.145-3.187c-0.499-1-1.035-1.978-1.676-2.86c-0.633-0.889-1.349-1.684-2.071-2.413
				c-0.72-0.739-1.493-1.353-2.218-1.926c-0.765-0.508-1.451-1.033-2.125-1.387c-0.672-0.356-1.24-0.731-1.746-0.956
				c-1.006-0.49-1.58-0.771-1.58-0.771l0.175-0.623c0,0,0.648,0.113,1.78,0.311c0.58,0.074,1.244,0.297,2.03,0.505
				c0.791,0.198,1.641,0.562,2.597,0.913c0.926,0.419,1.939,0.884,2.956,1.514c1.026,0.611,2.037,1.39,3.023,2.281
				c0.984,0.896,1.92,1.932,2.739,3.088c0.792,1.165,1.555,2.408,2.124,3.729c0.609,1.307,1.126,2.656,1.562,4.01
				c0.449,1.353,0.724,2.727,0.84,4.056c0.167,2.673-0.379,5.116-1.048,7.092c-0.691,1.98-1.577,3.512-2.313,4.521
				c-0.729,1.01-1.299,1.516-1.299,1.516L423.378,425.536z"/>
			<path fill="#39B44A" d="M418.961,425.756c0,0-0.637-0.597-1.647-1.632c-0.496-0.508-1.1-1.125-1.79-1.833
				c-0.665-0.689-1.414-1.466-2.23-2.314c-0.8-0.816-1.664-1.698-2.579-2.632c-0.896-0.897-1.84-1.843-2.817-2.822
				c-0.93-1.008-1.923-1.988-2.937-3.018c-1.057-0.955-2.173-1.926-3.433-2.646c-1.238-0.767-2.562-1.38-3.912-1.881
				c-1.359-0.456-2.733-0.884-4.118-1.085c-0.688-0.132-1.374-0.224-2.056-0.255c-0.677-0.066-1.347-0.102-2.004-0.087
				c-1.316-0.052-2.567,0.1-3.732,0.199c-1.149,0.202-2.236,0.313-3.163,0.575c-0.932,0.236-1.769,0.396-2.43,0.617
				c-1.347,0.405-2.116,0.635-2.116,0.635l-0.273-0.585c0,0,0.711-0.405,1.957-1.11c0.615-0.385,1.421-0.718,2.338-1.142
				c0.905-0.455,1.997-0.791,3.175-1.239c1.206-0.347,2.521-0.767,3.971-0.995c0.721-0.162,1.47-0.252,2.248-0.303
				c0.773-0.091,1.571-0.119,2.388-0.104c1.632-0.024,3.336,0.169,5.037,0.52c1.696,0.375,3.403,0.9,5.027,1.618
				c1.652,0.671,3.202,1.535,4.729,2.412c1.48,0.927,2.903,1.938,4.072,3.104c2.373,2.324,3.903,5.02,4.968,7.365
				c1.045,2.373,1.551,4.483,1.766,5.989c0.219,1.503,0.165,2.411,0.165,2.411L418.961,425.756z"/>
			<path fill="#39B44A" d="M417.705,429.748c0,0-0.147-0.067-0.419-0.153c-0.258-0.091-0.641-0.226-1.126-0.396
				c-0.471-0.162-1.042-0.358-1.696-0.584c-0.655-0.203-1.357-0.459-2.14-0.664c-0.76-0.261-1.605-0.426-2.453-0.68
				c-0.88-0.143-1.754-0.452-2.692-0.584c-0.462-0.104-0.935-0.205-1.408-0.344c-0.482-0.061-0.972-0.159-1.473-0.248l-0.755-0.136
				l-0.769-0.027l-1.563-0.033c-1.034,0.141-2.095,0.227-3.119,0.457c-1,0.319-2.047,0.49-2.998,0.866
				c-0.957,0.389-1.882,0.767-2.758,1.125c-0.843,0.461-1.639,0.899-2.374,1.303c-0.372,0.205-0.729,0.399-1.068,0.587
				c-0.315,0.223-0.616,0.434-0.897,0.633c-0.569,0.396-1.066,0.742-1.475,1.027c-0.831,0.568-1.305,0.894-1.305,0.894l-0.32-0.335
				c0,0,0.393-0.425,1.082-1.171c0.352-0.371,0.777-0.821,1.266-1.339c0.246-0.26,0.51-0.534,0.789-0.823
				c0.307-0.259,0.631-0.529,0.969-0.813c0.685-0.567,1.426-1.185,2.211-1.837c0.875-0.549,1.798-1.126,2.752-1.725
				c0.973-0.58,2.091-0.994,3.196-1.489c1.132-0.425,2.351-0.707,3.559-1.027l1.867-0.277l0.937-0.149l0.942-0.039
				c0.627-0.021,1.256-0.051,1.879-0.044c0.614,0.052,1.219,0.158,1.813,0.248c0.595,0.104,1.169,0.242,1.704,0.466
				c0.542,0.203,1.079,0.378,1.568,0.624c0.97,0.513,1.873,1.001,2.612,1.6c0.767,0.546,1.38,1.17,1.914,1.701
				c0.513,0.572,0.934,1.075,1.234,1.541c0.306,0.45,0.523,0.828,0.652,1.105c0.135,0.269,0.185,0.411,0.185,0.411L417.705,429.748z
				"/>
			<path fill="#009145" d="M417.861,434.364c-0.001,0-0.879,0.575-1.93,1.205c-0.532,0.316-1.09,0.686-1.693,1.008
				c-0.314,0.152-0.639,0.308-0.969,0.467c-0.358,0.14-0.635,0.398-0.962,0.615c-0.293,0.25-0.555,0.542-0.829,0.823
				c-0.241,0.316-0.476,0.63-0.704,0.933c-0.199,0.338-0.39,0.665-0.57,0.975c-0.165,0.324-0.294,0.647-0.429,0.943
				c-0.299,0.586-0.38,1.133-0.529,1.496c-0.123,0.372-0.193,0.586-0.193,0.586l-0.277-0.026c0,0-0.006-0.228-0.016-0.625
				c0.007-0.398-0.054-0.979,0.056-1.67c0.048-0.345,0.079-0.729,0.148-1.132c0.109-0.397,0.223-0.816,0.34-1.251
				c0.155-0.427,0.354-0.861,0.558-1.305c0.256-0.413,0.511-0.853,0.816-1.255c0.625-0.789,1.315-1.627,2.176-2.111
				c0.866-0.461,1.777-0.646,2.548-0.625c0.768-0.005,1.398,0.149,1.821,0.328c0.427,0.166,0.648,0.344,0.648,0.344L417.861,434.364
				z"/>
		</g>
	</g>
	<g>
		<path fill="#FAC067" d="M485.332,512.068c8.493-2.614,66.907,13.708,54.794,25.504h-93.091
			C447.035,537.572,432.451,528.326,485.332,512.068z"/>
		<g>
			<g>
				<path fill="#A57C52" d="M493.486,432.152c0,0-1.869,33.157,4.328,50.372c6.199,17.215,20.656,41.869,15.765,46.332
					c-4.889,4.465-44.21,8.077-48.46-1.699c-4.251-9.778,8.653-91.391,15.91-101.168
					C481.029,425.989,492.524,420.889,493.486,432.152z"/>
				<path fill="#8B6239" d="M507.521,518.763c0,0-0.465,0.214-1.286,0.541c-0.823,0.331-2.02,0.739-3.467,1.169
					c-1.443,0.437-3.158,0.838-5.007,1.159c-0.92,0.189-1.885,0.298-2.859,0.429c-0.973,0.161-1.977,0.177-2.971,0.273
					c-0.998,0.072-2,0.073-2.983,0.112c-0.985-0.018-1.956-0.038-2.896-0.056c-0.939-0.064-1.847-0.125-2.707-0.184
					c-0.867-0.035-1.67-0.199-2.422-0.282c-0.748-0.114-1.447-0.154-2.049-0.279c-0.608-0.106-1.138-0.198-1.575-0.274
					c-0.877-0.15-1.385-0.218-1.385-0.218s0.476,0.178,1.322,0.457c0.426,0.138,0.941,0.307,1.534,0.5
					c0.588,0.216,1.275,0.355,2.023,0.522c0.753,0.148,1.557,0.385,2.431,0.497c0.87,0.126,1.791,0.286,2.749,0.381
					c0.961,0.054,1.955,0.141,2.966,0.169c1.014-0.027,2.043-0.012,3.072-0.072c1.021-0.115,2.054-0.147,3.053-0.329
					c1.003-0.138,1.984-0.322,2.923-0.55c0.947-0.183,1.833-0.487,2.679-0.736c0.837-0.284,1.625-0.556,2.339-0.845
					c1.438-0.55,2.555-1.197,3.339-1.621C507.115,519.07,507.521,518.763,507.521,518.763z"/>
				<path fill="#8B6239" d="M502.108,503.938c0,0-0.245,0.075-0.67,0.169c-0.207,0.059-0.465,0.109-0.762,0.162
					c-0.299,0.051-0.622,0.137-0.988,0.188c-0.364,0.048-0.759,0.101-1.169,0.173c-0.406,0.088-0.858,0.078-1.308,0.145
					c-0.903,0.117-1.872,0.172-2.846,0.213c-0.485,0.032-0.969,0.094-1.452,0.071c-0.479-0.01-0.953,0.018-1.411,0.022
					c-0.461,0.017-0.905,0.034-1.328,0.052c-0.421-0.019-0.821-0.021-1.192-0.021c-1.48-0.007-2.503,0.102-2.503,0.102
					s0.954,0.318,2.436,0.629c0.737,0.181,1.607,0.323,2.554,0.361c0.472,0.027,0.961,0.074,1.457,0.086
					c0.498,0.037,1.004-0.009,1.51-0.03c0.506-0.043,1.01-0.083,1.506-0.123c0.499-0.036,0.98-0.177,1.447-0.256
					c0.466-0.101,0.919-0.171,1.332-0.324c0.42-0.13,0.81-0.269,1.169-0.398c0.357-0.122,0.669-0.301,0.949-0.432
					c0.279-0.124,0.515-0.264,0.703-0.388C501.921,504.104,502.108,503.938,502.108,503.938z"/>
				<path fill="#8B6239" d="M493.486,488.794c0,0-0.301,0.131-0.835,0.294c-0.26,0.096-0.574,0.2-0.959,0.274
					c-0.374,0.086-0.795,0.182-1.255,0.289c-0.469,0.065-0.974,0.136-1.502,0.229c-0.521,0.119-1.098,0.101-1.679,0.15
					c-0.584,0.032-1.184,0.095-1.795,0.104c-0.615-0.021-1.239-0.043-1.864-0.064c-0.622-0.021-1.251,0.026-1.86-0.093
					c-0.609-0.093-1.216-0.145-1.801-0.215c-0.588-0.062-1.157-0.119-1.696-0.177c-0.529-0.116-1.033-0.212-1.502-0.298
					c-0.933-0.186-1.731-0.285-2.285-0.379c-0.559-0.085-0.884-0.115-0.884-0.115s0.288,0.138,0.81,0.351
					c0.522,0.203,1.265,0.526,2.181,0.853c0.456,0.168,0.953,0.347,1.482,0.521c0.54,0.134,1.118,0.243,1.718,0.354
					c0.599,0.105,1.219,0.236,1.853,0.33c0.629,0.137,1.289,0.107,1.941,0.143c0.652,0.006,1.306,0.013,1.95,0.021
					c0.643-0.018,1.273-0.154,1.882-0.223c0.607-0.084,1.195-0.146,1.734-0.333c0.545-0.15,1.053-0.312,1.517-0.458
					c0.464-0.162,0.865-0.382,1.223-0.549c0.362-0.159,0.663-0.34,0.903-0.496C493.253,489.017,493.486,488.794,493.486,488.794z"/>
				<path fill="#8B6239" d="M491.719,472.694c0,0-0.188,0.072-0.502,0.147c-0.148,0.052-0.349,0.077-0.567,0.12
					c-0.223,0.035-0.456,0.102-0.732,0.113c-0.272,0.025-0.563,0.051-0.862,0.096c-0.309,0.005-0.633,0.013-0.969,0.02
					c-0.663,0.058-1.387-0.035-2.102-0.046c-0.356,0.015-0.718-0.028-1.071-0.077s-0.706-0.06-1.046-0.092
					c-0.337-0.042-0.676-0.014-0.984-0.077c-0.313-0.05-0.61-0.081-0.887-0.109c-1.104-0.118-1.892-0.095-1.892-0.095
					s0.66,0.387,1.723,0.808c0.266,0.109,0.555,0.225,0.864,0.331c0.305,0.127,0.651,0.177,1,0.252
					c0.705,0.131,1.451,0.323,2.229,0.332c0.386,0.001,0.772,0.001,1.153,0.004c0.38,0.023,0.756-0.061,1.116-0.115
					c0.363-0.058,0.709-0.122,1.033-0.203c0.322-0.104,0.621-0.219,0.893-0.325c0.277-0.085,0.508-0.248,0.714-0.364
					c0.205-0.116,0.379-0.229,0.51-0.35C491.607,472.847,491.719,472.694,491.719,472.694z"/>
				<path fill="#8B6239" d="M491.343,460.898c0,0-0.228,0.128-0.64,0.278c-0.194,0.091-0.438,0.176-0.734,0.252
					c-0.293,0.074-0.6,0.203-0.959,0.27c-0.363,0.06-0.752,0.124-1.154,0.212c-0.398,0.107-0.855,0.057-1.299,0.117
					c-0.452,0.017-0.907,0.117-1.386,0.066c-0.477-0.019-0.958-0.039-1.442-0.062l-0.725-0.008c-0.24-0.02-0.478-0.072-0.714-0.104
					c-0.473-0.084-0.943-0.127-1.398-0.189c-0.451-0.079-0.906-0.073-1.316-0.174c-0.413-0.101-0.804-0.184-1.17-0.256
					c-1.457-0.301-2.49-0.403-2.49-0.403s0.876,0.502,2.284,1.106c0.351,0.152,0.733,0.317,1.143,0.476
					c0.408,0.167,0.869,0.242,1.337,0.352c0.47,0.099,0.955,0.222,1.452,0.308c0.251,0.044,0.499,0.104,0.754,0.133l0.775,0.032
					c0.519,0.008,1.037,0.015,1.547,0.02c0.51,0.043,1.012-0.132,1.492-0.187c0.48-0.095,0.951-0.129,1.37-0.305
					c0.428-0.148,0.821-0.305,1.18-0.447c0.362-0.14,0.658-0.365,0.931-0.519c0.274-0.149,0.492-0.323,0.663-0.479
					C491.194,461.102,491.343,460.898,491.343,460.898z"/>
				<path fill="#8B6239" d="M490.306,447.668c0,0-0.153,0.073-0.407,0.137c-0.248,0.061-0.611,0.147-1.039,0.169
					c-0.213,0.015-0.441,0.029-0.685,0.045c-0.248-0.017-0.505-0.042-0.769-0.04c-0.261,0.017-0.533-0.035-0.814-0.076
					c-0.278-0.034-0.562-0.068-0.846-0.103c-0.284,0-0.566-0.105-0.848-0.152c-0.277-0.067-0.561-0.096-0.831-0.145
					c-0.271-0.047-0.54-0.068-0.786-0.14c-0.247-0.063-0.487-0.109-0.711-0.147c-0.887-0.17-1.541-0.187-1.541-0.187
					s0.481,0.409,1.295,0.875c0.409,0.227,0.878,0.528,1.449,0.682c0.279,0.084,0.567,0.192,0.869,0.267
					c0.304,0.065,0.596,0.189,0.919,0.208c0.646,0.021,1.271,0.162,1.886,0.037c0.304-0.033,0.594-0.093,0.865-0.142
					c0.271-0.076,0.521-0.189,0.745-0.281c0.229-0.074,0.42-0.214,0.582-0.332c0.166-0.11,0.301-0.211,0.399-0.328
					C490.241,447.808,490.306,447.668,490.306,447.668z"/>
			</g>
			<path fill="#006837" d="M441.051,357.088c2.787-0.351,6.795-0.764,11.675-0.86c2.443-0.064,5.1-0.016,7.932,0.137
				c2.831,0.176,5.841,0.455,8.964,1.006c3.134,0.485,6.369,1.325,9.673,2.39c3.287,1.138,6.619,2.623,9.842,4.604
				c0.808,0.488,1.569,1.078,2.359,1.626l1.176,0.846c0.381,0.304,0.74,0.638,1.109,0.957c0.734,0.651,1.479,1.298,2.196,1.981
				c0.669,0.744,1.336,1.486,2,2.226c0.693,0.729,1.262,1.552,1.833,2.377c0.561,0.827,1.172,1.64,1.672,2.501
				c0.467,0.885,0.93,1.765,1.391,2.637c0.222,0.443,0.465,0.883,0.665,1.331l0.522,1.355c0.337,0.915,0.674,1.82,1.006,2.719
				c0.216,0.621,0.365,1.237,0.513,1.854c1.348-0.973,2.75-1.928,4.205-2.856c3.232-2.041,6.833-3.847,10.623-5.354
				c3.873-1.395,7.943-2.476,12.125-2.877c4.174-0.311,8.373-0.25,12.284,0.674c1.982,0.301,3.828,1.011,5.657,1.567
				c0.929,0.253,1.766,0.709,2.627,1.064c0.849,0.377,1.689,0.753,2.522,1.124c1.593,0.869,3.11,1.773,4.591,2.628
				c1.379,0.984,2.728,1.948,4.041,2.886c1.277,0.961,2.399,2.032,3.536,2.987c0.551,0.495,1.126,0.942,1.628,1.449
				c0.496,0.509,0.985,1.006,1.464,1.495c0.946,0.972,1.854,1.901,2.716,2.787c0.794,0.941,1.546,1.833,2.252,2.673
				c0.7,0.832,1.356,1.611,1.962,2.333c0.56,0.756,1.074,1.45,1.539,2.078c1.833,2.5,2.881,3.929,2.881,3.929
				s-1.349-1.14-3.714-3.135c-0.589-0.493-1.24-1.038-1.949-1.632c-0.744-0.548-1.551-1.141-2.411-1.774
				c-0.854-0.627-1.765-1.296-2.723-2.001c-1-0.628-2.056-1.29-3.156-1.98c-0.543-0.343-1.1-0.69-1.668-1.047
				c-0.566-0.353-1.191-0.63-1.799-0.957c-1.233-0.61-2.456-1.326-3.781-1.895c-1.324-0.533-2.685-1.083-4.073-1.643
				c-1.409-0.409-2.846-0.824-4.309-1.246c-0.735-0.133-1.476-0.264-2.222-0.396c-0.744-0.11-1.469-0.328-2.228-0.33
				c-1.499-0.063-2.98-0.291-4.469-0.127c-2.965,0.003-5.854,0.748-8.581,1.62c-2.729,0.966-5.27,2.394-7.644,3.959
				c-2.341,1.704-4.518,3.541-6.468,5.576c-1.938,2.055-3.722,4.133-5.258,6.299c-1.567,2.115-2.918,4.254-4.104,6.257
				c-2.351,4.031-4.02,7.58-5.037,10.043c-0.512,1.228-0.881,2.191-1.089,2.8c-0.132,0.343-0.139,0.451-0.18,0.58
				c-0.061,0.179-0.095,0.269-0.095,0.269l-24.004-11.867c0,0,0.15-0.237,0.418-0.656l-2.35-0.918c0,0,0.64-1.194,1.759-3.284
				c0.623-1.06,1.158-2.32,1.814-3.79c0.743-1.486,1.26-3.105,1.919-4.925c0.188-0.46,0.314-0.913,0.415-1.369
				c0.12-0.463,0.241-0.933,0.365-1.413c0.117-0.479,0.279-0.983,0.375-1.476c0.072-0.482,0.146-0.973,0.221-1.472
				c0.084-0.507,0.167-1.021,0.254-1.543c0.019-0.499,0.038-1.004,0.058-1.515c0.009-0.509,0.093-1.063,0.059-1.572
				c-0.039-0.512-0.078-1.028-0.116-1.55l-0.045-0.805c-0.035-0.262-0.104-0.509-0.151-0.769c-0.102-0.525-0.201-1.057-0.303-1.59
				c-0.124-0.529-0.342-1.022-0.502-1.558c-0.169-0.53-0.326-1.084-0.61-1.577l-0.746-1.577l-0.965-1.522
				c-0.166-0.256-0.317-0.527-0.498-0.779l-0.597-0.73c-0.409-0.483-0.773-1.012-1.225-1.483c-1.778-1.908-3.903-3.688-6.223-5.271
				c-2.359-1.527-4.84-2.967-7.419-4.105c-2.55-1.197-5.151-2.167-7.663-3.015c-2.521-0.825-4.958-1.531-7.24-2.08
				c-4.563-1.135-8.479-1.771-11.229-2.149c-2.756-0.378-4.351-0.49-4.351-0.49S438.263,357.442,441.051,357.088z"/>
			<path fill="#009145" d="M427.273,416.882c1.019-2.283,2.555-5.528,4.751-9.291c1.082-1.891,2.36-3.891,3.801-5.982
				c1.466-2.07,3.091-4.238,5.004-6.356c1.87-2.153,4.056-4.235,6.51-6.219c2.455-1.987,5.322-3.73,8.479-5.191
				c3.211-1.382,6.782-2.329,10.496-2.65c0.923-0.07,1.849-0.044,2.78-0.055l1.396,0.011c0.466,0.014,0.914,0.091,1.371,0.137
				c0.914,0.12,1.826,0.237,2.731,0.356c0.896,0.148,1.738,0.402,2.607,0.611c0.848,0.238,1.752,0.419,2.54,0.727
				c0.798,0.306,1.588,0.61,2.37,0.911c1.627,0.578,2.977,1.355,4.379,2.074c1.437,0.705,2.645,1.513,3.838,2.301
				c1.198,0.783,2.386,1.549,3.352,2.357c1.015,0.803,1.986,1.573,2.908,2.305c0.062,0.052,0.11,0.101,0.17,0.15
				c0.315-0.058,0.629-0.113,0.953-0.175c1.011-0.216,2.202-0.274,3.383-0.412c1.202-0.105,2.424-0.272,3.776-0.256
				c1.337-0.007,2.701-0.06,4.13,0.013c1.438,0.111,2.91,0.219,4.408,0.39c1.504,0.262,3.035,0.508,4.571,0.848
				c1.524,0.429,3.081,0.791,4.598,1.342c1.505,0.584,3.052,1.084,4.497,1.833c0.725,0.353,1.455,0.708,2.188,1.065
				c0.714,0.38,1.401,0.806,2.099,1.211c2.793,1.62,5.313,3.582,7.653,5.603c2.283,2.087,4.414,4.229,6.237,6.492
				c1.863,2.229,3.485,4.516,4.931,6.76c1.445,2.248,2.701,4.463,3.801,6.587c1.101,2.124,2.042,4.156,2.846,6.048
				c3.217,7.565,4.376,12.79,4.376,12.79s-0.759-1.104-2.203-2.919c-1.436-1.815-3.585-4.333-6.322-7.116
				c-1.367-1.39-2.893-2.84-4.551-4.286c-1.657-1.445-3.448-2.888-5.347-4.251c-1.9-1.362-3.899-2.655-5.977-3.772
				c-2.047-1.164-4.208-2.066-6.31-2.86c-2.134-0.71-4.224-1.302-6.253-1.552c-0.505-0.063-0.998-0.154-1.491-0.198
				c-0.49-0.023-0.977-0.046-1.461-0.067c-0.947-0.102-1.892,0.037-2.775,0.045c-0.891,0.045-1.757,0.242-2.572,0.326
				c-0.826,0.174-1.615,0.397-2.363,0.56c-0.738,0.256-1.457,0.503-2.151,0.743c-0.683,0.262-1.336,0.61-1.948,0.868
				c-0.61,0.234-1.197,0.631-1.742,0.928c-0.549,0.334-1.055,0.534-1.536,0.905c-0.959,0.691-1.77,1.145-2.437,1.704
				c-1.315,1.046-2.066,1.644-2.066,1.644l-6.949-14.347l-11.099,7.489c0,0-0.522-1.077-1.438-2.964
				c-0.236-0.465-0.475-1.03-0.774-1.563c-0.304-0.529-0.633-1.102-0.982-1.716c-0.355-0.603-0.713-1.313-1.135-1.955
				c-0.427-0.633-0.877-1.3-1.346-1.994c-0.459-0.752-0.989-1.358-1.532-2.036c-0.541-0.683-1.101-1.426-1.723-1.997
				c-0.612-0.611-1.234-1.361-1.921-1.853c-0.338-0.289-0.683-0.582-1.03-0.876c-0.349-0.316-0.719-0.479-1.087-0.746
				c-1.475-1.09-3.108-1.702-4.928-2.289c-1.824-0.434-3.866-0.607-6.057-0.412c-2.178,0.29-4.495,0.805-6.759,1.72
				c-2.259,0.904-4.515,2.007-6.612,3.323c-2.127,1.269-4.105,2.716-5.96,4.148c-1.836,1.46-3.549,2.916-5.065,4.344
				c-3.061,2.832-5.435,5.44-7.054,7.306c-1.617,1.868-2.474,3.005-2.474,3.005S426.26,419.168,427.273,416.882z"/>
			<path fill="#39B44A" d="M449.186,436.735c0.246-1.71,0.671-4.162,1.494-7.07c0.831-2.902,2.026-6.287,3.9-9.753
				c0.913-1.746,2.031-3.484,3.299-5.204c1.285-1.708,2.751-3.372,4.4-4.906c0.815-0.776,1.709-1.483,2.596-2.201
				c0.935-0.645,1.836-1.379,2.83-1.936c0.979-0.594,1.963-1.184,2.991-1.653c0.513-0.247,1.023-0.494,1.528-0.737
				c0.522-0.205,1.039-0.409,1.552-0.61c1.033-0.43,2.069-0.75,3.096-1.042c1.028-0.331,2.041-0.562,3.033-0.757
				c0.997-0.218,1.976-0.413,2.911-0.513c0.939-0.112,1.866-0.261,2.738-0.318c1.732-0.087,3.376-0.221,4.767-0.154
				c1.406,0.03,2.665,0.03,3.646,0.143c0.67,0.059,1.231,0.108,1.699,0.151l0.136-1.395c0,0,1.365,0.345,3.678,1.004
				c1.165,0.37,2.604,0.938,4.192,1.584c1.607,0.806,3.393,1.641,5.219,2.952c0.931,0.581,1.832,1.325,2.735,2.117
				c0.93,0.746,1.779,1.649,2.62,2.587c1.703,1.854,3.107,4.064,4.296,6.352c1.071,2.327,1.981,4.743,2.469,7.171
				c0.571,2.424,0.798,4.84,0.914,7.193c0.058,2.349,0.016,4.646-0.224,6.846c-0.197,2.207-0.542,4.323-0.919,6.339
				c-0.79,4.025-1.822,7.637-2.819,10.667c-2.016,6.059-3.868,9.813-3.868,9.813s0.553-4.172,0.522-10.352
				c-0.02-3.084-0.194-6.662-0.688-10.375c-0.267-1.853-0.58-3.742-1.031-5.592c-0.411-1.863-1.004-3.668-1.633-5.387
				c-0.683-1.695-1.419-3.313-2.314-4.684c-0.831-1.426-1.86-2.535-2.8-3.51c-1.028-0.88-1.989-1.606-2.991-2.058
				c-0.49-0.233-0.941-0.469-1.446-0.591c-0.471-0.16-0.906-0.317-1.393-0.378c-0.871-0.232-1.812-0.242-2.551-0.339
				c-0.847,0.023-1.526-0.004-2.133,0.032c-1.235,0.117-1.94,0.184-1.94,0.184l1.051-10.787l-2.367,9.266
				c0,0-0.746-0.316-2.052-0.87c-0.664-0.314-1.455-0.551-2.383-0.884c-0.933-0.37-1.962-0.586-3.124-0.924
				c-0.578-0.152-1.167-0.23-1.794-0.363c-0.632-0.147-1.27-0.218-1.933-0.283c-0.67-0.09-1.358-0.162-2.051-0.158
				c-0.703-0.03-1.429-0.055-2.148,0.011c-0.368,0.018-0.74,0.036-1.113,0.054c-0.367,0.052-0.738,0.102-1.111,0.153
				c-0.765,0.074-1.509,0.255-2.277,0.43c-0.785,0.139-1.514,0.45-2.304,0.667c-0.752,0.298-1.533,0.579-2.284,0.94
				c-1.513,0.706-2.991,1.581-4.4,2.576c-1.393,1.013-2.743,2.114-3.952,3.318c-2.466,2.372-4.474,5.012-6.051,7.394
				c-1.574,2.39-2.692,4.544-3.43,6.075c-0.729,1.539-1.069,2.46-1.069,2.46S448.95,438.45,449.186,436.735z"/>
			<g>
				<circle fill="#A57C52" cx="507.69" cy="394.22" r="5.889"/>
				<circle fill="#8B6239" cx="498.778" cy="393.832" r="5.503"/>
				<circle fill="#A57C52" cx="490.405" cy="395.731" r="4.343"/>
				<circle fill="#8B6239" cx="494.67" cy="399.334" r="5.115"/>
				<circle fill="#8B6239" cx="488.625" cy="405.338" r="7.595"/>
				<circle fill="#A57C52" cx="484.446" cy="411.771" r="6.896"/>
				<circle fill="#8B6239" cx="485.332" cy="421.188" r="9.417"/>
				<circle fill="#A57C52" cx="503.815" cy="423.629" r="7.596"/>
				<circle fill="#8B6239" cx="495.833" cy="428.486" r="7.983"/>
				<circle fill="#A57C52" cx="497.815" cy="413.922" r="8.261"/>
				<circle fill="#8B6239" cx="504.613" cy="416.364" r="6.798"/>
				<circle fill="#A57C52" cx="503.985" cy="404.393" r="7.426"/>
				<circle fill="#8B6239" cx="495.917" cy="406.864" r="8.067"/>
				<circle fill="#8B6239" cx="509.085" cy="404.719" r="6.977"/>
			</g>
		</g>
	</g>
	<g>
		<path fill="#FAC067" d="M677.407,537.242c0,0-42.628-19.784-79.826-18.416s-57.35,17.641-99.199,18.416
			C498.382,537.242,580.008,543.96,677.407,537.242z"/>
		<g>
			<path fill="#A57C52" d="M576.975,396.179c0.649-0.252,6.139,2.883,6.279,4.263c0.146,1.38-1.686,3.13-3.23,2.82
				c-1.547-0.309-3.604-2.533-3.645-3.336C576.334,399.123,576.232,396.466,576.975,396.179z"/>
			<path fill="#A57C52" d="M575.388,398.942c0.649-0.253,6.138,2.884,6.281,4.264c0.144,1.379-1.688,3.129-3.233,2.819
				c-1.545-0.309-3.602-2.533-3.644-3.337C574.748,401.887,574.646,399.229,575.388,398.942z"/>
			<path fill="#A57C52" d="M573.515,402.509c0.648-0.254,6.139,2.884,6.282,4.264c0.144,1.377-1.689,3.128-3.234,2.822
				c-1.542-0.312-3.604-2.537-3.645-3.341C572.879,405.453,572.772,402.798,573.515,402.509z"/>
			<path fill="#A57C52" d="M571.93,405.271c0.646-0.25,6.138,2.886,6.281,4.264c0.142,1.381-1.691,3.132-3.236,2.822
				c-1.543-0.312-3.602-2.534-3.644-3.338C571.288,408.216,571.186,405.56,571.93,405.271z"/>
			<path fill="#A57C52" d="M570.057,408.836c0.646-0.25,6.139,2.886,6.282,4.267c0.144,1.378-1.69,3.13-3.234,2.819
				c-1.545-0.308-3.601-2.532-3.644-3.338C569.419,411.781,569.313,409.126,570.057,408.836z"/>
			<path fill="#A57C52" d="M568.47,411.601c0.648-0.251,6.138,2.886,6.281,4.264c0.144,1.379-1.689,3.131-3.234,2.82
				c-1.545-0.309-3.602-2.533-3.645-3.336S567.728,411.891,568.47,411.601z"/>
			<path fill="#A57C52" d="M566.662,415.179c0.623-0.307,6.369,2.333,6.633,3.695c0.262,1.362-1.41,3.267-2.975,3.093
				c-1.565-0.173-3.811-2.207-3.923-3.006C566.285,418.17,565.947,415.531,566.662,415.179z"/>
			<path fill="#A57C52" d="M565.322,418.069c0.625-0.31,6.369,2.336,6.633,3.697c0.265,1.36-1.408,3.266-2.972,3.095
				c-1.566-0.175-3.813-2.21-3.927-3.004C564.946,421.059,564.609,418.422,565.322,418.069z"/>
			<path fill="#A57C52" d="M563.771,421.788c0.626-0.31,6.369,2.333,6.633,3.696c0.267,1.361-1.409,3.264-2.972,3.094
				c-1.566-0.173-3.813-2.208-3.925-3.006C563.395,424.776,563.056,422.141,563.771,421.788z"/>
			<path fill="#A57C52" d="M562.434,424.679c0.622-0.309,6.368,2.336,6.633,3.697c0.264,1.361-1.411,3.266-2.976,3.092
				c-1.563-0.172-3.813-2.207-3.923-3.003C562.057,427.669,561.721,425.032,562.434,424.679z"/>
			<path fill="#A57C52" d="M560.997,428.093c0.622-0.31,6.367,2.333,6.632,3.695c0.264,1.36-1.411,3.265-2.975,3.092
				c-1.563-0.171-3.812-2.207-3.924-3.005C560.619,431.081,560.283,428.443,560.997,428.093z"/>
			<path fill="#A57C52" d="M559.658,430.984c0.625-0.309,6.369,2.333,6.632,3.696c0.265,1.359-1.408,3.266-2.974,3.092
				c-1.566-0.172-3.811-2.206-3.924-3.003C559.279,433.971,558.945,431.335,559.658,430.984z"/>
			<path fill="#A57C52" d="M558.106,434.699c0.624-0.309,6.366,2.336,6.63,3.697c0.267,1.361-1.405,3.266-2.972,3.095
				c-1.566-0.174-3.813-2.208-3.925-3.004C557.729,437.688,557.391,435.053,558.106,434.699z"/>
			<path fill="#A57C52" d="M556.769,437.594c0.622-0.309,6.368,2.334,6.63,3.694c0.265,1.361-1.407,3.266-2.972,3.092
				c-1.567-0.168-3.813-2.206-3.925-3.001C556.39,440.582,556.054,437.946,556.769,437.594z"/>
			<path fill="#A57C52" d="M555.224,441.004c0.622-0.309,6.368,2.335,6.633,3.695c0.264,1.362-1.41,3.267-2.975,3.095
				c-1.567-0.174-3.811-2.206-3.924-3.003C554.847,443.993,554.508,441.354,555.224,441.004z"/>
			<path fill="#A57C52" d="M553.883,443.896c0.625-0.309,6.368,2.333,6.636,3.697c0.263,1.36-1.411,3.267-2.976,3.095
				c-1.563-0.174-3.811-2.209-3.923-3.008C553.509,446.885,553.171,444.249,553.883,443.896z"/>
			<path fill="#A57C52" d="M552.326,447.551c0.572-0.395,6.643,1.37,7.105,2.679c0.465,1.306-0.911,3.438-2.486,3.498
				c-1.572,0.061-4.094-1.621-4.322-2.393C552.395,450.565,551.674,448.006,552.326,447.551z"/>
			<path fill="#A57C52" d="M551.135,450.384c0.576-0.397,6.646,1.369,7.106,2.675c0.46,1.31-0.913,3.44-2.485,3.499
				c-1.575,0.062-4.096-1.621-4.323-2.391C551.203,453.396,550.484,450.835,551.135,450.384z"/>
			<path fill="#A57C52" d="M549.977,453.785c0.572-0.396,6.646,1.369,7.104,2.679c0.465,1.305-0.911,3.436-2.484,3.497
				c-1.572,0.062-4.094-1.622-4.324-2.391C550.044,456.796,549.323,454.238,549.977,453.785z"/>
			<path fill="#A57C52" d="M556.66,459.797c-0.177-0.676-5.931-3.296-7.136-2.604c-1.2,0.689-1.551,3.2-0.396,4.272
				c1.151,1.071,4.162,1.441,4.836,1.003C554.643,462.034,556.859,460.564,556.66,459.797z"/>
			<path fill="#A57C52" d="M548.083,461.499c0.448-0.534,6.771-0.437,7.561,0.704c0.792,1.139,0.027,3.558-1.473,4.03
				c-1.5,0.474-4.376-0.479-4.802-1.164C548.945,464.385,547.574,462.107,548.083,461.499z"/>
			<path fill="#A57C52" d="M547.684,464.542c0.445-0.532,6.767-0.433,7.562,0.705c0.789,1.142,0.028,3.557-1.477,4.03
				c-1.499,0.475-4.375-0.479-4.801-1.165C548.547,467.433,547.173,465.154,547.684,464.542z"/>
			<path fill="#A57C52" d="M547.463,468.134c0.448-0.535,6.771-0.438,7.563,0.702c0.791,1.137,0.027,3.557-1.473,4.03
				c-1.501,0.476-4.381-0.481-4.803-1.164C548.328,471.018,546.954,468.742,547.463,468.134z"/>
			<path fill="#A57C52" d="M555.497,472.162c-0.349-0.604-6.59-1.61-7.566-0.625c-0.979,0.985-0.651,3.495,0.746,4.228
				c1.394,0.727,4.395,0.287,4.932-0.311C554.145,474.854,555.893,472.85,555.497,472.162z"/>
			<path fill="#A57C52" d="M547.098,475.285c0.39-0.577,6.689-1.13,7.593-0.076c0.905,1.049,0.396,3.533-1.051,4.159
				c-1.443,0.626-4.403-0.029-4.896-0.666C548.253,478.066,546.654,475.943,547.098,475.285z"/>
			<path fill="#A57C52" d="M555.502,478.469c-0.407-0.565-6.721-0.925-7.591,0.153c-0.87,1.08-0.289,3.547,1.178,4.128
				c1.46,0.581,4.4-0.162,4.872-0.813S555.968,479.11,555.502,478.469z"/>
			<path fill="#A57C52" d="M547.689,482.649c0.363-0.595,6.629-1.445,7.582-0.434c0.955,1.004,0.563,3.508-0.852,4.201
				c-1.412,0.693-4.4,0.18-4.921-0.432C548.978,485.373,547.277,483.329,547.689,482.649z"/>
			<path fill="#A57C52" d="M556.237,485.433c-0.438-0.546-6.758-0.604-7.575,0.514c-0.82,1.118-0.12,3.555,1.369,4.064
				c1.486,0.512,4.392-0.372,4.828-1.042C555.302,488.297,556.729,486.052,556.237,485.433z"/>
			<path fill="#A57C52" d="M557.204,488.691c-0.442-0.539-6.767-0.521-7.569,0.608c-0.806,1.127-0.076,3.556,1.421,4.048
				c1.491,0.493,4.385-0.427,4.813-1.104C556.303,491.567,557.704,489.307,557.204,488.691z"/>
			<path fill="#A57C52" d="M549.421,493.133c0.29-0.632,6.419-2.197,7.478-1.305c1.066,0.891,0.963,3.422-0.363,4.274
				c-1.32,0.851-4.35,0.685-4.937,0.135C551.008,495.69,549.089,493.855,549.421,493.133z"/>
			<path fill="#A57C52" d="M558.229,494.912c-0.494-0.488-6.781,0.178-7.463,1.382c-0.688,1.207,0.285,3.545,1.828,3.883
				c1.535,0.337,4.316-0.874,4.675-1.592C557.63,497.867,558.791,495.474,558.229,494.912z"/>
			<path fill="#A57C52" d="M551.196,500.305c0.262-0.648,6.308-2.499,7.409-1.658c1.105,0.838,1.124,3.374-0.159,4.285
				c-1.282,0.915-4.313,0.892-4.928,0.372C552.905,502.784,550.9,501.04,551.196,500.305z"/>
			<path fill="#A57C52" d="M560.08,501.666c-0.518-0.469-6.764,0.496-7.392,1.733c-0.628,1.238,0.456,3.527,2.01,3.791
				c1.55,0.262,4.271-1.078,4.595-1.811C559.621,504.642,560.668,502.198,560.08,501.666z"/>
			<path fill="#A57C52" d="M552.98,506.726c0.291-0.635,6.419-2.196,7.481-1.303c1.063,0.889,0.96,3.421-0.362,4.272
				c-1.326,0.852-4.353,0.686-4.939,0.138C554.569,509.282,552.648,507.448,552.98,506.726z"/>
			<path fill="#A57C52" d="M561.789,508.505c-0.494-0.487-6.781,0.178-7.465,1.383c-0.687,1.206,0.287,3.545,1.826,3.884
				c1.536,0.335,4.318-0.876,4.679-1.593C561.19,511.46,562.351,509.067,561.789,508.505z"/>
			<path fill="#A57C52" d="M554.758,513.895c0.261-0.644,6.307-2.494,7.408-1.654c1.105,0.839,1.122,3.373-0.16,4.286
				c-1.278,0.914-4.314,0.89-4.926,0.371C556.466,516.376,554.46,514.635,554.758,513.895z"/>
			<path fill="#A57C52" d="M563.639,515.258c-0.516-0.466-6.763,0.497-7.389,1.736c-0.631,1.236,0.455,3.527,2.009,3.789
				c1.55,0.263,4.271-1.078,4.594-1.811C563.182,518.235,564.229,515.791,563.639,515.258z"/>
			<path fill="#A57C52" d="M564.013,518.142c-0.493-0.492-6.78,0.176-7.465,1.38c-0.685,1.207,0.29,3.547,1.829,3.883
				c1.534,0.337,4.317-0.875,4.677-1.592C563.412,521.092,564.576,518.699,564.013,518.142z"/>
			<path fill="#A57C52" d="M556.981,523.529c0.26-0.646,6.307-2.496,7.411-1.655c1.103,0.838,1.122,3.373-0.163,4.286
				c-1.278,0.913-4.312,0.889-4.925,0.37C558.689,526.009,556.684,524.27,556.981,523.529z"/>
			<path fill="#A57C52" d="M565.865,524.893c-0.519-0.468-6.766,0.499-7.392,1.735c-0.628,1.235,0.457,3.525,2.01,3.79
				c1.549,0.262,4.272-1.08,4.596-1.811C565.404,527.871,566.456,525.426,565.865,524.893z"/>
			<path fill="#006837" d="M587.85,386.208c0,0,13.143-7.979,25.504-3.357c12.355,4.62,19.518,10.897,17.104,13.932
				c-2.414,3.037-14.136-3.284-17.694-8.006c0,0-1.346,2.144,0.69,3.921c0,0-10.207-3.668-12.502-7.129l1.732,4.617
				c0,0-8.69-5.297-14.521-0.559C588.162,389.627,585.938,390.606,587.85,386.208z"/>
			<path fill="#006837" d="M585.96,386.237c0,0,5.46-21.343-5.696-32.616c-11.158-11.274-17.037-0.583-17.037-0.583
				s9.012-1.211,11.028,6.324c0,0-5.849-3.606-7.373-1.239c0,0,8.331,6.438,10.038,13.331c0,0,7.239,3.604,5.975,13.26
				C581.636,394.369,585.658,387.604,585.96,386.237z"/>
			<path fill="#009145" d="M583.651,387.802c0,0-6.011-17.237-22.761-20.989c-16.753-3.751-26.473,5.306-32.2,6.484
				c0,0,5.907,5.997,22.224-0.89c0,0-7.193,6.286-9.891,7.101c0,0,2.372,3.609,12.096-1.97c9.726-5.582,7.774-0.544,7.774-0.544
				s-4.565,4.57-8.109,6.106c0,0,4.353,1.16,8.937-2.465c4.584-3.624,6.23,0.185,6.23,0.185l-3.831,3.231
				c0,0,6.537,1.517,8.679-0.264c0,0,5.309-0.348,7.518,5.13C582.525,394.394,583.651,387.802,583.651,387.802z"/>
			<path fill="#009145" d="M576.565,390.87c0,0-21.357-7.321-33.036,0.289c-11.677,7.613-11.551,17.263-11.551,17.263
				s3.685-7.019,6.986-7.98c0.171-0.051,0.342-0.085,0.512-0.1c3.42-0.31-0.736,7.345,2.83,10.928c0,0,7.455-14.145,12.072-14.487
				c0,0-0.687,4.173-0.158,5.341c0,0,13.608-11.986,20.347-9.051C581.304,396.011,578.508,391.467,576.565,390.87z"/>
			<path fill="#39B44A" d="M575.571,394.407c0,0-22.688,5.938-25.288,28.612c0,0,6.522-13.997,12.648-15.804
				c0,0-0.821,4.462-0.679,5.574c0.14,1.114,9.3-10.309,17.416-12.937C579.669,399.854,583.437,395.275,575.571,394.407z"/>
			<path fill="#39B44A" d="M583.805,399.524c0,0,7.613,5.755-1.316,20.487c0,0,6.67-2.932,7.777-5.854c0,0-1.9,10.656-7.534,16.814
				c0,0,4.644-1.23,6.613-3.933c0,0,0.978,3.613-13.571,17.354c0,0,35.687-14.379,20.235-38.564c0,0-4.118-6.302-8.386-10.051
				C587.623,395.778,582.455,395.843,583.805,399.524z"/>
			<path fill="#009145" d="M589.443,391.099c0,0,13.318-2.89,23.631,7.802c10.313,10.691,5.124,18.601,5.124,18.601
				s-3.104-10.37-7.726-12.115l-0.095,6.581c0,0-5.051-5.317-8.063-10.015l-0.481,3.292c0,0-6.939-7.547-12.217-11.837
				C589.617,393.407,588.004,391.311,589.443,391.099z"/>
			<path fill="#8B6239" d="M574.346,381.197c2.337-1.762,5.658-1.295,7.419,1.044c0.212,0.28,0.385,0.576,0.533,0.876
				c2.149-0.703,4.592-0.033,6.032,1.874c0.71,0.944,1.052,2.045,1.075,3.141c1.038,0.314,1.989,0.932,2.688,1.864
				c1.75,2.325,1.285,5.63-1.04,7.379c-1.36,1.026-3.052,1.27-4.578,0.847c-0.087,1.643-0.849,3.238-2.261,4.304
				c-2.546,1.916-6.162,1.405-8.079-1.14c-0.777-1.033-1.135-2.239-1.14-3.442c-0.353-0.277-0.688-0.587-0.97-0.962
				c-0.758-1.005-1.077-2.192-1.036-3.358c-0.383-0.263-0.735-0.573-1.031-0.965c-1.354-1.796-1.102-4.279,0.479-5.802
				C571.87,384.817,572.551,382.544,574.346,381.197z"/>
		</g>
		<g>
			<path fill="#A57C52" d="M611.277,285.92c-1.175-0.457-11.117,5.223-11.378,7.721c-0.26,2.498,3.062,5.668,5.856,5.109
				c2.797-0.56,6.525-4.589,6.602-6.043S612.621,286.442,611.277,285.92z"/>
			<path fill="#A57C52" d="M614.151,290.926c-1.175-0.457-11.116,5.222-11.377,7.721c-0.26,2.498,3.061,5.669,5.856,5.108
				c2.796-0.56,6.525-4.588,6.602-6.042S615.497,291.447,614.151,290.926z"/>
			<path fill="#A57C52" d="M617.543,297.385c-1.175-0.457-11.119,5.223-11.378,7.722c-0.261,2.498,3.06,5.669,5.857,5.108
				c2.795-0.561,6.524-4.589,6.6-6.043C618.699,302.718,618.887,297.907,617.543,297.385z"/>
			<path fill="#A57C52" d="M620.417,302.39c-1.175-0.456-11.118,5.223-11.378,7.722c-0.26,2.498,3.061,5.669,5.856,5.108
				c2.796-0.56,6.525-4.588,6.602-6.043C621.573,307.723,621.762,302.912,620.417,302.39z"/>
			<path fill="#A57C52" d="M623.808,308.849c-1.175-0.456-11.118,5.224-11.377,7.723c-0.262,2.497,3.059,5.669,5.856,5.108
				c2.796-0.561,6.524-4.589,6.6-6.043C624.964,314.182,625.151,309.372,623.808,308.849z"/>
			<path fill="#A57C52" d="M626.682,313.854c-1.175-0.456-11.117,5.224-11.378,7.722c-0.26,2.498,3.062,5.669,5.857,5.108
				c2.796-0.56,6.524-4.588,6.602-6.043C627.838,319.188,628.027,314.377,626.682,313.854z"/>
			<path fill="#A57C52" d="M629.954,320.333c-1.131-0.559-11.534,4.228-12.012,6.694c-0.479,2.465,2.55,5.913,5.385,5.601
				c2.837-0.312,6.903-3.997,7.106-5.441C630.637,325.746,631.248,320.972,629.954,320.333z"/>
			<path fill="#A57C52" d="M632.379,325.571c-1.131-0.559-11.535,4.227-12.012,6.693c-0.479,2.464,2.551,5.914,5.384,5.603
				c2.838-0.313,6.904-3.998,7.107-5.44C633.063,330.983,633.672,326.209,632.379,325.571z"/>
			<path fill="#A57C52" d="M635.189,332.303c-1.131-0.558-11.534,4.227-12.012,6.693c-0.48,2.465,2.551,5.914,5.386,5.604
				c2.834-0.313,6.902-3.998,7.106-5.44C635.872,337.716,636.482,332.94,635.189,332.303z"/>
			<path fill="#A57C52" d="M637.614,337.541c-1.132-0.559-11.535,4.227-12.013,6.693s2.552,5.916,5.386,5.603
				c2.836-0.312,6.902-3.998,7.106-5.44C638.297,342.955,638.906,338.179,637.614,337.541z"/>
			<path fill="#A57C52" d="M640.216,343.721c-1.131-0.559-11.534,4.228-12.012,6.694c-0.478,2.465,2.551,5.914,5.386,5.602
				c2.836-0.313,6.903-3.998,7.105-5.441C640.897,349.134,641.51,344.359,640.216,343.721z"/>
			<path fill="#A57C52" d="M642.641,348.958c-1.131-0.558-11.535,4.229-12.013,6.694c-0.477,2.466,2.552,5.914,5.386,5.604
				c2.837-0.313,6.903-4,7.105-5.441C643.325,354.372,643.934,349.598,642.641,348.958z"/>
			<path fill="#A57C52" d="M645.451,355.69c-1.131-0.559-11.534,4.228-12.012,6.693c-0.48,2.466,2.551,5.915,5.387,5.604
				c2.833-0.313,6.903-3.999,7.105-5.44C646.134,361.104,646.745,356.329,645.451,355.69z"/>
			<path fill="#A57C52" d="M647.877,360.929c-1.132-0.559-11.536,4.227-12.013,6.693c-0.479,2.468,2.551,5.916,5.385,5.603
				c2.835-0.312,6.904-3.998,7.106-5.44C648.559,366.343,649.167,361.566,647.877,360.929z"/>
			<path fill="#A57C52" d="M650.672,367.107c-1.13-0.558-11.534,4.229-12.012,6.694c-0.48,2.466,2.551,5.915,5.387,5.604
				c2.833-0.313,6.902-3.998,7.105-5.439C651.354,372.522,651.966,367.747,650.672,367.107z"/>
			<path fill="#A57C52" d="M653.096,372.346c-1.13-0.558-11.533,4.229-12.012,6.694c-0.478,2.468,2.552,5.917,5.387,5.604
				c2.834-0.313,6.903-4,7.105-5.44C653.778,377.762,654.389,372.985,653.096,372.346z"/>
			<path fill="#A57C52" d="M655.918,378.967c-1.037-0.719-12.032,2.479-12.867,4.849c-0.839,2.367,1.651,6.227,4.499,6.337
				c2.85,0.11,7.418-2.937,7.831-4.334C655.794,384.422,657.102,379.789,655.918,378.967z"/>
			<path fill="#A57C52" d="M658.074,384.092c-1.035-0.719-12.03,2.482-12.868,4.849c-0.834,2.37,1.65,6.23,4.504,6.337
				c2.848,0.11,7.416-2.936,7.828-4.332C657.952,389.549,659.258,384.914,658.074,384.092z"/>
			<path fill="#A57C52" d="M660.173,390.258c-1.036-0.719-12.033,2.479-12.868,4.85c-0.839,2.363,1.651,6.225,4.5,6.333
				c2.85,0.11,7.417-2.936,7.832-4.331C660.049,395.71,661.357,391.079,660.173,390.258z"/>
			<path fill="#A57C52" d="M648.072,401.144c0.32-1.223,10.74-5.968,12.919-4.714c2.179,1.249,2.81,5.796,0.718,7.738
				c-2.087,1.938-7.539,2.607-8.76,1.82C651.725,405.196,647.711,402.534,648.072,401.144z"/>
			<path fill="#A57C52" d="M663.604,404.228c-0.812-0.969-12.262-0.789-13.692,1.273c-1.436,2.063-0.053,6.443,2.667,7.301
				c2.718,0.86,7.928-0.87,8.696-2.109C662.042,409.453,664.528,405.331,663.604,404.228z"/>
			<path fill="#A57C52" d="M664.329,409.74c-0.809-0.967-12.26-0.787-13.692,1.276c-1.432,2.063-0.055,6.442,2.667,7.3
				c2.718,0.858,7.929-0.87,8.695-2.108C662.767,414.971,665.252,410.845,664.329,409.74z"/>
			<path fill="#A57C52" d="M664.724,416.241c-0.811-0.969-12.262-0.789-13.691,1.276c-1.437,2.059-0.054,6.438,2.664,7.296
				c2.718,0.861,7.931-0.871,8.698-2.107C663.163,421.466,665.647,417.347,664.724,416.241z"/>
			<path fill="#A57C52" d="M650.176,423.542c0.632-1.095,11.936-2.918,13.705-1.134c1.771,1.782,1.18,6.332-1.351,7.654
				c-2.526,1.316-7.962,0.521-8.93-0.56C652.628,428.415,649.459,424.786,650.176,423.542z"/>
			<path fill="#A57C52" d="M665.388,429.195c-0.706-1.046-12.115-2.043-13.752-0.137c-1.64,1.9-0.714,6.398,1.903,7.531
				c2.614,1.135,7.977-0.051,8.867-1.203C663.298,434.232,666.192,430.391,665.388,429.195z"/>
			<path fill="#A57C52" d="M650.165,434.962c0.742-1.023,12.173-1.675,13.748,0.281c1.581,1.955,0.523,6.421-2.129,7.474
				c-2.647,1.051-7.973-0.298-8.825-1.473C652.104,440.063,649.326,436.127,650.165,434.962z"/>
			<path fill="#A57C52" d="M664.314,442.532c-0.655-1.077-12.005-2.614-13.729-0.787c-1.729,1.818-1.02,6.357,1.543,7.613
				c2.558,1.258,7.97,0.324,8.913-0.782C661.987,447.466,665.063,443.765,664.314,442.532z"/>
			<path fill="#A57C52" d="M648.835,447.572c0.792-0.987,12.239-1.095,13.72,0.931c1.487,2.028,0.219,6.439-2.48,7.365
				c-2.693,0.924-7.949-0.674-8.744-1.89C650.53,452.759,647.942,448.694,648.835,447.572z"/>
			<path fill="#A57C52" d="M647.085,453.478c0.801-0.977,12.252-0.947,13.708,1.103c1.461,2.044,0.139,6.439-2.569,7.334
				c-2.706,0.89-7.944-0.774-8.725-2C648.718,458.686,646.177,454.591,647.085,453.478z"/>
			<path fill="#A57C52" d="M661.182,461.521c-0.525-1.147-11.625-3.979-13.547-2.361c-1.928,1.61-1.742,6.198,0.657,7.74
				c2.396,1.544,7.88,1.239,8.945,0.248C658.306,466.151,661.784,462.828,661.182,461.521z"/>
			<path fill="#A57C52" d="M645.229,464.745c0.895-0.888,12.281,0.319,13.521,2.503c1.243,2.187-0.522,6.421-3.31,7.033
				c-2.782,0.605-7.821-1.586-8.473-2.883C646.314,470.094,644.21,465.761,645.229,464.745z"/>
			<path fill="#A57C52" d="M657.964,474.507c-0.47-1.17-11.422-4.521-13.419-3c-2.003,1.519-2.033,6.111,0.291,7.764
				c2.319,1.655,7.813,1.611,8.922,0.671C654.869,478.998,658.503,475.845,657.964,474.507z"/>
			<path fill="#A57C52" d="M641.875,476.976c0.938-0.847,12.253,0.9,13.388,3.141c1.138,2.241-0.826,6.388-3.64,6.865
				c-2.807,0.476-7.735-1.953-8.322-3.28C642.708,482.367,640.811,477.939,641.875,476.976z"/>
			<path fill="#A57C52" d="M654.733,486.14c-0.527-1.146-11.626-3.978-13.548-2.36c-1.927,1.61-1.741,6.197,0.658,7.74
				c2.397,1.543,7.879,1.238,8.944,0.248C651.855,490.771,655.335,487.448,654.733,486.14z"/>
			<path fill="#A57C52" d="M638.778,489.365c0.896-0.888,12.282,0.319,13.521,2.503c1.244,2.186-0.521,6.422-3.309,7.033
				c-2.782,0.605-7.821-1.587-8.471-2.884C639.865,494.714,637.761,490.38,638.778,489.365z"/>
			<path fill="#A57C52" d="M651.516,499.127c-0.472-1.169-11.423-4.521-13.419-3c-2.002,1.519-2.034,6.111,0.291,7.765
				c2.319,1.654,7.813,1.61,8.921,0.669C648.421,503.618,652.056,500.464,651.516,499.127z"/>
			<path fill="#A57C52" d="M635.427,501.595c0.938-0.844,12.252,0.902,13.388,3.142c1.137,2.241-0.826,6.388-3.64,6.865
				c-2.808,0.476-7.735-1.954-8.323-3.279C636.259,506.988,634.36,502.56,635.427,501.595z"/>
			<path fill="#A57C52" d="M634.75,506.814c0.896-0.889,12.283,0.319,13.521,2.502c1.242,2.186-0.522,6.422-3.311,7.032
				c-2.781,0.606-7.819-1.585-8.473-2.883C635.837,512.161,633.734,507.829,634.75,506.814z"/>
			<path fill="#A57C52" d="M647.487,516.575c-0.472-1.169-11.422-4.521-13.42-2.999c-2.001,1.517-2.034,6.11,0.292,7.763
				c2.318,1.656,7.812,1.611,8.922,0.671C644.393,521.066,648.025,517.913,647.487,516.575z"/>
			<path fill="#A57C52" d="M631.397,519.045c0.938-0.847,12.254,0.899,13.389,3.14c1.136,2.24-0.826,6.388-3.641,6.866
				c-2.807,0.475-7.735-1.954-8.323-3.281C632.23,524.436,630.332,520.009,631.397,519.045z"/>
			<path fill="#006837" d="M591.281,262.467c0,0,2.772-27.71,22.924-40.557s37.03-16.371,38.792-9.571
				c1.764,6.8-20.151,16.875-30.856,16.875c0,0,1.635,4.285,6.423,3.276c0,0-16.425,10.775-23.929,10.328l8.563,2.52
				c0,0-17.128,6.802-16.626,20.403C596.572,265.741,595.564,270.025,591.281,262.467z"/>
			<path fill="#006837" d="M589.269,265.235c0,0-24.938-31.153-53.403-27.289c-28.465,3.864-19.396,24.016-19.396,24.016
				s8.061-14.358,21.159-9.068c0,0-11.586,4.532-9.823,9.319c0,0,18.389-5.039,30.228,0c0,0,13.098-6.551,25.693,5.793
				C596.32,280.35,590.917,267.157,589.269,265.235z"/>
			<path fill="#009145" d="M589.017,270.274c0,0-31.489-10.076-55.167,10.076c-23.677,20.153-21.156,44.082-25.691,53.655
				c0,0,15.109-2.016,22.92-33.124c0,0,1.26,17.257-0.503,22.041c0,0,7.809,0.504,10.329-19.648
				c2.518-20.152,7.685-11.838,7.685-11.838s1.638,11.584,0,18.386c0,0,6.42-5.035,6.169-15.615
				c-0.251-10.581,7.053-8.818,7.053-8.818l0.504,9.069c0,0,9.319-7.808,9.068-12.847c0,0,5.287-8.062,15.618-5.29
				C597.329,279.091,589.017,270.274,589.017,270.274z"/>
			<path fill="#009145" d="M585.74,283.876c0,0-33.864,22.926-35.57,48.113c-1.708,25.189,12.396,35.52,12.396,35.52
				s-6.146-12.978-3.938-18.804c0.113-0.303,0.25-0.585,0.413-0.847c3.274-5.29,9.825,9.068,18.893,7.809
				c0,0-12.342-26.196-7.808-33.25c0,0,5.29,5.54,7.556,6.045c0,0-2.52-32.747,9.067-39.295
				C598.336,282.618,588.716,281.714,585.74,283.876z"/>
			<path fill="#39B44A" d="M589.771,289.167c0,0-16.121,39.295,13.855,67.76c0,0-13.146-24.688-9.094-35.518
				c0,0,5.567,6.044,7.33,7.053c1.764,1.009-4.784-24.686,0.252-39.295C602.114,289.167,599.596,278.729,589.771,289.167z"/>
			<path fill="#39B44A" d="M606.146,282.826c0,0,16.624-4.745,28.211,24.225c0,0,3.022-12.847,0-17.633
				c0,0,13.351,14.36,16.121,29.222c0,0,3.278-8.063,1.514-13.854c0,0,6.297,2.519,10.328,38.54c0,0,18.069-67.301-33.756-71.288
				c0,0-13.602-0.907-23.678,1.184C604.886,273.221,599.347,280.767,606.146,282.826z"/>
			<path fill="#009145" d="M600.098,265.489c0,0,10.328-22.418,37.03-25.694s32.495,12.847,32.495,12.847
				s-18.386-6.804-25.945-2.016l9.418,7.305c0,0-13.196,1.513-23.272,0.757l4.239,4.282c0,0-18.48,1.822-30.437,4.786
				C603.626,267.755,598.835,267.804,600.098,265.489z"/>
			<path fill="#8B6239" d="M569.319,276.548c0-5.301,4.297-9.598,9.596-9.598c0.634,0,1.252,0.069,1.849,0.186
				c1.321-3.879,4.956-6.686,9.28-6.686c2.141,0,4.106,0.702,5.721,1.862c1.582-1.158,3.515-1.862,5.621-1.862
				c5.273,0,9.547,4.273,9.547,9.547c0,3.084-1.487,5.8-3.76,7.546c2.28,1.915,3.76,4.751,3.76,7.962
				c0,5.771-4.675,10.446-10.446,10.446c-2.341,0-4.482-0.799-6.224-2.101c-0.786,0.207-1.597,0.355-2.45,0.355
				c-2.278,0-4.344-0.831-5.987-2.161c-0.796,0.267-1.63,0.444-2.514,0.444c-4.078,0-7.4-3.073-7.876-7.019
				C571.861,284.073,569.319,280.617,569.319,276.548z"/>
		</g>
	</g>
	<g>
		<path fill="#FAC067" d="M138.795,516.263c-19.625,0-76.274,9.813-76.274,21.411h154.332
			C216.853,526.969,170.464,516.263,138.795,516.263z"/>
		<g>
			<path fill="#886847" d="M187.436,425.769c0,0-12.455,27.174-9.736,48.462c2.717,21.288,14.72,48.69,12.681,50.275
				c-2.039,1.586-36.688,4.305-44.387,0c-0.001,0-0.08-4.184,0.218-10.895c0.004-0.108,24.808-0.14,24.813-0.247
				c0.005-0.122-24.787-0.319-24.782-0.439c0.173-3.637,0.453-7.965,0.91-12.733c0.01-0.097,19.866,0.839,19.877,0.742
				c0.014-0.148-19.818-1.325-19.804-1.472c0.474-4.801,1.126-10.026,2.026-15.441c0.014-0.078,14.508,2.095,14.521,2.017
				c0.023-0.136-14.436-2.521-14.413-2.657c0.641-3.776,1.401-7.637,2.304-11.501c0.027-0.119,12.721,2.849,12.751,2.726
				c0.02-0.085-12.624-3.258-12.604-3.343c0.887-3.724,1.904-7.446,3.078-11.093c0.063-0.194,11.438,3.372,11.498,3.178
				c0.03-0.088-11.252-3.932-11.224-4.02c1.05-3.198,2.226-6.336,3.533-9.359c0.04-0.092,8.144,3.412,8.184,3.317
				c0.048-0.109-7.966-3.817-7.917-3.927c1.272-2.89,2.675-5.674,4.207-8.304c0.073-0.125,6.302,2.933,6.373,2.81
				c0.058-0.096-6.042-3.372-5.987-3.467c1.274-2.129,2.64-4.155,4.104-6.057c0.046-0.06,6.031,3.367,6.075,3.309
				c0.091-0.115-5.756-3.718-5.666-3.834c3.109-3.932,6.653-7.293,10.697-9.857C178.765,423.958,183.134,419.428,187.436,425.769z"
				/>
			<path fill="#037439" d="M186.545,409.153c0,0,20.591-38.835-35.898-40.818c0,0,34.671,13.262,31.296,48.882
				c0,0,1.525-29.636-25.475-38.522c-27-8.884-41.336,15.788-41.336,15.788s32.993-17.156,62.88,24.142
				c0,0-27.974-35.514-55.833,11.948c0,0,27.485-20.301,57.974-2.904c0,0,25.421-1.142,37.774,32.501c0,0,8.022-18.629-7.804-33.394
				c-15.824-14.763-22.28-8.017-22.28-8.017s41.263-24.014,43.13,21.737c0,0,14.935-19.794,0.851-36.692
				C217.739,386.902,196.335,389.708,186.545,409.153z"/>
			<circle fill="#6E4F30" cx="181.454" cy="425.566" r="7.163"/>
		</g>
		<path fill="#A57C52" d="M89.411,368.503c0,0,20.167,44,15.767,78.47c-4.399,34.469-23.833,78.837-20.534,81.404
			c3.3,2.565,59.402,6.968,71.87,0c0.001,0,0.13-6.775-0.353-17.642c-0.007-0.173-40.169-0.225-40.177-0.401
			c-0.008-0.194,40.134-0.514,40.125-0.71c-0.278-5.889-0.732-12.895-1.473-20.619c-0.015-0.154-32.167,1.358-32.183,1.203
			c-0.023-0.239,32.09-2.145,32.067-2.384c-0.769-7.771-1.824-16.234-3.283-25c-0.022-0.127-23.49,3.391-23.511,3.264
			c-0.036-0.22,23.374-4.084,23.337-4.303c-1.039-6.112-2.269-12.364-3.73-18.619c-0.045-0.196-20.598,4.608-20.646,4.413
			c-0.033-0.14,20.441-5.276,20.41-5.416c-1.436-6.027-3.083-12.055-4.986-17.959c-0.101-0.314-18.517,5.459-18.618,5.145
			c-0.046-0.141,18.22-6.367,18.175-6.506c-1.702-5.183-3.604-10.261-5.721-15.156c-0.065-0.15-13.186,5.522-13.252,5.371
			c-0.076-0.178,12.899-6.182,12.821-6.358c-2.062-4.678-4.33-9.186-6.811-13.447c-0.116-0.198-10.204,4.749-10.32,4.553
			c-0.092-0.157,9.785-5.459,9.693-5.614c-2.061-3.449-4.273-6.729-6.644-9.807c-0.075-0.097-9.763,5.453-9.837,5.357
			c-0.144-0.188,9.322-6.021,9.175-6.207c-5.036-6.368-10.775-11.81-17.323-15.964C103.449,365.57,96.378,358.235,89.411,368.503z"
			/>
		<path fill="#009145" d="M90.854,341.599c0,0-33.341-62.877,58.124-66.091c0,0-56.14,21.475-50.674,79.149
			c0,0-2.468-47.983,41.249-62.373c43.716-14.387,66.93,25.563,66.93,25.563s-53.421-27.78-101.813,39.09
			c0,0,45.295-57.504,90.405,19.343c0,0-44.504-32.868-93.87-4.703c0,0-41.16-1.846-61.163,52.628c0,0-12.988-30.163,12.636-54.07
			c25.621-23.906,36.074-12.982,36.074-12.982s-66.81-38.881-69.836,35.199c0,0-24.179-32.049-1.375-59.413
			C40.346,305.573,75.001,310.115,90.854,341.599z"/>
		<circle fill="#8B6239" cx="99.097" cy="368.176" r="11.597"/>
	</g>
	<g>
		<path fill="#FAC067" d="M665.409,537.561c-15.187-5.245,33.636-25.274,53.358-22.839c19.724,2.437,37.588,14.617,47.332,19.489
			S696.266,548.219,665.409,537.561z"/>
		<g>
			<path fill="#8B6239" d="M732.398,489.029h-0.304v-26.39c0-0.898-0.727-1.625-1.624-1.625h-0.051v-14.921
				c0-0.843-0.65-1.512-1.472-1.593v-18.047c0-0.898-0.727-1.625-1.625-1.625h-0.28v-13.854c0-0.863-0.673-1.547-1.52-1.604v-13.418
				c0-0.785-0.568-1.411-1.309-1.562v-17.623c0-0.747-0.774-1.368-1.827-1.56v-15.492c0-0.897-0.726-1.624-1.623-1.624h-3.626
				c-0.897,0-1.624,0.727-1.624,1.624v15.492c-1.052,0.191-1.827,0.813-1.827,1.56v17.623c-0.742,0.15-1.31,0.774-1.31,1.562v13.418
				c-0.845,0.058-1.52,0.741-1.52,1.604v13.854h-0.282c-0.897,0-1.624,0.727-1.624,1.625v18.047
				c-0.821,0.081-1.472,0.75-1.472,1.593v14.921h-0.052c-0.897,0-1.622,0.727-1.622,1.625v26.39h-0.306
				c-0.897,0-1.624,0.727-1.624,1.625v38.773c0,0.897,0.727,1.624,1.624,1.624h26.897c0.899,0,1.624-0.727,1.624-1.624v-38.773
				C734.022,489.756,733.298,489.029,732.398,489.029z"/>
			<g>
				<path fill="#8BC53F" d="M716.822,334.419c0,0-7.444-22.099,2.56-35.126c10.002-13.027,36.521-11.632,36.521-11.632
					s-6.855,5.129-9.309,5.685l2.93,0.95c0,0-8.788,4.591-12.588,5.146l2.85,1.742c0,0-5.306,3.802-11.638,7.522l4.75,1.027
					c0,0-5.699,3.721-9.103,12.034l2.849-0.158c0,0-5.303,5.065-3.799,12.43C722.846,334.038,719.983,340.023,716.822,334.419z"/>
				<path fill="#8BC53F" d="M722.846,334.038c0,0,13.854-23.59,32.695-23.354s32.145,19.871,36.974,26.759
					c0,0-6.336-0.713-9.581-4.592l0.08,4.592c0,0-10.055-4.988-11.717-9.66l0.158,3.96c0,0-11.322-1.266-14.567-5.145l0.237,3.403
					c0,0-8.865,1.265-15.278-1.03l0.949,1.82c0,0-5.777,3.961-13.299,5.464C729.497,336.256,719.36,342.033,722.846,334.038z"/>
				<path fill="#39B44A" d="M726.329,338.868c0,0,33.796-14.678,47.194,2.781c13.397,17.457,11.165,48.72,11.165,48.72
					s-5.177-8.018-5.583-10.149l-2.132,3.045c0,0-4.669-10.049-4.566-17.966l-2.133,3.654c0,0-7.409-10.658-7.409-14.921
					c0,0-3.654-0.609-3.451,3.045c0,0-9.643-7.512-11.774-12.281l-0.508,3.553c0,0-8.526-6.902-16.646-3.857
					C722.366,347.536,726.329,338.868,726.329,338.868z"/>
				<path fill="#009145" d="M728.863,346.115c0,0,22.938,0.813,33.494,19.184c10.557,18.372,0,49.329,0,49.329l-3.045-9.946
					l-2.437,0.813c0,0,0-11.775,1.32-17.561l-2.293,1.726c0,0-4.102-6.901-4.102-16.748l-2.233,4.061c0,0-7.004-10.252-8.526-17.053
					l-1.521,3.451c0,0-3.959-9.338-11.166-11.368C721.148,349.973,728.863,346.115,728.863,346.115z"/>
				<path fill="#006837" d="M725.361,352.982c0,0,26.681,20.3,27.627,40.061c0.946,19.759-12.992,28.69-12.992,28.69l1.894-9.067
					l-2.692-0.136c0,0,0.797-8.122,4.722-12.451l-3.923,1.218c0,0-1.084-10.15,0.54-13.938l-3.383,1.353
					c0,0-1.671-7.714-2.122-16.781l-1.938,2.302c0,0-3.653-12.995-10.015-15.971C716.717,355.283,725.361,352.982,725.361,352.982z"
					/>
				<path fill="#006837" d="M713.063,355.556c0,0-23.819,9.472-25.038,31.803c-1.218,22.33,14.888,29.638,14.888,29.638
					l-1.489-9.201l2.437,0.134c0,0-4.873-7.982-5.007-11.501l3.383,0.812c0,0-0.271-10.827-0.813-13.67l3.385,2.03
					c0,0,2.163-11.366,0.676-13.533l2.302,0.676c0,0,1.895-10.149,8.525-13.263C716.311,359.479,719.83,355.826,713.063,355.556z"/>
				<path fill="#009145" d="M711.168,348.381c0,0-37.759,1.626-45.474,26.662c-7.714,25.036,5.55,43.307,5.55,43.307l1.759-12.992
					l3.52,2.571l-0.407-16.782l3.655,0.272l3.113-15.835l3.517,2.57c0,0,5.551-14.302,9.204-16.42l0.947,2.887
					c0,0,9.337-10.421,16.104-9.743C712.656,354.878,719.287,348.11,711.168,348.381z"/>
				<path fill="#39B44A" d="M711.98,339.043c0,0-38.031-10.285-51.698,3.519c-13.668,13.805-15.699,25.577-13.128,48.45l6.09-10.64
					l1.76,5.093c0,0,6.359-12.587,6.496-17.729l1.784,3.788c0,0,9.314-12.18,11.073-17.053l1.218,3.52
					c0,0,9.203-4.873,17.729-12.451l-0.406,3.925c0,0,10.15-4.602,19.082-2.707C711.98,346.757,720.645,344.186,711.98,339.043z"/>
				<path fill="#8BC53F" d="M717.225,335.068c0,0-13.771-25.049-37.049-22.852c-23.276,2.195-40.331,22.768-43.714,27.369
					c0,0,6.495-0.543,11.233-3.519l-0.406,3.519c0,0,11.418-4.739,15.995-9.069v4.061c0,0,12.206-3.652,17.729-6.359l-2.596,4.059
					c0,0,14.479,0.407,20.029-1.217l-1.625,2.036c0,0,9.5-0.547,17.336,6.49c7.836,7.036,0-0.543,0-0.543
					S722.066,340.026,717.225,335.068z"/>
			</g>
			<path fill="#A57C52" d="M730.392,345.624c0-0.753-0.182-1.457-0.48-2.093c0.756-1.129,1.2-2.486,1.2-3.947
				c0-3.918-3.176-7.095-7.093-7.095c-1.871,0-3.562,0.739-4.83,1.925c-0.713-0.249-1.467-0.411-2.266-0.411
				c-3.811,0-6.897,3.069-6.941,6.871c-1.314,1.351-2.131,3.188-2.131,5.22c0,1.978,0.781,3.764,2.034,5.103
				c-0.984,1.293-1.591,2.887-1.591,4.636c0,4.247,3.443,7.689,7.69,7.689c0.655,0,1.281-0.106,1.887-0.261
				c0.898,0.625,1.984,0.998,3.161,0.998c3.062,0,5.543-2.482,5.543-5.542c0-0.211-0.04-0.409-0.062-0.613
				c2.557-0.952,4.387-3.395,4.387-6.283c0-1.401-0.432-2.703-1.166-3.779C730.141,347.323,730.392,346.507,730.392,345.624z"/>
		</g>
	</g>
</g>
</svg>
