<?xml version="1.0" encoding="utf-8"?>
<!-- Generator: Adobe Illustrator 16.0.0, SVG Export Plug-In . SVG Version: 6.00 Build 0)  -->
<!DOCTYPE svg PUBLIC "-//W3C//DTD SVG 1.1//EN" "http://www.w3.org/Graphics/SVG/1.1/DTD/svg11.dtd">
<svg version="1.1" id="Calque_1" xmlns="http://www.w3.org/2000/svg" xmlns:xlink="http://www.w3.org/1999/xlink" x="0px" y="0px"
	 width="800px" height="800px" viewBox="0 0 800 800" enable-background="new 0 0 800 800" xml:space="preserve">
<g>
	<defs>
		<rect id="SVGID_1_" width="800" height="800"/>
	</defs>
	<clipPath id="SVGID_2_">
		<use xlink:href="#SVGID_1_"  overflow="visible"/>
	</clipPath>
	<g clip-path="url(#SVGID_2_)">
		<defs>
			<rect id="SVGID_3_" width="800" height="800"/>
		</defs>
		<clipPath id="SVGID_4_">
			<use xlink:href="#SVGID_3_"  overflow="visible"/>
		</clipPath>
		
			<linearGradient id="SVGID_5_" gradientUnits="userSpaceOnUse" x1="0" y1="800" x2="1" y2="800" gradientTransform="matrix(38.9981 443.9778 443.9778 -38.9981 -354815.2188 31221.4414)">
			<stop  offset="0" style="stop-color:#B2FBFF"/>
			<stop  offset="0.215" style="stop-color:#B7FBFF"/>
			<stop  offset="0.452" style="stop-color:#C4FCFF"/>
			<stop  offset="0.6995" style="stop-color:#DAFDFF"/>
			<stop  offset="0.9527" style="stop-color:#F8FFFF"/>
			<stop  offset="1" style="stop-color:#FFFFFF"/>
		</linearGradient>
		<polygon clip-path="url(#SVGID_4_)" fill="url(#SVGID_5_)" points="793.875,-69.732 869.732,793.875 6.125,869.732 -69.732,6.125 
					"/>
	</g>
	<g clip-path="url(#SVGID_2_)">
		<defs>
			<path id="SVGID_6_" d="M86.601,365.523C72.417,384.037,61.333,404.94,44.22,421.15C31.801,432.912,2.388,415.7,0,414.271v272.305
				h800V467.554c0-21.85-0.354-38.159,0-54.985c-2.047-5.412-4.918-12.376-6.789-17.852c-1.693-3.222-3.416-6.454-5.211-9.717
				c-13-22-54.425-28.408-74.425-13.408C689.575,388.592,681,409,660,429c-0.435,0.376-0.876,0.746-1.321,1.111
				c-17.481,20.877-45.731,24.495-72.256,12.725c-18.117-8.04-38.631-29.939-54.339-42.836
				c-13.296-10.916-30.917-19.238-47.396-14.909c-19.28,5.064-43.268,32.981-60.998,43.498
				c-26.772,15.879-58.551,9.387-86.263-0.042c-55.529-18.896-79.253-76.383-124.833-106.447
				c-13.108-8.646-26.136-12.351-38.769-12.352C140.048,309.745,109.052,336.217,86.601,365.523"/>
		</defs>
		<clipPath id="SVGID_7_">
			<use xlink:href="#SVGID_6_"  overflow="visible"/>
		</clipPath>
		
			<linearGradient id="SVGID_8_" gradientUnits="userSpaceOnUse" x1="0" y1="800.001" x2="1" y2="800.001" gradientTransform="matrix(0 277.3036 277.3036 0 -221442.9219 301)">
			<stop  offset="0" style="stop-color:#8FBFC2"/>
			<stop  offset="0.2038" style="stop-color:#93C2C5"/>
			<stop  offset="0.4262" style="stop-color:#A1CBCE"/>
			<stop  offset="0.6573" style="stop-color:#B6DBDE"/>
			<stop  offset="0.893" style="stop-color:#D5F0F3"/>
			<stop  offset="1" style="stop-color:#E5FCFF"/>
		</linearGradient>
		<rect y="309.745" clip-path="url(#SVGID_7_)" fill="url(#SVGID_8_)" width="800" height="376.831"/>
	</g>
	<g clip-path="url(#SVGID_2_)">
		<defs>
			<rect id="SVGID_9_" width="800" height="800"/>
		</defs>
		<clipPath id="SVGID_10_">
			<use xlink:href="#SVGID_9_"  overflow="visible"/>
		</clipPath>
		<path clip-path="url(#SVGID_10_)" fill="#A1B51D" d="M0,743.824v-266.42c22.204,1.65,41.357,21.366,59.792,30.502
			c34.983,17.337,78.546-30.683,109.179-51.527c26.299-17.895,70.576-45.637,103.626-47.688
			c30.103-1.869,59.608,3.021,94.495,14.634c40.419,13.455,72.917,39.307,109.46,59.864c25.17,14.16,54.229,37.777,82.531,45.896
			c27.734,7.955,73.061,9.202,93.672-0.502c29.987-14.118,33.199-20.366,60.82-36.996c29.916-18.012,52.616-17.435,86.425-16.499
			V800H0V743.824z"/>
		<path clip-path="url(#SVGID_10_)" fill="#595959" d="M596,749c60.648-35.382,144.395-94.433,127-159
			c-7.925-29.418-55.18-43.932-99.14-49.103c-6.429-0.758-21.333-2.155-27.366-5.857c-8.788-0.544-17.493-1.611-25.446-3.137
			c-4.236-0.813-8.258-1.756-11.965-2.819c-5.808-1.666-11.646-3.991-17.478-6.747C568.41,545.496,605.899,548.784,640,558
			c29,7,68,29,51,60c-20,34-52.92,59.076-86.92,79.076c-33,19-40.498,25.498-87.337,43.518c-20.66,7.948-65.64,24.027-96.247,32.509
			C378.979,784.609,363.176,793.071,321,800h148.587C501.724,787.732,540.896,781.148,596,749"/>
		<path clip-path="url(#SVGID_10_)" fill="none" stroke="#FFFFFF" stroke-miterlimit="10" stroke-dasharray="8,8" d="M564,742.5
			c56.047-53.311,166.25-93,143.75-152.75c-11.973-31.794-61.696-36.356-104.713-46.781c-6.996-1.695-20.077-6.342-26.109-10.044"/>
		<path clip-path="url(#SVGID_10_)" fill="#C0D923" d="M0,587.581c0,0,34.574-51.31,163.102-72.5
			c115.219-18.995,253.611,24.502,340.142,72.721c41.467,23.107,134.012,46.509,190.832,52.801C757.073,647.578,800,646,800,646v154
			H0V587.581z"/>
	</g>
	<g clip-path="url(#SVGID_2_)">
		<defs>
			<rect id="SVGID_11_" width="800" height="800"/>
		</defs>
		<clipPath id="SVGID_12_">
			<use xlink:href="#SVGID_11_"  overflow="visible"/>
		</clipPath>
		<path clip-path="url(#SVGID_12_)" fill="#FFFFFF" d="M770.231,86.786c-5.041-9.245-14.847-15.518-26.118-15.518
			c-2.451,0-4.825,0.315-7.104,0.875c-3.419-15.927-17.572-27.869-34.521-27.869c-14.125,0-26.309,8.296-31.956,20.278
			c-1.6-0.266-3.236-0.42-4.91-0.42c-10.674,0-20.028,5.628-25.271,14.076c-3.484-2.849-7.935-4.562-12.786-4.562
			c-6.734,0-12.684,3.307-16.357,8.371c-13.374,0.476-24.077,11.439-24.077,24.928c0,0.046,0,0.092,0,0.138
			c0.055,10.473,8.681,18.891,19.154,18.891h163.863c10.47,0,19.081-8.411,19.154-18.879c0-0.05,0.001-0.1,0.001-0.15
			C789.305,96.167,780.861,87.383,770.231,86.786"/>
		<path clip-path="url(#SVGID_12_)" fill="#E5FCFF" d="M770.232,86.786c-2.203-4.039-5.315-7.51-9.062-10.139
			c-0.091,3.955-0.869,7.911-2.846,11.866c8.324-1.189,16.648,7.136,11.892,13.082c-5.946,8.325-20.217,5.946-22.596-3.568v3.568
			c-5.946,2.379-13.081,2.379-17.838-2.378c-3.568-3.568-1.19-9.514-1.19-14.271c-8.324,16.649-22.595,20.217-38.056,11.892
			c-2.378-1.189-4.757-4.757-4.757-9.514c0,4.757-3.567,8.325-5.946,9.514c-10.703,4.757-22.596-2.378-33.299,7.136
			c-3.568,3.567-9.514,1.189-14.271-2.379v-3.568c-7.135,9.514-16.648,15.461-28.542,9.514c-5.414-2.165-13.782-6.304-12.544-14.209
			c-2.557,3.913-4.046,8.587-4.046,13.613c0,0.046,0,0.092,0,0.138c0.055,10.473,8.681,18.891,19.154,18.891H770.15
			c10.469,0,19.08-8.411,19.153-18.879c0-0.05,0-0.1,0-0.15C789.304,96.166,780.862,87.383,770.232,86.786"/>
		<path clip-path="url(#SVGID_12_)" fill="#FFFFFF" d="M554.873,226.243c-0.421-6.947-5.663-12.806-12.518-14.01
			c-1.933-0.339-3.804-0.29-5.568,0.055c-0.783-5.091-3.361-9.588-7.064-12.833c1.932-3.355,2.986-7.278,2.836-11.461
			c-0.401-11.166-9.546-20.278-20.714-20.638c-9.595-0.309-17.831,5.691-20.881,14.166c-1.824-0.504-3.744-0.78-5.728-0.78
			c-7.224,0-13.606,3.576-17.49,9.05c-0.268-0.032-0.317-0.037-0.584-0.069c-0.832-2.097-1.824-4.113-2.974-6.024
			c1.74-3.273,2.586-7.096,2.197-11.143c-0.896-9.351-8.487-16.853-17.849-17.643c-7.611-0.643-14.407,3.059-18.195,8.894
			c-0.458-0.015-0.914-0.035-1.375-0.035c-0.581,0-1.155,0.02-1.729,0.044c-5.981-4.512-13.423-7.189-21.492-7.189
			c-10.83,0-20.526,4.825-27.078,12.434c-2.796-1.656-6.057-2.609-9.542-2.609c-10.358,0-18.756,8.397-18.756,18.756
			c0,0.48,0.024,0.955,0.06,1.427c-1.753-0.348-3.564-0.534-5.419-0.534c-15.072,0-27.322,12.045-27.671,27.032
			c-1.244,0.22-2.434,0.591-3.554,1.094c-0.665,0.259-1.312,0.552-1.939,0.878c-3.064-2.691-7.158-4.239-11.617-3.964
			c-8.049,0.496-14.579,7.062-15.034,15.114c-0.005,0.089-0.009,0.178-0.013,0.266c-0.232,5.741,4.442,10.49,10.187,10.49H544.7
			c5.77,0,10.454-4.789,10.185-10.552C554.881,226.387,554.877,226.314,554.873,226.243"/>
		<path clip-path="url(#SVGID_12_)" fill="#E5FCFF" d="M554.873,226.243c-0.42-6.947-5.663-12.806-12.518-14.01
			c-1.933-0.339-3.804-0.29-5.568,0.055c-0.783-5.091-3.361-9.588-7.064-12.833c1.932-3.355,2.986-7.278,2.836-11.461
			c-0.094-2.591-0.675-5.063-1.625-7.35c-1.343,3.836-3.224,7.382-5.884,10.375c-2.017,1.008,3.026,6.051,4.034,8.068
			c1.009,3.026,4.035,9.077-1.008,12.103c6.051,2.017,12.103,9.077,7.06,13.111c-12.103,9.077-33.281,7.06-41.351-8.069
			c-5.043,8.069-14.119,9.077-21.179,5.043c-6.053-3.025-14.12-8.068-12.104-16.137c-8.067,11.094-23.197,14.12-36.308,11.094
			c-11.094-3.025-20.171-8.068-29.248-14.119c-2.017,5.042-6.051,5.042-10.085,7.06c-6.052,3.025-12.103-2.018-15.129-7.06
			c0,10.085-9.076,16.137-16.136,19.162c-7.06,3.026-21.18,1.009-26.223-8.068c-5.042,14.119-20.171,25.213-31.265,14.119
			c-3.281-3.281-4.184-9.23-2.398-14.312c-4.808,2.581-8.193,7.531-8.516,13.241c-0.005,0.089-0.009,0.178-0.013,0.266
			c-0.232,5.741,4.442,10.49,10.187,10.49H544.7c5.77,0,10.454-4.789,10.185-10.552
			C554.881,226.387,554.877,226.314,554.873,226.243"/>
		<path clip-path="url(#SVGID_12_)" fill="#4F752F" d="M39.625,339.119c3.609,21.252,29.212,20.743,34.827,6.436
			c10.904,5.6,37.687,2.942,42.37-9.863c8.702,2.714,23.37,9.139,30.852,1.118c-0.302,10.295,3.264,22.728,10.157,29.903
			c3.821,3.978,13.206,9.668,22.691,9.261c8.171-0.351,15.992-4.373,15.992-4.373s8.647,5.558,14.106,6.003
			c7.966,0.649,21.083-2.146,27.437-7.245c9.706-7.79,14.964-26.547,7.661-37.25c11.359-10.238,18.176-21.675,16.469-37.533
			c-3.308-30.716-24.159-37.132-24.159-37.132s16.04-34.218-15.064-54.663c-13.099-8.609-35.148-11.553-48.346-3.008
			c-4.368-13.608-19.461-22.527-36.547-22.527c-12.855,0-23.348,5.778-33.303,11.928c-12.352,7.628-9.809,20.233-9.809,20.233
			s-26.979-4.706-40.863,10.976c-8.967,10.129-17.304,27.175-9.603,40.565C3.147,265.649-10.789,339.201,39.625,339.119"/>
		<g opacity="0.25" clip-path="url(#SVGID_12_)">
			<g>
				<defs>
					<rect id="SVGID_13_" x="7.298" y="189" width="241.395" height="188.697"/>
				</defs>
				<clipPath id="SVGID_14_">
					<use xlink:href="#SVGID_13_"  overflow="visible"/>
				</clipPath>
				<path clip-path="url(#SVGID_14_)" fill="#4F752F" d="M248.446,300.004c-3.129-29.06-22.856-35.13-22.856-35.13
					s15.175-32.373-14.252-51.716c-12.393-8.146-33.253-10.93-45.739-2.846C161.467,197.438,147.187,189,131.022,189
					c-12.162-0.001-22.09,5.467-31.508,11.284c-11.685,7.218-9.281,19.144-9.281,19.144s-25.524-4.453-38.659,10.384
					c-1.76,1.987-3.492,4.26-5.07,6.721c19.458-17.146,50.559-7.715,72.103,7.097c8.346,5.311,12.898,15.175,15.175,25.039
					c8.346-4.553,16.692-12.899,26.556-8.346c6.07,3.035,10.623,12.14,5.312,19.727c7.587,2.276,16.692,9.105,15.175,18.969
					c-2.276,9.864-14.416,9.864-21.245,6.829c-5.311-2.276-9.104-9.105-9.104-15.934c-3.794,3.035-8.346,3.035-12.14,1.518
					c-3.793-1.518-5.311-6.07-4.552-9.864c-12.14,9.864-24.28-2.276-27.315-14.416c-3.793,11.381-15.934,18.21-27.314,22.003
					c-5.312,1.518-10.623-2.276-13.658-6.829c0.759,3.793-0.759,7.587-2.276,10.623c-2.276,3.035-6.07,6.07-9.864,3.035
					c0,3.035,0,6.07-2.276,7.587c-2.276,0.759-4.552,0-5.311-3.035c-4.553,9.864-16.692,9.105-25.797,8.346
					c-5.248-0.404-9.421-3.386-11.493-7.573c-4.473,19.343,3.448,39.933,29.405,39.89c3.415,20.106,27.638,19.625,32.949,6.09
					c10.316,5.298,35.655,2.783,40.085-9.332c8.233,2.568,22.111,8.646,29.188,1.057c-0.286,9.741,3.088,21.503,9.61,28.291
					c3.616,3.763,12.494,9.146,21.468,8.761c7.731-0.331,15.13-4.136,15.13-4.136s8.181,5.258,13.346,5.68
					c7.536,0.614,19.946-2.031,25.957-6.855c9.183-7.369,14.158-25.116,7.249-35.241
					C243.611,325.828,250.062,315.006,248.446,300.004"/>
			</g>
		</g>
		<g opacity="0.5" clip-path="url(#SVGID_12_)">
			<g>
				<defs>
					<rect id="SVGID_15_" x="9.821" y="178.036" width="253.396" height="199.661"/>
				</defs>
				<clipPath id="SVGID_16_">
					<use xlink:href="#SVGID_15_"  overflow="visible"/>
				</clipPath>
				<path clip-path="url(#SVGID_16_)" fill="#4F752F" d="M262.955,295.49c-3.311-30.748-24.185-37.171-24.185-37.171
					s16.057-34.254-15.08-54.721c-13.113-8.619-35.185-11.565-48.396-3.011c-4.372-13.623-19.482-22.551-36.585-22.551
					c-8.25-0.001-15.527,2.383-22.315,5.711c7.14,0.235,14.297,2.646,20.417,7.135c13.648,9.633,23.282,25.69,24.085,42.55
					c8.831-13.648,25.69-22.479,40.944-14.451c12.042,7.225,24.085,23.282,16.057,37.732c-3.211,5.621-10.437,9.634-16.859,12.043
					c15.253-0.803,23.282,12.042,25.691,25.69c0.802,5.62-4.817,10.437-4.015,12.845c3.211,15.254,3.211,34.522-15.254,38.536
					c-6.422,0.803-13.648-0.802-16.056-8.028c-7.226,5.62-18.465,5.62-24.888-0.803c-5.218-3.913-7.256-10.477-7.407-17.107
					c0.31-1.959,0.399-4.006,0.181-6.174c-8.028,4.014-18.465,5.62-27.296,0c-4.014-3.211-7.225-8.831-3.211-13.648
					c-8.831,1.605-18.465-4.015-16.057-13.648c-4.014,6.423-5.62,14.451-12.042,19.268c-7.225,4.817-20.874,12.043-25.69,1.606
					c-0.802,4.817-4.816,9.634-10.437,8.028c3.212,6.422,8.831,18.465,1.605,21.676c-12.042,5.62-18.465-11.239-17.662-20.873
					c-5.62,12.845-20.071,12.042-31.31,8.831c-2.993-1.089-5.42-2.833-7.369-4.994c3.89,11.005,13.542,19.146,30.336,19.118
					c3.613,21.275,29.244,20.766,34.863,6.444c10.917,5.606,37.728,2.944,42.415-9.875c7.821,2.44,20.455,7.867,28.375,3.139
					c0.192-0.115,0.38-0.238,0.567-0.364c0.061-0.041,0.12-0.083,0.181-0.125c0.155-0.111,0.31-0.224,0.461-0.343
					c0.109-0.085,0.215-0.176,0.322-0.266c0.11-0.094,0.222-0.185,0.33-0.284c0.221-0.202,0.438-0.413,0.649-0.639
					c-0.016,0.537-0.018,1.08-0.01,1.628c0.094,9.962,3.635,21.498,10.178,28.307c3.826,3.981,13.22,9.678,22.715,9.271
					c8.181-0.35,16.01-4.377,16.01-4.377s8.657,5.564,14.122,6.01c7.974,0.649,21.106-2.149,27.465-7.253
					c9.717-7.797,14.98-26.576,7.67-37.289C257.839,322.813,264.665,311.364,262.955,295.49"/>
			</g>
		</g>
		<g opacity="0.25" clip-path="url(#SVGID_12_)">
			<g>
				<defs>
					<rect id="SVGID_17_" y="477.404" width="125.727" height="322.596"/>
				</defs>
				<clipPath id="SVGID_18_">
					<use xlink:href="#SVGID_17_"  overflow="visible"/>
				</clipPath>
				<path clip-path="url(#SVGID_18_)" fill="#A1B51D" d="M104,552c-5.123-14.727-13.121-29.04-24.246-40.584
					c-6.854,0.642-13.552-0.333-19.962-3.51C41.357,498.77,22.204,479.054,0,477.404v266.42V800h110.971
					c1.921-18.123,3.28-36.632,7.029-55C133,679,125,614,104,552"/>
			</g>
		</g>
		<g opacity="0.25" clip-path="url(#SVGID_12_)">
			<g>
				<defs>
					<rect id="SVGID_19_" x="747.651" y="474.714" width="52.349" height="325.286"/>
				</defs>
				<clipPath id="SVGID_20_">
					<use xlink:href="#SVGID_19_"  overflow="visible"/>
				</clipPath>
				<path clip-path="url(#SVGID_20_)" fill="#A1B51D" d="M800,475.087c-20.091-0.557-36.259-0.985-52.349,2.538
					C767.191,488.42,780.199,511.167,781,532c3.432,89.229-4.896,179.193,4.664,268H800V475.087z"/>
			</g>
		</g>
		<g opacity="0.25" clip-path="url(#SVGID_12_)">
			<g>
				<defs>
					<rect id="SVGID_21_" x="279.796" y="422.346" width="424.464" height="377.654"/>
				</defs>
				<clipPath id="SVGID_22_">
					<use xlink:href="#SVGID_21_"  overflow="visible"/>
				</clipPath>
				<path clip-path="url(#SVGID_22_)" fill="#A1B51D" d="M641,724c17-35,26-72,54-101c19-21,7-57-20-66c-30-10-63-3-93-14
					c-5-2-10-5-15-9c-2.179-1.452-4.28-2.956-6.343-4.485c-0.527-0.143-1.061-0.282-1.574-0.431
					c-28.302-8.118-57.361-31.736-82.531-45.896c-36.543-20.558-69.041-46.409-109.46-59.863c-1.016-0.339-2.013-0.652-3.021-0.979
					C377.424,435.428,386.932,452.692,391,471c7,30,11,59,4,88c-14,51-44,92-69,138c-18.559,34.333-30.236,68.667-46.204,103
					h325.723c4.397-7.738,9.075-15.191,14.481-23C632,760,633,741,641,724"/>
			</g>
		</g>
		<path clip-path="url(#SVGID_12_)" fill="#595959" d="M611,688c42.125-25.127,82.079-36.132,129.025-43.401
			c-7.859-0.668-37.196-3.026-45.949-3.997c-27.433-3.036-63.189-10.063-97.506-19.117c-31.682,0.085-63.065,1.242-93.57,12.516
			c-17,5-32,13-47,22c-41,23-69,58-110,82c-49,30-103,40-157,56c-7,2-14.034,2.468-21.034,4.468
			c-2.375,0.625-5.19,1.334-8.048,1.532h339.684C535.263,761.142,564.029,715.068,611,688"/>
		<path clip-path="url(#SVGID_12_)" fill="#826453" d="M155,547c12.91-35.787-26.924-66.447-40.498-95.502
			C107.517,436.548,102.589,419.557,101,403c-2.071-21.588,12.327-33.509,13.548-50.452c1.427-19.801-25.94-35.5-31.748-54.95
			c2.483,1.18,4.388,0.418,4.388,0.418s11.713,27.85,27.51,24.682c2.423-21.559,14.656-32.49,18.04-40.819
			c0.28,1.126,4.601,4.533,5.561,5.068c-6.611,3.905-12.589,11.069-13.093,17.694c7.792,4.047,37.464,2.225,40.232-12.933
			c-0.165,6.568-0.165,6.568,6.861,7.442c-14.314,7.976-32.794,13.962-48.95,12.152c-13.157,28.613,14.038,35.693,39.651,37.744
			c12.831,1.028,30.138-2.92,37.02-14.023c6.969-11.244,2.733-27.897-4.034-34.404c-2.211-2.126,1.822-4.425,1.822-4.425
			s1.519,8.809,6.507,8.589c4.947-0.218,1.301-9.109,5.176-9.766c4.194,14.731-5.957,14.731-0.142,33.681
			c16.83,20.594,29.583-15.586,21.254-32.244c0.526,0.299,3.394-0.314,3.814,1.542c3.474,15.377,5.267,9.777,5.748,2.159
			c0.082-1.305,2.163,0.891,2.533,1.147c1.18,11.55-5.067,11.29-5.067,11.29s1.301,13.534-14.916,28.408
			c7.077,4.664,15.595,2.445,22.603-2.297c1.316-0.891,1.423-14.138,1.423-14.138l3.123,1.822c0,0-1.835,17.73,4.945,7.027
			c0.883-1.393,0-6.767,1.636-6.261c8.889,16.846-24.54,25.002-39.637,17.974c-8.675-4.039-9.165-4.073-21.603,3.384
			c-9.772,5.858-19.964,9.977-32.014,10.931c-9.545,0.756-20.094-1.392-27.707,1.907c-13.072,5.665-18.917,24.99-18.523,37.697
			c1.036,33.42,33.846,49.546,49.206,75.347c18.1,30.403,16.842,66.979,34.325,98.487c-15.397-1.159-16.903-12.728-33.556-9.364
			c-13.228,2.673-24.046,18.878-36.99,13.73c4.63-6.046,9.93-10.397,16.837-12.595c-2.575-2.625-7.278-10.092-11.178-13.363
			C141.856,550.501,151.175,546.63,155,547"/>
		<g opacity="0.35" clip-path="url(#SVGID_12_)">
			<g>
				<defs>
					<rect id="SVGID_23_" x="109.677" y="355.368" width="318.348" height="306.551"/>
				</defs>
				<clipPath id="SVGID_24_">
					<use xlink:href="#SVGID_23_"  overflow="visible"/>
				</clipPath>
				<g opacity="0.5" clip-path="url(#SVGID_24_)">
					<g>
						<defs>
							<rect id="SVGID_25_" x="130.104" y="509.565" width="297.92" height="152.354"/>
						</defs>
						<clipPath id="SVGID_26_">
							<use xlink:href="#SVGID_25_"  overflow="visible"/>
						</clipPath>
						<path clip-path="url(#SVGID_26_)" fill="#4F752F" d="M130.104,578.581c8.592,15.354,35.641-10.367,45.745,11.943
							c9.868,21.79-22.208,24.029-35.048,30.354c2.405,3.249,7.742,2.893,9.564,5.504c0.453,0.649,4.731,8.858,5.155,9.278
							c8.972,8.888,7.098,7.675,21.716,7.361c20.676-0.444,28.085,14.84,46.995,18.09c13.14,2.257,27.09-1.935,40.056-1.55
							c12.948,0.385,22.491,4.881,35.498,0.343c12.676-4.421,20.723-11.765,34.573-12.321c20.134-0.811,36.055,3.592,56.08-3.69
							c25.582-9.302,48.677-49.545,31.852-75.812c-7.354-11.481-23.031-22.959-34.952-29.248
							c-23.92-12.622-50.947-17.115-77.355-20.289c-12.534-1.507-25.351-3.957-38.153-5.814
							c-11.141-1.616-24.313-2.895-35.231-3.146c-11.666-0.268-23.677,2.129-31.272,10.456c-9.31,10.21-10.125,10.777-24.083,16.504
							C162.506,544.232,146.776,560.015,130.104,578.581"/>
					</g>
				</g>
				<g opacity="0.35" clip-path="url(#SVGID_24_)">
					<g>
						<defs>
							<rect id="SVGID_27_" x="109.677" y="355.368" width="90.815" height="222.869"/>
						</defs>
						<clipPath id="SVGID_28_">
							<use xlink:href="#SVGID_27_"  overflow="visible"/>
						</clipPath>
						<path clip-path="url(#SVGID_28_)" fill="#826453" d="M123,361c-31,37-2,82,27,113c14,16,24,38,19,60c-3,12-10,23-18,32
							c-4.981,4.566-10.658,8.608-16.732,12.212c11.102,0.673,20.938-12.327,32.668-14.696c16.653-3.363,18.159,8.205,33.556,9.364
							c-17.483-31.509-16.225-68.084-34.325-98.487c-15.36-25.801-48.17-41.927-49.206-75.347
							c-0.394-12.707,5.451-32.032,18.523-37.697c7.613-3.299,18.162-1.151,27.707-1.907c0.141-0.011,0.279-0.028,0.42-0.04
							C148.971,358.823,132.576,349.683,123,361"/>
					</g>
				</g>
			</g>
		</g>
		<g opacity="0.35" clip-path="url(#SVGID_12_)">
			<g>
				<defs>
					<rect id="SVGID_29_" x="86.805" y="281.879" width="171.12" height="71.265"/>
				</defs>
				<clipPath id="SVGID_30_">
					<use xlink:href="#SVGID_29_"  overflow="visible"/>
				</clipPath>
				<path clip-path="url(#SVGID_30_)" fill="#826453" d="M256.445,327.153c-1.635-0.506-0.752,4.868-1.635,6.262
					c-6.781,10.703-4.946-7.028-4.946-7.028l-3.123-1.822c0,0-0.107,13.248-1.423,14.138c-7.008,4.742-15.526,6.961-22.603,2.297
					c16.218-14.873,14.916-28.408,14.916-28.408s6.247,0.26,5.067-11.289c-0.37-0.256-2.451-2.452-2.533-1.148
					c-0.481,7.618-2.274,13.218-5.748-2.159c-0.42-1.856-3.288-1.242-3.813-1.541c8.329,16.658-4.425,52.837-21.255,32.243
					c-5.815-18.95,4.336-18.95,0.143-33.681c-3.875,0.657-0.229,9.549-5.177,9.767c-4.988,0.22-6.507-8.59-6.507-8.59
					s-4.032,2.3-1.822,4.425c6.768,6.507,11.004,23.161,4.034,34.404c-6.882,11.103-24.188,15.051-37.02,14.024
					c-25.613-2.051-52.807-9.131-39.651-37.744c16.156,1.81,34.636-4.177,48.95-12.153c-7.026-0.873-7.026-0.873-6.861-7.442
					c-2.768,15.158-32.44,16.98-40.232,12.933c0.504-6.625,6.482-13.789,13.093-17.694c-0.959-0.534-5.281-3.942-5.561-5.068
					c-3.384,8.329-15.617,19.261-18.04,40.819c-15.797,3.169-27.509-24.682-27.509-24.682s-0.141,0.054-0.384,0.11
					C90.776,311.536,102.096,327,116,327c-1,7,3,14,8,17c28,15,61,11,86-8c5.363,8.289,15.008,11.339,25.452,11.37
					C249.289,345.866,262.417,338.47,256.445,327.153"/>
			</g>
		</g>
		<path clip-path="url(#SVGID_12_)" fill="#FFFFFF" d="M351.685,801.829l-1.62-3.658c0.11-0.048,11.158-4.953,25.208-12.104
			l1.815,3.564C362.935,796.835,351.796,801.779,351.685,801.829 M401.818,776.175l-2.025-3.449
			c9.396-5.517,17.175-10.678,23.124-15.34l2.468,3.149C419.297,765.306,411.367,770.568,401.818,776.175 M446.653,742.106
			l-2.676-2.973c6.21-5.588,12.512-11.376,18.606-16.974l2.071-1.902l2.705,2.947l-2.07,1.901
			C459.188,730.71,452.878,736.506,446.653,742.106 M488.667,704l-3.245-2.587c8.279-7.35,15.308-13.286,21.485-18.148L510.5,686
			C504.384,690.813,496.886,696.702,488.667,704 M533.5,670l-3.293-2.714c8.044-4.74,15.841-8.814,24.46-12.619l4.333,2.5
			C550.523,660.908,541.408,665.339,533.5,670 M586,647.667l-4.833-2.333c9.339-2.886,17.455-4.645,26.333-6.167l4.5,2.333
			C603.291,642.995,595.175,644.832,586,647.667 M638.167,637.667l-6-2.167c10.82-1.006,14.251-1.773,18.833-1.833l6,1.333
			C656.917,635.005,648.914,636.669,638.167,637.667"/>
		<path clip-path="url(#SVGID_12_)" fill="#FFFFFF" d="M143.874,91.706C143.95,91.159,144,90.595,144,90
			C143.939,90.583,143.902,91.149,143.874,91.706"/>
		<path clip-path="url(#SVGID_12_)" fill="#4F752F" d="M217.1,592.081c-33.403,15.318-42.256-51.226-12.226-39.19
			c-0.703-16.019,22.093-49.593,39.267-31.798c4.626-23.02,47.69-40.222,57.302-11.593c13.768-19.952,52.017-16.289,52.307,11.666
			c25.565-16.914,43.517,14.073,31.913,36.225c11.863-5.652,17.149,14.072,15.923,23.024c-1.509,11.009-10.65,18.987-21.051,22.957
			c-25.442,9.708-35.941-5.291-35.941-5.291s-19.499,19.499-41.587,0.12c-8.777,10.005-33.416,25.465-45.551,15.361
			c-0.007,16.168-33.178,5.302-31.506-13.494C216.438,606.937,213.667,597.167,217.1,592.081"/>
		<g opacity="0.25" clip-path="url(#SVGID_12_)">
			<g>
				<defs>
					<rect id="SVGID_31_" x="186.55" y="497.063" width="215.208" height="124.367"/>
				</defs>
				<clipPath id="SVGID_32_">
					<use xlink:href="#SVGID_31_"  overflow="visible"/>
				</clipPath>
				<path clip-path="url(#SVGID_32_)" fill="#4F752F" d="M385.662,557.391c11.604-22.152-6.347-53.138-31.912-36.225
					c-0.155-14.945-11.161-22.941-23.474-24.104c1.701,0.838,3.3,1.799,4.724,2.938c8,6,15,16,9,26c-1,1-3,2-4,5c6-1,7,4,10,8
					c4,5,5,16-4,19c-5,1-10,0-13-5c-1,15-18,13-26,7c-6-4-10-9-16-13c-4,8-15,7-18,11c-6,5-16,16-26,11c-3-1-7-3-8-6c-4-5-9-12-7-20
					c-6,3-13,1-17-3c-2.766-2.074-2.663-5.584-2.336-9.204c-4.926,7.378-8.058,16.005-7.791,22.095
					c-30.03-12.035-21.177,54.51,12.226,39.189c-3.432,5.086-0.661,14.857,8.851,7.988c-1.673,18.796,31.498,29.663,31.506,13.494
					c12.134,10.104,36.773-5.357,45.55-15.362c22.088,19.379,41.587-0.12,41.587-0.12s10.5,14.999,35.941,5.291
					c10.401-3.969,19.543-11.947,21.051-22.956C402.812,571.464,397.525,551.737,385.662,557.391"/>
			</g>
		</g>
		<g opacity="0.5" clip-path="url(#SVGID_12_)">
			<g>
				<defs>
					<rect id="SVGID_33_" x="186.552" y="516.319" width="215.206" height="105.11"/>
				</defs>
				<clipPath id="SVGID_34_">
					<use xlink:href="#SVGID_33_"  overflow="visible"/>
				</clipPath>
				<path clip-path="url(#SVGID_34_)" fill="#4F752F" d="M385.662,557.391c10.234-19.537-2.522-45.938-23.214-40.298
					c4.053,7.938,5.531,16.929-1.448,23.907c8-2,17,6,14,14s-4,18-11,23c-8,6-21,1-21-10c0,5-4,8-8,10c-12,6-33,3-37-13
					c1,6-1,10-4,15c-6,9-20,15-29,6c2,5-2,9-4,10c-7,4-16,3-23-2c-2-2-1-6,0-9c-3,1-7,0-9-2c-3-6-4-12-3-19c-12,12-26,17-38,5
					c-0.517-0.388-1-0.862-1.448-1.402c0.146,14.858,11.249,33.334,30.547,24.482c-3.432,5.086-0.661,14.857,8.851,7.988
					c-1.673,18.796,31.498,29.663,31.506,13.494c12.134,10.104,36.773-5.357,45.55-15.362c22.088,19.379,41.587-0.12,41.587-0.12
					s10.5,14.999,35.941,5.291c10.401-3.969,19.543-11.947,21.051-22.956C402.812,571.464,397.525,551.737,385.662,557.391"/>
			</g>
		</g>
		<path clip-path="url(#SVGID_12_)" fill="#B6D7D9" d="M113.605,623.928c1.81-15.089,7.643-15.676,22.534-14.965
			c13.233,0.633,16.881,3.064,23.398,16.542c-9.22,3.881-33.823,8.416-33.823,8.416s-7.974-3.018-11.551-8.72L113.605,623.928z"/>
		<g opacity="0.25" clip-path="url(#SVGID_12_)">
			<g>
				<defs>
					<rect id="SVGID_35_" x="113.605" y="612.734" width="45.932" height="21.187"/>
				</defs>
				<clipPath id="SVGID_36_">
					<use xlink:href="#SVGID_35_"  overflow="visible"/>
				</clipPath>
				<path clip-path="url(#SVGID_36_)" fill="#B6D7D9" d="M150.783,612.734c0.593,0.555,0.832,0.958,0.217,1.266c-8,7-21,5-30-1
					c4,3,4,8,2,12c-2.847,3.796-6.594-1.414-8.678-5.374c-0.286,1.285-0.526,2.708-0.717,4.302l0.558,1.272
					c3.577,5.703,11.552,8.721,11.552,8.721s24.602-4.536,33.822-8.416C156.417,619.055,153.953,615.139,150.783,612.734"/>
			</g>
		</g>
		<path clip-path="url(#SVGID_12_)" fill="#4F752F" d="M156.333,633c-5.844-0.688-7.272-4.413-11-8.276
			c-3.596-3.728-8.777-5.769-13.515-7.756c4.463-0.282,10.786,1.365,14.38,3.979c1.044-6.292-4.079-11.014-4.611-17.113
			c3.702,4.305,7.32,8.721,9.929,13.694c2.354-7.669,1.899-15.348,4.865-23.1c-0.186,8.33-1.396,18.377,0.425,26.412
			c3.689-5.52,8.376-11.219,13.43-15.162c-0.176,5.665-6.381,10.923-7.972,16.441c2.643-3.085,6.664-5.875,10.577-7.08
			C169.469,619.35,161.958,632.284,156.333,633"/>
		<g opacity="0.25" clip-path="url(#SVGID_12_)">
			<g>
				<defs>
					<rect id="SVGID_37_" x="154.414" y="604.531" width="18.427" height="28.321"/>
				</defs>
				<clipPath id="SVGID_38_">
					<use xlink:href="#SVGID_37_"  overflow="visible"/>
				</clipPath>
				<path clip-path="url(#SVGID_38_)" fill="#4F752F" d="M172.841,615.04c-3.913,1.205-7.934,3.995-10.577,7.08
					c1.592-5.518,7.796-10.776,7.972-16.44c-5.054,3.941-9.741,9.642-13.43,15.161c-1.125-4.962-1.093-10.691-0.86-16.31
					c-4.292,9.592,1.88,18.567,1.063,28.321C162.546,631.269,169.604,619.181,172.841,615.04"/>
			</g>
		</g>
		<path clip-path="url(#SVGID_12_)" fill="#B6D7D9" d="M687,722.333c-0.086-4.767,2.895-9.003,4.667-13.319
			c1.997-4.869,2.36-12.418,4.634-16.715c3.823-7.225,14.44-9.988,20.366-15.301c5.865-5.256,9.241-10.452,16.947-12.583
			c13.081-3.618,23.782,2.186,36.619,2.688c3.451,7.695,6.76,18.083,11.446,25.241c2.437,3.72,6.906,5.341,9.217,9.338
			c4.864,8.422,6.813,24.357,5.462,34.058c-0.774,5.559-0.626,12.346-2.358,17.666c-1.93,5.925-0.72,3.092-5.563,6.565
			c-6.069,4.351-11.012,11.672-18.161,13.025c-8.404,1.592-17.823-1.192-26.18-1.881c-4.211-0.347-8.659,0.378-12.731-0.445
			c-7.264-1.468-10.822-7.11-17.67-9.538c-4.808-1.703-10.021-0.885-13.906-4.738c-3.382-3.354-4.398-9.676-5.813-14.033
			C691.933,736.065,686.931,729.137,687,722.333"/>
		<g opacity="0.25" clip-path="url(#SVGID_12_)">
			<g>
				<defs>
					<rect id="SVGID_39_" x="689.164" y="667.031" width="107.612" height="106.45"/>
				</defs>
				<clipPath id="SVGID_40_">
					<use xlink:href="#SVGID_39_"  overflow="visible"/>
				</clipPath>
				<path clip-path="url(#SVGID_40_)" fill="#B6D7D9" d="M786,709c-7,7-26,11-26,3c-0.898-8.978,17.535-16.347,16.974-28.613
					c-2.443-5.509-4.563-11.431-6.74-16.284c-0.376-0.015-0.745-0.048-1.117-0.071c-0.948,0.748-1.986,1.403-3.116,1.969
					c-2,1-5-1-7-1c-4-1-6,3-11,2c2,6,11,4,9,10c-2-1-3,3-5,2c-2,8-8,18-13,17c-10-2-21,0-32,2c-4.005,0-7.37-4.489-11.12-7.818
					c-1.906,4.39-2.346,11.28-4.213,15.831c-0.73,1.778-1.662,3.542-2.503,5.334c4.517-2.229,8.877-3.714,11.836-1.347
					c11,10,26,3,38,2c-2,11,3,23-2,34c-2-2-4-1-6-1c-10.44,5.22-21.636,9.678-32.931,6.142c0.498,0.839,1.063,1.603,1.719,2.252
					c3.885,3.854,9.099,3.035,13.906,4.739c6.848,2.427,10.406,8.07,17.67,9.538c4.072,0.823,8.521,0.098,12.731,0.445
					c8.356,0.688,17.775,3.473,26.18,1.882c7.149-1.355,12.092-8.675,18.161-13.027c4.844-3.473,3.634-0.64,5.563-6.564
					c1.732-5.319,1.584-12.107,2.358-17.665c0.853-6.125,0.388-14.731-1.294-22.367C792.134,711.667,788.094,711.792,786,709"/>
			</g>
		</g>
		<g opacity="0.25" clip-path="url(#SVGID_12_)">
			<g>
				<defs>
					<rect id="SVGID_41_" x="707.622" y="722.1" width="89.153" height="51.382"/>
				</defs>
				<clipPath id="SVGID_42_">
					<use xlink:href="#SVGID_41_"  overflow="visible"/>
				</clipPath>
				<path clip-path="url(#SVGID_42_)" fill="#B6D7D9" d="M787,729c0-1-2-3-2-3c-12,1-25,11-34-2c-4,10,2,22-4,30
					c-9.308,11.846-25.059,6.51-39.378,5.799c2.012,0.354,4.077,0.627,6.072,1.334c6.848,2.427,10.406,8.07,17.67,9.538
					c4.072,0.823,8.521,0.098,12.731,0.445c8.356,0.688,17.775,3.473,26.18,1.882c7.149-1.355,12.092-8.675,18.161-13.027
					c4.844-3.473,3.634-0.64,5.563-6.564c1.732-5.319,1.584-12.107,2.358-17.665c0.536-3.853,0.551-8.687,0.069-13.643
					C793.307,724.497,790.491,727.255,787,729"/>
			</g>
		</g>
		<path clip-path="url(#SVGID_12_)" fill="#4F752F" d="M697,760c-0.047,0.327-0.082,0.663-0.111,1.001
			c0.037,0,0.074-0.001,0.111-0.001V760z"/>
		<path clip-path="url(#SVGID_12_)" fill="#4F752F" d="M689,770c-7.574,0.172-14.977-9.684-9.576-17.374
			c-3.805-2.626-3.084-9.317,1-11.227c-4.318-12.224,18.988-21.6,19.641-12.468c4.288-0.774,6.298-3.833,10.902-1.289
			c3.258,1.801,6.229,6.112,4.523,9.84c5.097-1.881,21.389-16.563,26.312-7.134c6.355-4.26,12.48-1.942,11.731,6.085
			c5.646,0.131,14.92,1.479,12.632,9.526c6.674-0.328,11.106,6.453,5.878,11.414c6.483,3.946,13.198,10.936,6.606,18.124
			c4.15,3.449-2.562,7.663-5.397,9.01c-4.939,2.346-10.371,1.793-15.237-0.543c-4.202,8.715-23.223,9.37-24.842-1.823
			c-4.444,8.61-29.603,11.401-23.565-1.946c-4.683,5.629-13.624,8.653-18.148,1.515C687.378,775.269,686.96,772.865,689,770"/>
		<g opacity="0.25" clip-path="url(#SVGID_12_)">
			<g>
				<defs>
					<rect id="SVGID_43_" x="676.931" y="727.217" width="104.427" height="63.309"/>
				</defs>
				<clipPath id="SVGID_44_">
					<use xlink:href="#SVGID_43_"  overflow="visible"/>
				</clipPath>
				<path clip-path="url(#SVGID_44_)" fill="#4F752F" d="M778.649,775.498c6.591-7.188-0.124-14.178-6.606-18.124
					c5.229-4.962,0.795-11.742-5.878-11.414c2.288-8.047-6.985-9.396-12.633-9.525c0.75-8.028-5.375-10.346-11.729-6.085
					c-2.588-4.957-8.317-3.248-13.911-0.242c5.968,2.126,11.335,7.172,6.108,13.893c4-1,7,1,9,4c1,3-1,5-3,7c-3,2-9-1-9-6
					c-1,6-8,15-14,7c1,4-3,7-6,9c-7,2-10-4-7-10c-4,4-9,3-12,0s2-7,2-11c-4.807,2.403-10.887,0.95-13.634-2.805
					c0.022,0.068,0.034,0.135,0.059,0.203c-4.084,1.91-4.807,8.602-1,11.227c-5.402,7.691,2.002,17.546,9.575,17.375
					c-2.04,2.865-1.622,5.27,2.459,11.71c4.523,7.14,13.466,4.113,18.148-1.516c-6.037,13.349,19.121,10.558,23.564,1.948
					c1.62,11.192,20.641,10.538,24.844,1.822c4.866,2.335,10.297,2.89,15.236,0.542C776.088,783.16,782.801,778.947,778.649,775.498
					"/>
			</g>
		</g>
		<g opacity="0.5" clip-path="url(#SVGID_12_)">
			<g>
				<defs>
					<rect id="SVGID_45_" x="677.581" y="727.23" width="103.776" height="63.295"/>
				</defs>
				<clipPath id="SVGID_46_">
					<use xlink:href="#SVGID_45_"  overflow="visible"/>
				</clipPath>
				<path clip-path="url(#SVGID_46_)" fill="#4F752F" d="M778.649,775.498c6.591-7.188-0.124-14.178-6.606-18.124
					c5.229-4.962,0.795-11.742-5.878-11.414c2.288-8.047-6.985-9.396-12.633-9.525c0.75-8.028-5.375-10.346-11.729-6.085
					c-1.142-2.186-2.896-3.064-4.978-3.119c3.433,3.021,4.626,8.416,3.175,12.77c1-5,7-4,10-2c10,4,1,12,7,19c2,2,2,7-1,10
					c-1,0-4,1-5-1c1,2-1,4-1,4c-7,5-18,0-19-8c-3,2-3,6-6,7c-8,0-11-1-18,3c-7.626,4.767-10.706-4.096-10.11-10.999
					c-4.963,0.015-9.912,0.969-12.89-3.001c-1-3,1-6,3-8c-2.881,0.72-5.243,2.47-7.833,3.024c-4.882,7.628,2.39,17.144,9.833,16.976
					c-2.04,2.865-1.622,5.27,2.459,11.71c4.523,7.14,13.466,4.113,18.148-1.516c-6.037,13.349,19.121,10.558,23.564,1.948
					c1.62,11.192,20.641,10.538,24.844,1.822c4.866,2.335,10.297,2.89,15.236,0.542C776.088,783.16,782.801,778.947,778.649,775.498
					"/>
			</g>
		</g>
		<g opacity="0.35" clip-path="url(#SVGID_12_)">
			<g>
				<defs>
					<rect id="SVGID_47_" x="227.599" y="715.462" width="60.838" height="26.077"/>
				</defs>
				<clipPath id="SVGID_48_">
					<use xlink:href="#SVGID_47_"  overflow="visible"/>
				</clipPath>
				<path clip-path="url(#SVGID_48_)" fill="#4F752F" d="M227.599,740.573c11.444,0.6,74.671,6.094,58.081-17.7
					c-7.175-10.29-23.232-7.791-32.617-4.756C243.729,721.136,229.767,734.246,227.599,740.573"/>
			</g>
		</g>
		<path clip-path="url(#SVGID_12_)" fill="#B6D7D9" d="M214.783,737.94c1.652-12.946,3.84-24.703,16.929-29.138
			c7.974-2.701,25.551,0.028,30.301,8.504c14.535,25.938-34.153,28.386-45.999,22.361"/>
		<g opacity="0.25" clip-path="url(#SVGID_12_)">
			<g>
				<defs>
					<rect id="SVGID_49_" x="214.783" y="711.014" width="49.914" height="31.394"/>
				</defs>
				<clipPath id="SVGID_50_">
					<use xlink:href="#SVGID_49_"  overflow="visible"/>
				</clipPath>
				<path clip-path="url(#SVGID_50_)" fill="#B6D7D9" d="M262.013,717.307c-1.491-2.661-4.247-4.755-7.573-6.293
					c0.227,2.376-0.249,4.391-1.44,4.986c-8,5-16,1-24,0c7,7,19,12,7,20c-5.783,3.855-13.425,3.985-21.134,1.304
					c-0.028,0.213-0.056,0.424-0.083,0.637l1.231,1.728C227.86,745.692,276.549,743.246,262.013,717.307"/>
			</g>
		</g>
		<path clip-path="url(#SVGID_12_)" fill="#004600" d="M156.503,735.9c0,0-0.114-0.471-0.256-1.293
			c-0.144-0.824-0.32-1.979-0.485-3.358c-0.08-0.69-0.188-1.434-0.256-2.216c-0.069-0.782-0.211-1.599-0.262-2.444
			c-0.098-0.836-0.201-1.7-0.304-2.579c-0.052-0.436-0.103-0.874-0.155-1.314l-0.214-1.305c-0.089-0.883-0.284-1.727-0.439-2.572
			c-0.226-0.813-0.332-1.66-0.599-2.408c-0.209-0.782-0.487-1.479-0.73-2.178c-0.128-0.342-0.317-0.629-0.45-0.949
			c-0.141-0.313-0.264-0.634-0.45-0.884c-0.35-0.518-0.619-1.076-0.984-1.452c-0.348-0.392-0.612-0.822-0.925-1.055
			c-0.579-0.537-0.931-0.893-0.931-0.893l0.08-0.184c0,0,0.412,0.223,1.134,0.611c0.382,0.163,0.746,0.51,1.199,0.857
			c0.478,0.324,0.881,0.833,1.356,1.352c0.254,0.248,0.443,0.562,0.655,0.876c0.203,0.319,0.445,0.631,0.635,0.984
			c0.356,0.72,0.777,1.461,1.054,2.294c0.344,0.809,0.564,1.686,0.821,2.567c0.194,0.896,0.428,1.803,0.549,2.727
			c0.547,3.69,0.526,7.422,0.423,10.199c-0.107,2.783-0.266,4.63-0.266,4.63L156.503,735.9z"/>
		<path clip-path="url(#SVGID_12_)" fill="#004600" d="M157.241,735.629c0,0,0.011-0.104,0.031-0.3
			c0.026-0.195,0.035-0.484,0.11-0.849c0.071-0.363,0.144-0.811,0.288-1.302c0.147-0.488,0.29-1.059,0.53-1.64
			c0.234-0.584,0.475-1.23,0.806-1.867c0.326-0.639,0.672-1.314,1.056-1.975c0.386-0.649,0.785-1.32,1.19-2.002
			c0.477-0.712,1.009-1.412,1.546-2.065c0.535-0.671,1.164-1.258,1.773-1.836c0.602-0.588,1.267-1.087,1.915-1.553
			c0.329-0.226,0.653-0.447,0.97-0.664c0.334-0.189,0.661-0.374,0.979-0.555c0.323-0.168,0.638-0.331,0.942-0.488
			c0.315-0.135,0.62-0.265,0.913-0.39c0.588-0.239,1.136-0.431,1.637-0.563c0.487-0.158,0.938-0.235,1.298-0.313
			c0.36-0.077,0.66-0.095,0.856-0.123c0.197-0.022,0.303-0.036,0.303-0.036l0.081,0.184c0,0-0.361,0.174-0.994,0.477
			c-0.624,0.32-1.513,0.786-2.532,1.425c-1.016,0.643-2.165,1.451-3.311,2.421c-1.149,0.966-2.282,2.102-3.329,3.308
			c-0.53,0.6-1.026,1.225-1.494,1.857c-0.458,0.646-0.909,1.282-1.345,1.897c-0.879,1.225-1.66,2.392-2.261,3.435
			c-0.608,1.036-1.051,1.938-1.337,2.576c-0.289,0.638-0.436,1.016-0.436,1.016L157.241,735.629z"/>
		<path clip-path="url(#SVGID_12_)" fill="none" stroke="#004600" stroke-miterlimit="10" d="M155.879,735.789
			c0.314-1.779,1.158-3.489,1.714-5.2c1.163-3.587,2.319-7.483,2.843-11.219c0.678-4.839,0.261-9.199-0.987-13.897
			c-1.324-4.98-3.802-9.634-3.753-14.911"/>
		<g opacity="0.35" clip-path="url(#SVGID_12_)">
			<g>
				<defs>
					<rect id="SVGID_51_" x="155.603" y="727.065" width="46.554" height="24.048"/>
				</defs>
				<clipPath id="SVGID_52_">
					<use xlink:href="#SVGID_51_"  overflow="visible"/>
				</clipPath>
				<path clip-path="url(#SVGID_52_)" fill="#4F752F" d="M155.603,740.573c9.092,0.485,48.25,25.33,46.498-3
					c-1.269-20.505-44.875-5.976-46.498,1.5"/>
			</g>
		</g>
		<path clip-path="url(#SVGID_12_)" fill="none" stroke="#004600" stroke-miterlimit="10" d="M157,735.833
			c0.452-5.093,1.717-10.747,3.087-15.674c3.511-12.62,15.803-21.182,27.746-24.993"/>
		<path clip-path="url(#SVGID_12_)" fill="#FFFFFF" d="M155.667,690.167c-1.134,1.918-4.538,4.633-6.917,3.252
			c-2.74-1.591,1.108-3.19,2.237-4.015c-2.569,0.987-4.624-2.023-3.807-4.452c0.923-2.745,5.463-2.643,7.17-0.828
			c-2.152-7.122,9.612-3.5,5.189,0.565c6.227-1.367,5.056,7.166-0.321,6.623C161.59,694.036,152.438,696.772,155.667,690.167"/>
		<path clip-path="url(#SVGID_12_)" fill="#E8DB61" d="M158.333,687.333c0,1.289-0.933,2.333-2.083,2.333
			c-1.151,0-2.084-1.044-2.084-2.333S155.099,685,156.25,685C157.4,685,158.333,686.044,158.333,687.333"/>
		<path clip-path="url(#SVGID_12_)" fill="#004600" d="M160,709c-1.022-2.718-3.348-4.579-6.252-5.187
			c-2.178-0.456-5.341,0.792-7.059-1.138c1.324,2.547,4.394,5.228,7.219,6.036C155.623,709.204,158.92,708.553,160,709"/>
		<path clip-path="url(#SVGID_12_)" fill="#B6D7D9" d="M141.267,739.667c-3.235-8.408,14.536-8.204,19.902-7.899
			c0.34,2.229,1.078,4.605,2.032,6.547c-8.2,7.334-11.193,3.119-20.502,3.92L141.267,739.667z"/>
		<g opacity="0.25" clip-path="url(#SVGID_12_)">
			<g>
				<defs>
					<rect id="SVGID_53_" x="140.954" y="731.681" width="22.313" height="11.045"/>
				</defs>
				<clipPath id="SVGID_54_">
					<use xlink:href="#SVGID_53_"  overflow="visible"/>
				</clipPath>
				<path clip-path="url(#SVGID_54_)" fill="#B6D7D9" d="M161.235,731.768c-0.615-0.035-1.4-0.068-2.291-0.087
					c-0.367,1.359-0.637,2.839-2.611,4.32c-5.113,4.261-10.227,1.99-15.34,1.225c-0.102,0.721-0.011,1.528,0.34,2.44
					c0,0,0.852,1.469,1.432,2.568c9.309-0.801,12.302,3.414,20.502-3.92C162.314,736.372,161.575,733.995,161.235,731.768"/>
			</g>
		</g>
		<path clip-path="url(#SVGID_12_)" fill="#FFFFFF" d="M186.833,696.167c-1.568,1.118-2.009,4.961-1.354,6.75
			c1.297,3.538,2.86-1.049,3.197-2.534c0.19,1.618,1.486,4.218,3.49,3.287c2.631-1.224,0.728-4.213,0.185-5.982
			c2.887,0.604,2.238-12.341-1.53-5.081c0.819-2.233-0.133-6.425-2.658-7.283c-3.018-1.023-2.309,2.967-2.047,4.68
			C180.318,685.319,179.032,699.602,186.833,696.167"/>
		<path clip-path="url(#SVGID_12_)" fill="#E8DB61" d="M190.833,695.167c0,1.289-0.709,2.333-1.583,2.333
			c-0.875,0-1.584-1.044-1.584-2.333s0.709-2.333,1.584-2.333C190.125,692.834,190.833,693.878,190.833,695.167"/>
		<path clip-path="url(#SVGID_12_)" fill="#004600" d="M170.667,704.167c2.284-1.031,5.122-0.804,7.167,0.788
			c2.219,1.726,3.223,4.192,6.287,4.545c-3.039,0.003-5.052-0.346-7.75-1.532C174.602,707.189,171.802,704.929,170.667,704.167"/>
		<g opacity="0.4" clip-path="url(#SVGID_12_)">
			<g>
				<defs>
					<rect id="SVGID_55_" x="736.385" y="476.755" width="63.899" height="25.976"/>
				</defs>
				<clipPath id="SVGID_56_">
					<use xlink:href="#SVGID_55_"  overflow="visible"/>
				</clipPath>
				<path clip-path="url(#SVGID_56_)" fill="#A1B51D" d="M742,485.333c-3.479,0.364-5.447,5.63-5.615,8.617
					c3.966,0.681,6.037,0.527,9.967,0.032c5.095-0.64,4.21,2.639,7.317,4.961c2.999,2.241,10.257,3.07,13.848,3.057
					c6.298-0.022,12.697,0.949,18.983,0.685c9.017-0.381,10.974-6.405,13.5-14.352c3.071-9.659-19.689-12.333-25.001-11.405
					c-7.662,1.336-15.274-0.328-22.469,2.557C748.666,481.033,743.486,481.794,742,485.333"/>
			</g>
		</g>
		<path clip-path="url(#SVGID_12_)" fill="#4F752F" d="M743.447,436.876c-4.101,5.634-21.704,11.935-25.251,3.1
			c-11.9,10.035-23.007-8.573-13.126-12.07c-11.109-3.964-3.566-24.508,7.178-21.125c2.112-10.143,14.25-17.989,24-15
			c1.675-10.696,24.113-16.486,26.228-3.183c3.633-16.287,35.394-1.029,23.074,15.06c8.94,2.992,11.353,26.168-1.952,25.351
			c1.103,14.018-17.544,27.412-23.373,10.193C756.012,446.284,746.215,444.974,743.447,436.876"/>
		<path clip-path="url(#SVGID_12_)" fill="#4F752F" d="M760,400c0.464,0.464,0.927,0.281,1.391-0.047
			C760.964,399.916,760.511,399.915,760,400"/>
		<g opacity="0.25" clip-path="url(#SVGID_12_)">
			<g>
				<defs>
					<rect id="SVGID_57_" x="699.6" y="380.888" width="93.316" height="66.439"/>
				</defs>
				<clipPath id="SVGID_58_">
					<use xlink:href="#SVGID_57_"  overflow="visible"/>
				</clipPath>
				<path clip-path="url(#SVGID_58_)" fill="#4F752F" d="M785.55,403.657c12.319-16.089-19.441-31.347-23.074-15.06
					c-1.117-7.027-7.905-8.724-14.309-7.187c3.044,2.407,5.299,5.85,5.833,9.59c4-1,7,0,9,3c1,1,1,4,0,5
					c-0.536,0-1.073,0.573-1.609,0.953c4.579,0.396,4.438,7.303,2.609,10.047c-3,2-7,4-10,0c1,2-1,4-2,5c-4,1-10,0-12-5
					c-2,6-7,10-13,9c-2,0-6,0-5-5c-4,5-13,8-17,2c-2.093-2.094-1.262-5.161,0.449-8.183c-6.445,4.278-8.896,17.049-0.379,20.088
					c-9.881,3.497,1.226,22.105,13.126,12.07c3.547,8.835,21.15,2.534,25.251-3.1c2.768,8.098,12.564,9.408,16.776,2.325
					c5.83,17.219,24.477,3.824,23.374-10.193C796.902,429.825,794.49,406.649,785.55,403.657"/>
			</g>
		</g>
		<path clip-path="url(#SVGID_12_)" fill="#4F752F" d="M775.347,406.215c-0.116-0.072-0.232-0.146-0.347-0.215
			C775.105,406.105,775.223,406.17,775.347,406.215"/>
		<g opacity="0.5" clip-path="url(#SVGID_12_)">
			<g>
				<defs>
					<rect id="SVGID_59_" x="699.598" y="381.631" width="93.318" height="65.696"/>
				</defs>
				<clipPath id="SVGID_60_">
					<use xlink:href="#SVGID_59_"  overflow="visible"/>
				</clipPath>
				<path clip-path="url(#SVGID_60_)" fill="#4F752F" d="M785.55,403.657c10.664-13.927-11.7-27.227-20.259-19.986
					c3.237,1.822,5.768,6.893,1.709,9.329c6,0,13,6,11,12c0,0-1.6,1.596-2.654,1.215c4.924,3.106-0.88,12.683-0.88,12.683
					s2.328,6.866-0.783,9.392c-3.49,2.834-12.567,1.057-14.683-5.289c0,2-2,4-3,5c-5,2-13,0-14-6c1,5-3,7-6,9c-5,3-11,4-15-1
					c-1,5-5,3-7,3c-3-2-3-6,0-9c-7.133,2.675-15.051-3.396-13.143-10.413c-2.328,5.397-1.702,12.207,4.213,14.318
					c-9.881,3.497,1.226,22.105,13.126,12.07c3.547,8.835,21.15,2.534,25.251-3.1c2.768,8.098,12.564,9.408,16.776,2.325
					c5.83,17.219,24.477,3.824,23.374-10.193C796.902,429.825,794.49,406.649,785.55,403.657"/>
			</g>
		</g>
		<path clip-path="url(#SVGID_12_)" fill="#826453" d="M754.97,483.693c-6.704-4.31-9.457-28.769-0.102-32.84
			c8.357-3.637,19.527-9.334,17.244-24.349c-0.254,2.351-0.944,9.953-3.84,9.903c-3.338-0.058-2.158-7.542-3.782-9.869
			c0.961,6.129-1.415,7.475-6.926,5.889c2.532,3.147,8.043,1.604,8.626,6.782c0.45,4.008-4.094,6.953-7.361,7.218
			c-10.938,0.886-8.075-14.521-6.942-21.283c-0.164,1.513-2.344-0.219-2.344-0.219s3.136,8.463-4.626,6.943
			c-1.49-0.292-0.742-6.554-0.742-6.554s-1.331,0.069-1.661,0.206c0.809,1.231,1.76,6.065,0.058,7.153
			c-1.569,1.003-4.261-2.087-6.197-2.775c1.411,1.678,3.177,3.811,5.265,4.469c1.938,0.611,4.121-1.164,5.01-0.241
			c2.158,2.24,2.883,5.996,3.621,8.78c2.377,8.97-18.206,2.659-16.842-9.189c-1.294,2.773-3.996,2.297-5.555-0.244
			c-0.485,2.35,0.837,2.394,3.635,3.929c0.828,0.455,1.85,4.056,2.805,5.388c4.441,6.196,13.612,5.604,14.113,9.832
			c0.349,2.946-3.176,9.364-1.922,17.082c1.136,6.985,1.772,13.47-4.535,17.94c3.332,0.328,4.899,0.814,7.849-0.426
			C751.616,486.462,751.748,484.04,754.97,483.693"/>
		<path clip-path="url(#SVGID_12_)" fill="#4F752F" d="M774,479c0.401,0,0.758-0.059,1.096-0.144
			C774.766,478.828,774.402,478.866,774,479"/>
		<path clip-path="url(#SVGID_12_)" fill="#4F752F" d="M760.491,495.795c-4.542,2.125-7.852-7.908-3.101-7.457
			c-2.614-2.506,1.398-8.895,3.692-6.258c-0.466-2.261,5.089-6.958,6.413-3.844c-0.392-3.529,6.771-4.662,6.78-0.504
			c2.164-0.676,3.767-0.97,5.204,1.091c0.721,1.032,1.527,2.781,0.71,3.883c2.026-0.523,3.266-0.875,5.161,0.324
			c1.371,0.867,2.41,2.041,1.38,3.657c1.914,0.155,3.175-0.165,4.358,1.679c1.109,1.725,0.658,3.051-1.015,4.177
			c1.771,1.323,0.645,4.104-0.304,5.524c-1.569,2.352-3.592,2.125-6.146,1.488c0.574,4.122-9.425,3.68-9.391-0.762
			c-1.414,1.28-2.58,2.563-4.624,3.03c-1.377,0.314-3.238-0.233-3.335-2.202C765.427,503.226,758.088,499.266,760.491,495.795"/>
		<g opacity="0.25" clip-path="url(#SVGID_12_)">
			<g>
				<defs>
					<rect id="SVGID_61_" x="755.071" y="476.578" width="36.626" height="24.907"/>
				</defs>
				<clipPath id="SVGID_62_">
					<use xlink:href="#SVGID_61_"  overflow="visible"/>
				</clipPath>
				<path clip-path="url(#SVGID_62_)" fill="#4F752F" d="M790.075,491.626c1.672-1.126,2.123-2.451,1.015-4.177
					c-1.184-1.843-2.443-1.522-4.357-1.678c1.029-1.616-0.01-2.79-1.381-3.657c-1.896-1.2-3.135-0.849-5.16-0.325
					c0.815-1.102,0.01-2.85-0.71-3.883c-0.47-0.671-0.955-1.089-1.473-1.328c1.119,2.741,0.629,6.301-2.139,6.992
					c1.955,0.171,2.539,3.127,1.745,4.715c-1.833,1.833-4.583,0.916-7.333,0.916c0.917-0.916-0.916-1.833-0.916-2.749
					c0,3.666-2.75,4.583-5.5,3.666c0.917-1.833-3.666-1.833-0.916-3.666c-1.834,0.916-2.75,1.833-4.583,0.916
					c-1.693-0.846-1.042-3.255-0.934-5.063c-0.989,1.584-1.366,3.848-0.043,5.116c-4.751-0.451-1.441,9.582,3.101,7.457
					c-2.403,3.471,4.935,7.431,5.785,3.827c0.095,1.969,1.958,2.518,3.335,2.203c2.044-0.468,3.209-1.75,4.624-3.031
					c-0.035,4.441,9.964,4.885,9.39,0.763c2.555,0.637,4.577,0.863,6.147-1.488C790.72,495.731,791.845,492.949,790.075,491.626"/>
			</g>
		</g>
		<g opacity="0.5" clip-path="url(#SVGID_12_)">
			<g>
				<defs>
					<rect id="SVGID_63_" x="755.076" y="481.366" width="36.621" height="20.119"/>
				</defs>
				<clipPath id="SVGID_64_">
					<use xlink:href="#SVGID_63_"  overflow="visible"/>
				</clipPath>
				<path clip-path="url(#SVGID_64_)" fill="#4F752F" d="M790.075,491.626c1.672-1.126,2.123-2.451,1.015-4.177
					c-1.184-1.843-2.443-1.522-4.357-1.678c1.029-1.616-0.01-2.79-1.381-3.657c-0.677-0.43-1.27-0.653-1.845-0.748
					c0.656,2.027,0.33,4.447-2.226,5.086h2.75c1.833,1.833,0.917,3.666-0.917,5.499c-0.916,0.917-1.833-0.916-2.749-0.916
					c0,1.833,0,2.749-0.917,4.582c-1.833-1.833-5.499,0-5.499-3.666c-0.917,1.833-0.917,4.583-2.75,3.666
					c-5.5-0.916-1.833-1.833-7.333-0.916c0-6.416-3.666,0-8.249-3.666v-3.018c-1.789,2.068,1.118,8.617,4.874,6.86
					c-2.403,3.471,4.935,7.431,5.785,3.827c0.095,1.969,1.958,2.518,3.335,2.203c2.044-0.468,3.209-1.75,4.624-3.031
					c-0.035,4.441,9.964,4.885,9.39,0.763c2.555,0.637,4.577,0.863,6.147-1.488C790.72,495.731,791.845,492.949,790.075,491.626"/>
			</g>
		</g>
		<path clip-path="url(#SVGID_12_)" fill="#FFFFFF" d="M389.967,769.868c-0.002-0.006-0.002-0.011-0.002-0.019
			C389.965,769.857,389.965,769.862,389.967,769.868"/>
		<path clip-path="url(#SVGID_12_)" fill="#FFFFFF" d="M390.098,770.697h0.003c-0.05-0.236-0.088-0.472-0.119-0.702
			C390.013,770.228,390.051,770.464,390.098,770.697"/>
		<path clip-path="url(#SVGID_12_)" fill="#FFFFFF" d="M390.956,773.104c-0.006-0.011-0.011-0.021-0.017-0.033
			C390.945,773.082,390.95,773.093,390.956,773.104"/>
		<path clip-path="url(#SVGID_12_)" fill="#FFFFFF" d="M390.874,772.943c-0.022-0.045-0.044-0.091-0.065-0.135
			C390.83,772.855,390.852,772.898,390.874,772.943"/>
		<path clip-path="url(#SVGID_12_)" fill="#FFFFFF" d="M390.339,771.624c0.127,0.399,0.28,0.787,0.457,1.157
			c-0.18-0.378-0.33-0.766-0.454-1.157H390.339z"/>
		<path clip-path="url(#SVGID_12_)" fill="#FFFFFF" d="M406.547,770.018c-1.409,0.687-3.729,1.594-6.781,2.02
			c-1.198,0.166-2.36,0.227-3.429,0.227c-1.39,0-2.619-0.103-3.562-0.223c-1.076-0.135-1.917-0.301-2.432-0.418
			c0.123,0.392,0.273,0.781,0.454,1.159c0.003,0.009,0.007,0.02,0.012,0.027c0.022,0.044,0.043,0.09,0.066,0.134
			c0.021,0.044,0.043,0.087,0.065,0.127c0.006,0.011,0.011,0.022,0.017,0.033c0.302,0.569,0.666,1.095,1.08,1.549
			c1.44,1.575,2.907,1.824,2.921,1.826l0.023,0.003l0.022,0.008c0.013,0.005,1.314,0.424,3.291,0.424
			c1.945,0,3.855-0.392,5.674-1.167c1.348-0.689,2.622-1.736,3.254-2.669c0.487-0.723,0.841-1.494,1.05-2.294
			c0.111-0.426,0.199-1.108,0.146-1.826C408.022,769.224,407.396,769.604,406.547,770.018"/>
	</g>
</g>
</svg>
