<?xml version="1.0" encoding="utf-8"?>
<!-- Generator: Adobe Illustrator 16.0.0, SVG Export Plug-In . SVG Version: 6.00 Build 0)  -->
<!DOCTYPE svg PUBLIC "-//W3C//DTD SVG 1.1//EN" "http://www.w3.org/Graphics/SVG/1.1/DTD/svg11.dtd">
<svg version="1.1" xmlns="http://www.w3.org/2000/svg" xmlns:xlink="http://www.w3.org/1999/xlink" x="0px" y="0px" width="800px"
	 height="800px" viewBox="0 0 800 800" enable-background="new 0 0 800 800" xml:space="preserve">
<g id="BACKGROUND" opacity="0.4">
</g>
<g id="OBJECT">
	<g>
		<polygon fill="#4B1900" points="597.227,639.804 594.614,637.923 592.137,635.092 592.137,635.092 586.296,630.708 
			585.277,630.62 584.624,630.09 583.895,628.905 583.895,628.905 582.665,628.563 581.686,627.832 580.873,626.637 578.16,625.044 
			576.739,624.197 575.074,622.804 574.291,622.106 573.335,620.979 561.834,612.348 560.971,612.348 559.501,611.352 
			559.109,610.804 558.571,610.455 558.081,609.907 552.507,605.347 549.631,603.188 547.258,601.791 543.13,598.309 
			543.13,598.309 537.219,595.069 535.26,593.277 534.352,591.72 496.787,563.525 495.396,563.353 495.113,562.269 453.785,531.25 
			450.348,528.669 448.873,528.2 447.717,526.694 447.717,526.694 446.179,526.01 445.249,525.512 444.122,524.665 441.46,521.998 
			423.877,508.802 557.075,643.18 602.913,643.18 598.414,639.804 		"/>
		<path fill="#633201" d="M236.06,643.18l4.397-3.497v-1.473l7.971-5.522h2.199c0,0-0.55-2.025,0-2.762
			c0.549-0.736,7.696-5.706,7.696-5.706h1.924l1.099-1.656l10.72-6.995h1.375v-3.313h1.374l3.298-1.657l6.322-3.682l1.1-3.313
			l8.246-4.602l20.615-14.911l2.474-1.473l1.649-2.393l11.819-7.363l6.872-4.786l2.749-0.736l22.264-15.278v-2.209l4.123-2.945
			h3.298v-3.13l46.177-33.502l1.649-1.473h6.321l8.246,8.099l39.03,33.688l20.615,18.96h3.573l1.374,3.129l18.416,15.831
			l2.474,0.185v2.577l18.69,16.567l1.1,1.656l3.023,0.921l4.947,4.785l1.1,2.394l4.123,1.288l28.036,24.299H236.06z"/>
		<polygon fill="#4B1900" points="390.607,638.284 390.82,633.261 383.197,630.951 382.52,630.123 381.918,628.472 380.47,627.722 
			379.436,626.562 378.732,624.874 375.755,622.188 374.201,620.768 372.483,618.607 371.686,617.541 370.785,615.898 
			359.296,602.342 357.58,601.976 356.003,600.357 355.657,599.579 355.074,599.007 354.605,598.201 348.828,591.102 
			345.795,587.677 343.193,585.325 338.942,579.938 332.396,574.373 330.415,571.645 327.668,563.499 314.776,547.597 
			295.333,526.568 288.39,524.178 288.185,520.034 262.965,491.563 254.811,482.742 245.877,474.835 241.126,469.471 
			239.404,468.499 238.353,466.338 236.609,465.084 235.575,464.224 234.388,462.881 231.756,458.889 230.854,456.833 
			218.14,443.082 334.877,641.369 392.36,641.369 		"/>
		<path fill="#7A3A00" d="M29.651,642.551l4.398-5.223v-2.199l7.971-8.245h2.199c0,0-0.55-3.024,0-4.123
			c0.55-1.1,7.696-8.521,7.696-8.521h1.924l1.1-2.474l10.72-10.444h1.374v-4.947h1.375l3.298-2.475l6.322-5.497l1.1-4.947
			l8.246-6.871l20.615-22.265l2.474-2.198l1.649-3.573l11.819-10.995l6.872-7.146l2.749-1.1l22.264-22.813v-3.298l4.123-4.398h3.298
			v-4.672l46.177-50.025l1.649-2.199h6.322l8.246,12.095l39.03,50.3l20.615,28.311h3.573l1.374,4.673l18.416,23.638l2.474,0.275
			v3.848l18.691,24.738l1.099,2.474l3.024,1.374l4.947,7.146l1.1,3.573l4.123,1.924l28.036,36.282H29.651z"/>
		<g>
			<g>
				<path fill="#4B1900" d="M659.669,606.188c2.786-0.031,1.498,1.045,4.453,2.354s4.053,5.614,4.391,7.683
					c0.338,2.069,2.533,5.319,5.656,5.108c3.124-0.211,4.981,3.166,5.53,4.011c0.549,0.844,1.267,8.231,1.183,8.907
					c-0.085,0.675,0.211,4.475,0.211,5.403s-1.824,5.241-1.824,5.241h2.837c0,0,0.549-6.592,0.929-7.816s0.169-2.617,0.085-3.293
					c-0.085-0.676-0.211-5.825-0.211-5.825l3.123,8.527c0,0,0.972,4.475,1.056,4.813c0.085,0.337-0.208,3.595-0.208,3.595h2.252
					l-0.439-3.384c-1.14-4.897,0.253-5.699-0.929-7.008c-1.183-1.309-2.222-8.358-2.222-8.358
					c7.614-0.633,13.281-3.588,13.281-3.588c1.563,0.717,3.927,0.633,3.927,0.633s0.084,1.646,0.084,2.744s3.588,6.248,3.926,6.839
					s0.465,0.76,0.38,5.53c-0.084,4.77-1.978,6.592-1.978,6.592h4.638l-0.211-2.371c0.844-9.244,3.334-7.894,1.562-9.414
					c-1.773-1.52-4.011-10.427-3.673-11.145c0.338-0.717,0-4.938-0.211-5.445s-2.237-1.182-3.082-3.419
					c-0.844-2.237-3.546-3.378-3.546-3.378c0.718-0.675-0.675-2.237-0.675-2.237c-0.212,0.972-1.604,1.457-1.604,1.457l-2.279-0.032
					c-0.697-1.076-3.167-1.994-3.167-1.994s-0.284-2.691-1.076-5.383c-0.791-2.691-3.504-2.765-3.504-2.765l-0.084-0.718
					c0.274,0.084,0.517-0.063,0.422-1.52c-0.095-1.457-1.076-1.678-1.62-1.773c-0.544-0.095-1.609,1.583-1.641,1.868
					c-0.032,0.285,0.411,0.189,0.411,0.189s-0.189,1.014-0.189,1.521c0,0.506,0.38,1.329,0.696,1.456s0.591-0.158,0.591-0.158
					s0.296,0.718,0,0.887c-0.295,0.169-0.718,1.309-0.675,1.857c0.042,0.549,0.76,4.559-1.731,3.63
					c-2.49-0.929-2.364,3.04-2.364,3.04s-0.886,0.38-1.772,0.422s-0.665,2.955-0.665,2.955c-2.628,3.895-7.377,2.279-7.63,0.507
					c-0.254-1.773-1.963-5.066-2.217-5.604c-0.253-0.538-1.171-2.438-1.646-4.306c-0.475-1.868-0.918-0.063-0.918-0.063
					l-0.633-0.063c-0.285-1.456-0.729,0-0.729,0c-0.158,0.096-1.14,0.539-2.237,0.623s-2.026,0-2.955,0s-1.436,1.436-1.436,1.436
					C658.79,605.869,659.669,606.188,659.669,606.188z M707.624,643.143c0,0,0.761-4.749,0.697-6.396
					C708.321,636.747,709.714,639.533,707.624,643.143z"/>
			</g>
			<path fill="#4B1900" d="M611.997,606.906c0,0,2.063,2.438,2.063,4.408s-0.375,8.724,1.032,9.943
				c1.407,1.219,8.254,3.752,9.099,5.815c0.844,2.063,2.626,7.035,2.345,8.911s0.797,1.594,0.938,3.142
				c0.142,1.548-0.563,5.769-0.563,5.769h4.08l-0.422-6.823c0,0,0.985-1.688,0.422-2.744c-0.563-1.055-2.743-5.347-2.11-7.316
				c0,0,2.814-0.211,4.784-2.11c0,0,4.995-2.392,8.371-1.759c3.377,0.634,1.829,3.236,5.065,5.276s1.66,12.944-0.802,15.477h2.708
				c0,0,1.471-7.034,2.104-7.527c0,0,1.337,4.011,0,7.527h1.899c0,0,0.563-7.598,0.845-9.145c0.281-1.548-1.267-2.533-1.899-4.995
				c-0.634-2.463-0.141-11.608-0.141-11.608s1.055,1.971,0.773,3.94s3.447,2.813,3.939,2.813c0.493,0,0.634-0.984-0.563-1.195
				c-1.196-0.212-2.603-1.056-2.673-2.674s-0.282-5.065-1.688-5.909c-1.407-0.845-3.447-1.899-3.447-1.899s1.196-2.252,1.97-2.181
				c0,0-2.11-1.548-3.939-0.563c-1.829,0.985-2.814-1.618-2.111-2.743c0.704-1.126,1.9-3.377,0.423-2.885s-4.784,2.321-4.784,2.321
				s-0.07-1.266-1.125-2.04c0,0,1.406-1.688,1.266-2.954c-0.141-1.267-1.899-7.95-3.869-8.513c0,0-0.703-0.914-0.633-1.302
				c0,0,0.598,0.035,0.809-0.281s0.105-2.497-1.125-2.919c-1.231-0.423-2.814-0.669-3.271,0c-0.457,0.668-0.669,1.441-0.422,1.583
				c0.246,0.141,0.598,0.246,0.598,0.246s-0.633,2.673-0.07,2.638s0.563-0.035,0.563-0.035l0.141,0.738c0,0-2.005,3.342-2.954,4.784
				c-0.95,1.442-1.372,3.342-1.618,3.729s-0.387,0.738-0.387,0.738s-0.493-0.105-1.091,0.07c-0.598,0.177-0.703,1.091-0.035,1.267
				l0.035,1.302c0,0-1.548,0.984-1.899,1.618c-0.352,0.633-1.442,2.146-1.864,2.392s-2.005,0-2.181,0.246s1.195,1.196,1.301,1.653
				s-1.09,3.377-2.146,3.412c-1.055,0.035-1.302-0.633-1.16-2.04c0.141-1.407,0.211-7.633-0.739-8.513c0,0,0.07-2.286-0.281-2.813
				c0,0-0.668,0.773-0.738,1.09s-1.196-0.211-1.196-0.211s0-1.02-0.352-1.055s-0.634,1.02-0.634,1.02s-0.879-0.035-1.406-0.316
				c-0.528-0.281-1.583-0.879-1.899-0.281C611.012,604.021,610.855,605.253,611.997,606.906z M628.037,605.323
				c0,0,2.04-1.688,2.251-2.251c0.211-0.563,1.653-2.709,2.181-2.709c0,0,0.598,1.372,0.316,2.005
				c-0.281,0.634-0.914,0.704-1.055,0.915s0,1.23-0.281,1.442c-0.281,0.211-2.463,2.497-2.709,2.743
				S627.979,606.991,628.037,605.323z"/>
		</g>
	</g>
	<rect y="641.18" fill="#4B1900" width="800" height="158.82"/>
	<polygon fill="#7A3A00" points="-0.016,650.333 552.646,661.787 400,687.75 800.016,659.496 800.016,679.351 559.016,707.667 
		800.016,715.746 800.016,744 440.605,743.493 758.016,768.953 166.521,777.092 303.563,800 -0.016,800 0.214,763.347 
		251.682,741.667 0.214,732 0.214,704.549 385.974,709.131 -0.016,672.478 	"/>
	<polygon fill="#633201" points="456.184,744.865 -0.031,732 -0.031,741.525 359.379,765.383 25.077,780.838 633.464,785.966 
		184,800 800,800 799.771,777.546 548.303,764.265 799.771,758.342 799.771,732.612 	"/>
	<polygon fill="#633201" points="343.785,711.536 800,720.59 800,713.886 440.59,697.096 774.892,686.219 166.505,682.609 
		615.969,672.732 -0.031,672.732 0.198,688.535 251.667,697.883 0.198,702.051 0.198,720.159 	"/>
	<circle fill="#FEE063" cx="574.425" cy="324.841" r="118.241"/>
</g>
<g id="DESIGNED_BY_FREEPIK">
</g>
</svg>
