<?xml version="1.0" encoding="utf-8"?>
<!-- Generator: Adobe Illustrator 16.0.0, SVG Export Plug-In . SVG Version: 6.00 Build 0)  -->
<!DOCTYPE svg PUBLIC "-//W3C//DTD SVG 1.1//EN" "http://www.w3.org/Graphics/SVG/1.1/DTD/svg11.dtd">
<svg version="1.1" id="Calque_1" xmlns="http://www.w3.org/2000/svg" xmlns:xlink="http://www.w3.org/1999/xlink" x="0px" y="0px"
	 width="235.5px" height="378.047px" viewBox="0 0 235.5 378.047" enable-background="new 0 0 235.5 378.047" xml:space="preserve">
<path fill="#C69461" d="M82.9,27.521C96.134,17,113.89,9.946,131.621,11.727c11.016,1.11,20.165,4.627,27.857,9.834
	c28.93,19.566,37.211,62.892,46.207,90.783c11.27,34.896,12.713,72.616,0.355,107.526c-10.17,28.739-30.528,55.974-61.063,69.594
	c-1.123,0.498-2.259,0.985-3.41,1.438c-5.735,2.289-11.785,4.007-18.035,4.611c-7.375,0.725-14.858-0.107-22.063-1.662
	c-49.553-10.697-82.75-55.285-87.496-99.936c-4.745-44.649,13.806-88.813,37.912-128.333C60.316,51.761,69.665,38.042,82.9,27.521z"
	/>
<path fill="#3C3C3B" d="M130.264,279.195c0.92,14.516-13.237,61.406-8.248,75.99c4.988,14.584,57.729,24.53,59.746,8.25
	c2.018-16.279-48.369-27.998-41.763-40.575c18.563-32.317,25.746-79.324,25.746-79.324S129.344,264.678,130.264,279.195z"/>
<path fill="#3C3C3B" d="M44.661,255.452c0.856,18.255-13.503,77.299-8.577,95.622s57.628,30.605,59.715,10.119
	s-48.252-35.01-41.591-50.858c18.705-40.731,26.09-99.89,26.09-99.89S43.804,237.195,44.661,255.452z"/>
<path fill="#D8AA77" d="M106.009,21.862c14.938-6.102,32.794-5.905,48.804-0.969c28.93,19.566,37.211,62.892,46.205,90.783
	c11.271,34.896,12.715,72.616,0.356,107.526c-10.17,28.739-30.528,55.974-61.063,69.594c-1.123,0.498-2.258,0.985-3.41,1.438
	c-3.144,0.707-6.369,1.148-9.647,1.264c-8.995,0.326-17.913-1.79-26.165-4.938c-38.207-14.584-61.448-50.748-66.68-87.063
	c-5.24-36.309,4.799-72.959,17.383-107.857C61.768,63.966,76.057,34.096,106.009,21.862z"/>
<path fill="#E8C199" d="M152.732,59.886c3.578,3.221,7.455,6.377,12.244,7.966c4.787,1.589,10.719,1.279,14.391-1.855
	c6.102-5.205,0.717-16.398-3.452-21.192c-6.195-7.124-17.995-20.652-30.705-17.543c-0.407,0.099-0.796,0.208-1.167,0.325
	C128.105,32.62,145.533,53.405,152.732,59.886z"/>
<path fill="#E8C199" d="M171.558,78.992c-3.667,1.827-4.86,6.28-3.448,9.769c1.414,3.491,4.863,6.075,8.6,7.789
	c1.109,0.509,2.313,0.967,3.563,0.907c1.83-0.089,3.362-1.272,4.43-2.583c2.964-3.642,1.894-9.39-1.299-13.165
	C180.635,78.437,176.271,76.646,171.558,78.992z"/>
<path fill="#C69461" d="M76.013,256.379c1.654,8.256,11.519,14.492,20.742,11.545c8.466-2.703,8.64-9.633,7.149-16.904
	c-2.76-13.479-18.047-13.442-24.879-5.931C76.464,247.908,75.091,251.777,76.013,256.379z"/>
<path fill="#C69461" d="M61.585,225.945c1.094,5.463,7.621,9.588,13.726,7.64c5.601-1.789,5.713-6.375,4.729-11.187
	c-1.828-8.918-11.94-8.896-16.461-3.924C61.884,220.339,60.977,222.9,61.585,225.945z"/>
<path fill="#C69461" d="M89.968,228.182c0.685,3.43,4.787,6.021,8.621,4.797c3.519-1.125,3.59-4.004,2.972-7.025
	c-1.149-5.602-7.5-5.588-10.341-2.465C90.154,224.66,89.583,226.268,89.968,228.182z"/>
<g>
	<path fill="#1E1E1C" d="M100.765,88.154c-3.401,4.866-5.006,17.6-3.477,26.844c2.021,12.222,8.843,13.317,13.004,8.454
		c2.233-2.61,3.867-8.123,4.216-14.224c0.349-6.1-0.599-12.608-2.443-16.794C109.064,85.631,104.357,83.011,100.765,88.154z"/>
	<path fill="#FFFFFF" d="M102.589,92.53c-1.551,0.666-2.687,2.131-2.819,3.68c-0.131,1.548,0.762,3.107,2.229,3.835
		c1.466,0.728,3.434,0.572,4.784-0.405C110.461,96.979,107.059,90.612,102.589,92.53z"/>
</g>
<path fill="#1E1E1C" d="M108.689,152.453l35.012,3.359C125.224,166.145,108.689,152.453,108.689,152.453z"/>
<path fill="#1E1E1C" d="M155.375,90.274c-3.401,4.866-5.006,17.601-3.477,26.845c2.021,12.221,8.842,13.316,13.004,8.453
	c2.233-2.609,3.867-8.122,4.215-14.223c0.35-6.1-0.598-12.609-2.443-16.794C163.674,87.751,158.968,85.131,155.375,90.274z"/>
<g>
	<path fill="#FFFFFF" d="M156.727,93.288c-1.794,0.649-3.055,2.169-3.132,3.816c-0.075,1.647,1.056,3.349,2.82,4.183
		c1.764,0.835,4.071,0.745,5.61-0.244C166.219,98.347,161.891,91.417,156.727,93.288z"/>
</g>
<path fill="#3C3C3B" d="M42.794,128.685c4.206,2.501,1.382,7.665,1.382,7.665c-12.363,40.674,28.662,61.978,30.82,57.944
	c2.154-4.036,6.176-7.921,9.59-9.929c3.415-2.004,4.159,2.302,1.837,3.741c-5.927,4.433-8.321,10.156-6.146,10.81
	c2.172,0.654,7.836-4.982,10.434-7.014c2.597-2.027,5.6-3.146,4.939,1.226c-0.664,4.369-13.312,9.633-14.229,11.004
	c3.523,3.084,7.273-2.007,11.096-3.104c3.814-1.101,2.151,4.244,2.151,4.244c-17.515,14.512-26.653-4.875-26.653-4.875
	s-22.287-7.155-28.855-23.183c-6.691-19.324-2.303-46.439-2.303-46.439S38.585,126.182,42.794,128.685z"/>
<path fill="#3C3C3B" d="M206.58,134.151c-3.034,3.769,1.179,7.68,1.179,7.68c24.19,34.133-6.386,67.985-9.634,64.913
	c-3.246-3.074-8.143-5.379-11.889-6.122c-3.746-0.737-3.055,3.565-0.482,4.14c6.807,2.18,10.805,6.764,9.031,8.11
	c-1.768,1.346-8.717-2.058-11.729-3.095c-3.009-1.035-6.098-1.078-4.107,2.814c1.994,3.891,15.182,4.592,16.453,5.575
	c-2.228,4.088-7.26,0.556-11.088,0.81c-3.824,0.246-0.61,4.717-0.61,4.717c20.56,7.772,22.715-13.551,22.715-13.551
	s18.015-14.231,18.899-31.528c-0.054-20.441-12.67-44.492-12.67-44.492S209.615,130.379,206.58,134.151z"/>
</svg>
