<?xml version="1.0" encoding="utf-8"?>
<!-- Generator: Adobe Illustrator 17.0.0, SVG Export Plug-In . SVG Version: 6.00 Build 0)  -->
<!DOCTYPE svg PUBLIC "-//W3C//DTD SVG 1.1//EN" "http://www.w3.org/Graphics/SVG/1.1/DTD/svg11.dtd">
<svg version="1.1" id="Calque_1" xmlns="http://www.w3.org/2000/svg" xmlns:xlink="http://www.w3.org/1999/xlink" x="0px" y="0px"
	 width="235.5px" height="378.047px" viewBox="-11.695 0 235.5 378.047" enable-background="new -11.695 0 235.5 378.047"
	 xml:space="preserve">
<path fill="#C69461" d="M172.661,62.583c24.107,39.52,42.658,83.684,37.912,128.333c-4.746,44.65-37.943,89.238-87.496,99.935
	c-7.205,1.555-14.688,2.388-22.064,1.662c-6.249-0.604-12.299-2.321-18.034-4.611c-1.152-0.453-2.287-0.94-3.41-1.438
	c-30.535-13.62-50.893-40.854-61.063-69.594c-12.358-34.91-10.914-72.63,0.356-107.526c8.995-27.891,17.276-71.217,46.206-90.783
	c7.693-5.207,16.842-8.724,27.858-9.834c17.731-1.781,35.487,5.273,48.72,15.794C154.882,35.042,164.231,48.761,172.661,62.583z"/>
<path fill="#3C3C3B" d="M58.802,240.536c0,0,7.182,47.007,25.746,79.324c6.606,12.578-43.78,24.296-41.763,40.576
	c2.017,16.28,54.758,6.334,59.746-8.25c4.989-14.584-9.168-61.475-8.248-75.991C95.203,261.678,58.802,240.536,58.802,240.536z"/>
<path fill="#3C3C3B" d="M144.249,207.445c0,0,7.385,59.159,26.09,99.89c6.661,15.849-43.678,30.372-41.591,50.858
	c2.087,20.487,54.789,8.204,59.715-10.119c4.926-18.323-9.434-77.367-8.577-95.622C180.743,234.196,144.249,207.445,144.249,207.445
	z"/>
<path fill="#D8AA77" d="M172.756,88.641c12.584,34.898,22.623,71.548,17.383,107.857c-5.232,36.315-28.473,72.479-66.68,87.062
	c-8.252,3.148-17.17,5.264-26.165,4.938c-3.279-0.115-6.504-0.557-9.648-1.264c-1.152-0.453-2.287-0.94-3.41-1.438
	c-30.535-13.62-50.893-40.854-61.063-69.594c-12.358-34.91-10.914-72.63,0.356-107.526c8.995-27.891,17.276-71.217,46.206-90.783
	c16.009-4.936,33.865-5.133,48.803,0.969C148.49,31.096,162.779,60.966,172.756,88.641z"/>
<path fill="#E8C199" d="M80.504,24.587c-0.371-0.117-0.76-0.226-1.167-0.325c-12.71-3.109-24.51,10.419-30.705,17.543
	c-4.169,4.794-9.554,15.987-3.453,21.192c3.673,3.134,9.604,3.444,14.392,1.855c4.789-1.589,8.665-4.745,12.243-7.966
	C79.013,50.405,96.442,29.62,80.504,24.587z"/>
<path fill="#E8C199" d="M41.145,78.709c-3.193,3.775-4.263,9.523-1.299,13.165c1.067,1.311,2.599,2.494,4.43,2.583
	c1.25,0.06,2.452-0.398,3.562-0.907c3.736-1.714,7.186-4.298,8.599-7.789c1.412-3.489,0.219-7.942-3.448-9.769
	C48.275,73.646,43.912,75.437,41.145,78.709z"/>
<path fill="#C69461" d="M145.521,242.089c-6.832-7.512-22.119-7.548-24.879,5.931c-1.49,7.271-1.316,14.2,7.15,16.904
	c9.223,2.947,19.088-3.289,20.742-11.545C149.456,248.778,148.083,244.908,145.521,242.089z"/>
<path fill="#C69461" d="M160.968,215.475c-4.521-4.972-14.633-4.994-16.461,3.924c-0.984,4.811-0.871,9.397,4.73,11.186
	c6.104,1.948,12.631-2.177,13.725-7.639C163.571,219.901,162.663,217.339,160.968,215.475z"/>
<path fill="#C69461" d="M133.327,220.488c-2.84-3.123-9.191-3.137-10.34,2.465c-0.619,3.021-0.547,5.901,2.971,7.026
	c3.834,1.224,7.936-1.367,8.621-4.798C134.964,223.268,134.392,221.66,133.327,220.488z"/>
<g>
	<path fill="#1E1E1C" d="M112.483,89.434c-1.845,4.186-2.793,10.694-2.444,16.794c0.349,6.101,1.982,11.614,4.216,14.224
		c4.161,4.863,10.983,3.768,13.004-8.454c1.529-9.244-0.076-21.978-3.477-26.844C120.189,80.011,115.483,82.631,112.483,89.434z"/>
	<path fill="#FFFFFF" d="M117.764,96.64c1.35,0.977,3.318,1.133,4.784,0.405c1.468-0.728,2.36-2.287,2.23-3.835
		c-0.133-1.549-1.269-3.014-2.82-3.68C117.488,87.612,114.086,93.979,117.764,96.64z"/>
</g>
<path fill="#1E1E1C" d="M80.845,152.812l35.013-3.359C115.857,149.453,99.323,163.145,80.845,152.812z"/>
<path fill="#1E1E1C" d="M57.873,91.555c-1.845,4.185-2.793,10.694-2.444,16.794c0.349,6.101,1.982,11.614,4.216,14.223
	c4.161,4.863,10.983,3.768,13.004-8.453c1.529-9.244-0.076-21.979-3.477-26.845C65.579,82.131,60.873,84.751,57.873,91.555z"/>
<g>
	<path fill="#FFFFFF" d="M62.521,98.043c1.539,0.989,3.847,1.079,5.611,0.244c1.764-0.834,2.896-2.536,2.82-4.183
		c-0.077-1.647-1.338-3.167-3.131-3.816C62.656,88.417,58.328,95.347,62.521,98.043z"/>
</g>
<path fill="#3C3C3B" d="M187.69,127.775c0,0,4.388,27.115-2.303,46.439c-6.569,16.027-28.856,23.182-28.856,23.182
	s-9.138,19.387-26.653,4.875c0,0-1.663-5.344,2.152-4.243c3.822,1.097,7.572,6.188,11.095,3.104
	c-0.917-1.371-13.564-6.635-14.228-11.004c-0.661-4.371,2.342-3.253,4.939-1.225c2.598,2.03,8.262,7.667,10.433,7.013
	c2.176-0.654-0.218-6.377-6.145-10.81c-2.322-1.439-1.578-5.745,1.837-3.741c3.414,2.008,7.435,5.893,9.59,9.929
	c2.158,4.034,43.184-17.27,30.82-57.944c0,0-2.824-5.164,1.382-7.665C185.962,123.182,187.69,127.775,187.69,127.775z"/>
<path fill="#3C3C3B" d="M11.898,131.122c0,0-12.616,24.051-12.669,44.492c0.885,17.297,18.899,31.528,18.899,31.528
	s2.155,21.324,22.715,13.552c0,0,3.213-4.471-0.61-4.718c-3.829-0.253-8.861,3.279-11.088-0.809
	c1.271-0.983,14.458-1.685,16.452-5.575c1.991-3.893-1.098-3.85-4.107-2.814c-3.011,1.037-9.96,4.44-11.729,3.094
	c-1.773-1.347,2.226-5.93,9.032-8.11c2.572-0.574,3.264-4.877-0.483-4.14c-3.746,0.743-8.642,3.048-11.888,6.122
	c-3.248,3.072-33.824-30.78-9.634-64.913c0,0,4.213-3.911,1.179-7.68C14.932,127.379,11.898,131.122,11.898,131.122z"/>
</svg>
